%TF.GenerationSoftware,KiCad,Pcbnew,10.0.4*%
%TF.CreationDate,2026-07-09T13:31:23+02:00*%
%TF.ProjectId,TFG,5446472e-6b69-4636-9164-5f7063625858,rev?*%
%TF.SameCoordinates,Original*%
%TF.FileFunction,Copper,L1,Top*%
%TF.FilePolarity,Positive*%
%FSLAX46Y46*%
G04 Gerber Fmt 4.6, Leading zero omitted, Abs format (unit mm)*
G04 Created by KiCad (PCBNEW 10.0.4) date 2026-07-09 13:31:23*
%MOMM*%
%LPD*%
G01*
G04 APERTURE LIST*
G04 Aperture macros list*
%AMRoundRect*
0 Rectangle with rounded corners*
0 $1 Rounding radius*
0 $2 $3 $4 $5 $6 $7 $8 $9 X,Y pos of 4 corners*
0 Add a 4 corners polygon primitive as box body*
4,1,4,$2,$3,$4,$5,$6,$7,$8,$9,$2,$3,0*
0 Add four circle primitives for the rounded corners*
1,1,$1+$1,$2,$3*
1,1,$1+$1,$4,$5*
1,1,$1+$1,$6,$7*
1,1,$1+$1,$8,$9*
0 Add four rect primitives between the rounded corners*
20,1,$1+$1,$2,$3,$4,$5,0*
20,1,$1+$1,$4,$5,$6,$7,0*
20,1,$1+$1,$6,$7,$8,$9,0*
20,1,$1+$1,$8,$9,$2,$3,0*%
G04 Aperture macros list end*
%TA.AperFunction,Conductor*%
%ADD10C,0.200000*%
%TD*%
%ADD11C,0.187500*%
%TA.AperFunction,NonConductor*%
%ADD12C,0.187500*%
%TD*%
%ADD13C,0.300000*%
%TA.AperFunction,NonConductor*%
%ADD14C,0.300000*%
%TD*%
%TA.AperFunction,NonConductor*%
%ADD15C,0.200000*%
%TD*%
%TA.AperFunction,SMDPad,CuDef*%
%ADD16R,0.800000X0.900000*%
%TD*%
%TA.AperFunction,SMDPad,CuDef*%
%ADD17RoundRect,0.250000X-0.450000X-0.425000X0.450000X-0.425000X0.450000X0.425000X-0.450000X0.425000X0*%
%TD*%
%TA.AperFunction,SMDPad,CuDef*%
%ADD18RoundRect,0.200000X0.275000X-0.200000X0.275000X0.200000X-0.275000X0.200000X-0.275000X-0.200000X0*%
%TD*%
%TA.AperFunction,SMDPad,CuDef*%
%ADD19RoundRect,0.225000X0.225000X0.250000X-0.225000X0.250000X-0.225000X-0.250000X0.225000X-0.250000X0*%
%TD*%
%TA.AperFunction,SMDPad,CuDef*%
%ADD20RoundRect,0.225000X-0.225000X-0.250000X0.225000X-0.250000X0.225000X0.250000X-0.225000X0.250000X0*%
%TD*%
%TA.AperFunction,SMDPad,CuDef*%
%ADD21R,0.420000X0.490000*%
%TD*%
%TA.AperFunction,SMDPad,CuDef*%
%ADD22RoundRect,0.200000X0.200000X0.275000X-0.200000X0.275000X-0.200000X-0.275000X0.200000X-0.275000X0*%
%TD*%
%TA.AperFunction,SMDPad,CuDef*%
%ADD23RoundRect,0.250000X-0.425000X0.450000X-0.425000X-0.450000X0.425000X-0.450000X0.425000X0.450000X0*%
%TD*%
%TA.AperFunction,SMDPad,CuDef*%
%ADD24R,1.300000X1.300000*%
%TD*%
%TA.AperFunction,SMDPad,CuDef*%
%ADD25R,1.300000X2.000000*%
%TD*%
%TA.AperFunction,SMDPad,CuDef*%
%ADD26RoundRect,0.225000X0.250000X-0.225000X0.250000X0.225000X-0.250000X0.225000X-0.250000X-0.225000X0*%
%TD*%
%TA.AperFunction,SMDPad,CuDef*%
%ADD27RoundRect,0.375000X0.625000X0.375000X-0.625000X0.375000X-0.625000X-0.375000X0.625000X-0.375000X0*%
%TD*%
%TA.AperFunction,SMDPad,CuDef*%
%ADD28RoundRect,0.500000X0.500000X1.400000X-0.500000X1.400000X-0.500000X-1.400000X0.500000X-1.400000X0*%
%TD*%
%TA.AperFunction,SMDPad,CuDef*%
%ADD29R,0.850000X0.400000*%
%TD*%
%TA.AperFunction,SMDPad,CuDef*%
%ADD30RoundRect,0.200000X-0.275000X0.200000X-0.275000X-0.200000X0.275000X-0.200000X0.275000X0.200000X0*%
%TD*%
%TA.AperFunction,SMDPad,CuDef*%
%ADD31R,3.810000X0.762000*%
%TD*%
%TA.AperFunction,SMDPad,CuDef*%
%ADD32R,3.810000X0.812800*%
%TD*%
%TA.AperFunction,SMDPad,CuDef*%
%ADD33RoundRect,0.375000X-0.625000X-0.375000X0.625000X-0.375000X0.625000X0.375000X-0.625000X0.375000X0*%
%TD*%
%TA.AperFunction,SMDPad,CuDef*%
%ADD34RoundRect,0.500000X-0.500000X-1.400000X0.500000X-1.400000X0.500000X1.400000X-0.500000X1.400000X0*%
%TD*%
%TA.AperFunction,SMDPad,CuDef*%
%ADD35RoundRect,0.218750X-0.381250X0.218750X-0.381250X-0.218750X0.381250X-0.218750X0.381250X0.218750X0*%
%TD*%
%TA.AperFunction,ComponentPad*%
%ADD36R,3.500000X3.500000*%
%TD*%
%TA.AperFunction,ComponentPad*%
%ADD37RoundRect,0.750000X-0.750000X-1.000000X0.750000X-1.000000X0.750000X1.000000X-0.750000X1.000000X0*%
%TD*%
%TA.AperFunction,ComponentPad*%
%ADD38RoundRect,0.875000X-0.875000X-0.875000X0.875000X-0.875000X0.875000X0.875000X-0.875000X0.875000X0*%
%TD*%
%TA.AperFunction,SMDPad,CuDef*%
%ADD39RoundRect,0.250000X0.450000X0.425000X-0.450000X0.425000X-0.450000X-0.425000X0.450000X-0.425000X0*%
%TD*%
%TA.AperFunction,SMDPad,CuDef*%
%ADD40R,2.000000X1.300000*%
%TD*%
%TA.AperFunction,SMDPad,CuDef*%
%ADD41R,0.500000X0.580000*%
%TD*%
%TA.AperFunction,SMDPad,CuDef*%
%ADD42R,0.800000X0.580000*%
%TD*%
%TA.AperFunction,SMDPad,CuDef*%
%ADD43RoundRect,0.150000X-0.587500X-0.150000X0.587500X-0.150000X0.587500X0.150000X-0.587500X0.150000X0*%
%TD*%
%TA.AperFunction,ViaPad*%
%ADD44C,0.500000*%
%TD*%
%TA.AperFunction,Conductor*%
%ADD45C,0.900000*%
%TD*%
%TA.AperFunction,Conductor*%
%ADD46C,0.500000*%
%TD*%
%TA.AperFunction,Conductor*%
%ADD47C,0.350000*%
%TD*%
%TA.AperFunction,Conductor*%
%ADD48C,0.300000*%
%TD*%
%TA.AperFunction,Conductor*%
%ADD49C,0.750000*%
%TD*%
G04 APERTURE END LIST*
%TO.N,GND*%
D10*
X46680000Y-30870024D02*
X103370000Y-30870024D01*
X103370000Y-79740000D01*
X46680000Y-79740000D01*
X46680000Y-30870024D01*
D11*
D12*
X75611450Y-39897981D02*
X75611450Y-40707504D01*
X75611450Y-40707504D02*
X75659069Y-40802742D01*
X75659069Y-40802742D02*
X75706688Y-40850362D01*
X75706688Y-40850362D02*
X75801926Y-40897981D01*
X75801926Y-40897981D02*
X75992402Y-40897981D01*
X75992402Y-40897981D02*
X76087640Y-40850362D01*
X76087640Y-40850362D02*
X76135259Y-40802742D01*
X76135259Y-40802742D02*
X76182878Y-40707504D01*
X76182878Y-40707504D02*
X76182878Y-39897981D01*
X76801926Y-40897981D02*
X76706688Y-40850362D01*
X76706688Y-40850362D02*
X76659069Y-40755123D01*
X76659069Y-40755123D02*
X76659069Y-39897981D01*
X77040022Y-40231314D02*
X77420974Y-40231314D01*
X77182879Y-39897981D02*
X77182879Y-40755123D01*
X77182879Y-40755123D02*
X77230498Y-40850362D01*
X77230498Y-40850362D02*
X77325736Y-40897981D01*
X77325736Y-40897981D02*
X77420974Y-40897981D01*
X77754308Y-40897981D02*
X77754308Y-40231314D01*
X77754308Y-40421790D02*
X77801927Y-40326552D01*
X77801927Y-40326552D02*
X77849546Y-40278933D01*
X77849546Y-40278933D02*
X77944784Y-40231314D01*
X77944784Y-40231314D02*
X78040022Y-40231314D01*
X78801927Y-40897981D02*
X78801927Y-40374171D01*
X78801927Y-40374171D02*
X78754308Y-40278933D01*
X78754308Y-40278933D02*
X78659070Y-40231314D01*
X78659070Y-40231314D02*
X78468594Y-40231314D01*
X78468594Y-40231314D02*
X78373356Y-40278933D01*
X78801927Y-40850362D02*
X78706689Y-40897981D01*
X78706689Y-40897981D02*
X78468594Y-40897981D01*
X78468594Y-40897981D02*
X78373356Y-40850362D01*
X78373356Y-40850362D02*
X78325737Y-40755123D01*
X78325737Y-40755123D02*
X78325737Y-40659885D01*
X78325737Y-40659885D02*
X78373356Y-40564647D01*
X78373356Y-40564647D02*
X78468594Y-40517028D01*
X78468594Y-40517028D02*
X78706689Y-40517028D01*
X78706689Y-40517028D02*
X78801927Y-40469409D01*
X79182880Y-40231314D02*
X79373356Y-40897981D01*
X79373356Y-40897981D02*
X79563832Y-40421790D01*
X79563832Y-40421790D02*
X79754308Y-40897981D01*
X79754308Y-40897981D02*
X79944784Y-40231314D01*
X80325737Y-40897981D02*
X80325737Y-40231314D01*
X80325737Y-39897981D02*
X80278118Y-39945600D01*
X80278118Y-39945600D02*
X80325737Y-39993219D01*
X80325737Y-39993219D02*
X80373356Y-39945600D01*
X80373356Y-39945600D02*
X80325737Y-39897981D01*
X80325737Y-39897981D02*
X80325737Y-39993219D01*
X81230498Y-40897981D02*
X81230498Y-39897981D01*
X81230498Y-40850362D02*
X81135260Y-40897981D01*
X81135260Y-40897981D02*
X80944784Y-40897981D01*
X80944784Y-40897981D02*
X80849546Y-40850362D01*
X80849546Y-40850362D02*
X80801927Y-40802742D01*
X80801927Y-40802742D02*
X80754308Y-40707504D01*
X80754308Y-40707504D02*
X80754308Y-40421790D01*
X80754308Y-40421790D02*
X80801927Y-40326552D01*
X80801927Y-40326552D02*
X80849546Y-40278933D01*
X80849546Y-40278933D02*
X80944784Y-40231314D01*
X80944784Y-40231314D02*
X81135260Y-40231314D01*
X81135260Y-40231314D02*
X81230498Y-40278933D01*
X82087641Y-40850362D02*
X81992403Y-40897981D01*
X81992403Y-40897981D02*
X81801927Y-40897981D01*
X81801927Y-40897981D02*
X81706689Y-40850362D01*
X81706689Y-40850362D02*
X81659070Y-40755123D01*
X81659070Y-40755123D02*
X81659070Y-40374171D01*
X81659070Y-40374171D02*
X81706689Y-40278933D01*
X81706689Y-40278933D02*
X81801927Y-40231314D01*
X81801927Y-40231314D02*
X81992403Y-40231314D01*
X81992403Y-40231314D02*
X82087641Y-40278933D01*
X82087641Y-40278933D02*
X82135260Y-40374171D01*
X82135260Y-40374171D02*
X82135260Y-40469409D01*
X82135260Y-40469409D02*
X81659070Y-40564647D01*
X82563832Y-40897981D02*
X82563832Y-39897981D01*
X82563832Y-40278933D02*
X82659070Y-40231314D01*
X82659070Y-40231314D02*
X82849546Y-40231314D01*
X82849546Y-40231314D02*
X82944784Y-40278933D01*
X82944784Y-40278933D02*
X82992403Y-40326552D01*
X82992403Y-40326552D02*
X83040022Y-40421790D01*
X83040022Y-40421790D02*
X83040022Y-40707504D01*
X83040022Y-40707504D02*
X82992403Y-40802742D01*
X82992403Y-40802742D02*
X82944784Y-40850362D01*
X82944784Y-40850362D02*
X82849546Y-40897981D01*
X82849546Y-40897981D02*
X82659070Y-40897981D01*
X82659070Y-40897981D02*
X82563832Y-40850362D01*
X83897165Y-40897981D02*
X83897165Y-40374171D01*
X83897165Y-40374171D02*
X83849546Y-40278933D01*
X83849546Y-40278933D02*
X83754308Y-40231314D01*
X83754308Y-40231314D02*
X83563832Y-40231314D01*
X83563832Y-40231314D02*
X83468594Y-40278933D01*
X83897165Y-40850362D02*
X83801927Y-40897981D01*
X83801927Y-40897981D02*
X83563832Y-40897981D01*
X83563832Y-40897981D02*
X83468594Y-40850362D01*
X83468594Y-40850362D02*
X83420975Y-40755123D01*
X83420975Y-40755123D02*
X83420975Y-40659885D01*
X83420975Y-40659885D02*
X83468594Y-40564647D01*
X83468594Y-40564647D02*
X83563832Y-40517028D01*
X83563832Y-40517028D02*
X83801927Y-40517028D01*
X83801927Y-40517028D02*
X83897165Y-40469409D01*
X84373356Y-40231314D02*
X84373356Y-40897981D01*
X84373356Y-40326552D02*
X84420975Y-40278933D01*
X84420975Y-40278933D02*
X84516213Y-40231314D01*
X84516213Y-40231314D02*
X84659070Y-40231314D01*
X84659070Y-40231314D02*
X84754308Y-40278933D01*
X84754308Y-40278933D02*
X84801927Y-40374171D01*
X84801927Y-40374171D02*
X84801927Y-40897981D01*
X85706689Y-40897981D02*
X85706689Y-39897981D01*
X85706689Y-40850362D02*
X85611451Y-40897981D01*
X85611451Y-40897981D02*
X85420975Y-40897981D01*
X85420975Y-40897981D02*
X85325737Y-40850362D01*
X85325737Y-40850362D02*
X85278118Y-40802742D01*
X85278118Y-40802742D02*
X85230499Y-40707504D01*
X85230499Y-40707504D02*
X85230499Y-40421790D01*
X85230499Y-40421790D02*
X85278118Y-40326552D01*
X85278118Y-40326552D02*
X85325737Y-40278933D01*
X85325737Y-40278933D02*
X85420975Y-40231314D01*
X85420975Y-40231314D02*
X85611451Y-40231314D01*
X85611451Y-40231314D02*
X85706689Y-40278933D01*
X86944785Y-40231314D02*
X86944785Y-41231314D01*
X86944785Y-40278933D02*
X87040023Y-40231314D01*
X87040023Y-40231314D02*
X87230499Y-40231314D01*
X87230499Y-40231314D02*
X87325737Y-40278933D01*
X87325737Y-40278933D02*
X87373356Y-40326552D01*
X87373356Y-40326552D02*
X87420975Y-40421790D01*
X87420975Y-40421790D02*
X87420975Y-40707504D01*
X87420975Y-40707504D02*
X87373356Y-40802742D01*
X87373356Y-40802742D02*
X87325737Y-40850362D01*
X87325737Y-40850362D02*
X87230499Y-40897981D01*
X87230499Y-40897981D02*
X87040023Y-40897981D01*
X87040023Y-40897981D02*
X86944785Y-40850362D01*
X88278118Y-40231314D02*
X88278118Y-40897981D01*
X87849547Y-40231314D02*
X87849547Y-40755123D01*
X87849547Y-40755123D02*
X87897166Y-40850362D01*
X87897166Y-40850362D02*
X87992404Y-40897981D01*
X87992404Y-40897981D02*
X88135261Y-40897981D01*
X88135261Y-40897981D02*
X88230499Y-40850362D01*
X88230499Y-40850362D02*
X88278118Y-40802742D01*
X88897166Y-40897981D02*
X88801928Y-40850362D01*
X88801928Y-40850362D02*
X88754309Y-40755123D01*
X88754309Y-40755123D02*
X88754309Y-39897981D01*
X89230500Y-40850362D02*
X89325738Y-40897981D01*
X89325738Y-40897981D02*
X89516214Y-40897981D01*
X89516214Y-40897981D02*
X89611452Y-40850362D01*
X89611452Y-40850362D02*
X89659071Y-40755123D01*
X89659071Y-40755123D02*
X89659071Y-40707504D01*
X89659071Y-40707504D02*
X89611452Y-40612266D01*
X89611452Y-40612266D02*
X89516214Y-40564647D01*
X89516214Y-40564647D02*
X89373357Y-40564647D01*
X89373357Y-40564647D02*
X89278119Y-40517028D01*
X89278119Y-40517028D02*
X89230500Y-40421790D01*
X89230500Y-40421790D02*
X89230500Y-40374171D01*
X89230500Y-40374171D02*
X89278119Y-40278933D01*
X89278119Y-40278933D02*
X89373357Y-40231314D01*
X89373357Y-40231314D02*
X89516214Y-40231314D01*
X89516214Y-40231314D02*
X89611452Y-40278933D01*
X90468595Y-40850362D02*
X90373357Y-40897981D01*
X90373357Y-40897981D02*
X90182881Y-40897981D01*
X90182881Y-40897981D02*
X90087643Y-40850362D01*
X90087643Y-40850362D02*
X90040024Y-40755123D01*
X90040024Y-40755123D02*
X90040024Y-40374171D01*
X90040024Y-40374171D02*
X90087643Y-40278933D01*
X90087643Y-40278933D02*
X90182881Y-40231314D01*
X90182881Y-40231314D02*
X90373357Y-40231314D01*
X90373357Y-40231314D02*
X90468595Y-40278933D01*
X90468595Y-40278933D02*
X90516214Y-40374171D01*
X90516214Y-40374171D02*
X90516214Y-40469409D01*
X90516214Y-40469409D02*
X90040024Y-40564647D01*
X92135262Y-40231314D02*
X92135262Y-41040838D01*
X92135262Y-41040838D02*
X92087643Y-41136076D01*
X92087643Y-41136076D02*
X92040024Y-41183695D01*
X92040024Y-41183695D02*
X91944786Y-41231314D01*
X91944786Y-41231314D02*
X91801929Y-41231314D01*
X91801929Y-41231314D02*
X91706691Y-41183695D01*
X92135262Y-40850362D02*
X92040024Y-40897981D01*
X92040024Y-40897981D02*
X91849548Y-40897981D01*
X91849548Y-40897981D02*
X91754310Y-40850362D01*
X91754310Y-40850362D02*
X91706691Y-40802742D01*
X91706691Y-40802742D02*
X91659072Y-40707504D01*
X91659072Y-40707504D02*
X91659072Y-40421790D01*
X91659072Y-40421790D02*
X91706691Y-40326552D01*
X91706691Y-40326552D02*
X91754310Y-40278933D01*
X91754310Y-40278933D02*
X91849548Y-40231314D01*
X91849548Y-40231314D02*
X92040024Y-40231314D01*
X92040024Y-40231314D02*
X92135262Y-40278933D01*
X92992405Y-40850362D02*
X92897167Y-40897981D01*
X92897167Y-40897981D02*
X92706691Y-40897981D01*
X92706691Y-40897981D02*
X92611453Y-40850362D01*
X92611453Y-40850362D02*
X92563834Y-40755123D01*
X92563834Y-40755123D02*
X92563834Y-40374171D01*
X92563834Y-40374171D02*
X92611453Y-40278933D01*
X92611453Y-40278933D02*
X92706691Y-40231314D01*
X92706691Y-40231314D02*
X92897167Y-40231314D01*
X92897167Y-40231314D02*
X92992405Y-40278933D01*
X92992405Y-40278933D02*
X93040024Y-40374171D01*
X93040024Y-40374171D02*
X93040024Y-40469409D01*
X93040024Y-40469409D02*
X92563834Y-40564647D01*
X93468596Y-40231314D02*
X93468596Y-40897981D01*
X93468596Y-40326552D02*
X93516215Y-40278933D01*
X93516215Y-40278933D02*
X93611453Y-40231314D01*
X93611453Y-40231314D02*
X93754310Y-40231314D01*
X93754310Y-40231314D02*
X93849548Y-40278933D01*
X93849548Y-40278933D02*
X93897167Y-40374171D01*
X93897167Y-40374171D02*
X93897167Y-40897981D01*
X94754310Y-40850362D02*
X94659072Y-40897981D01*
X94659072Y-40897981D02*
X94468596Y-40897981D01*
X94468596Y-40897981D02*
X94373358Y-40850362D01*
X94373358Y-40850362D02*
X94325739Y-40755123D01*
X94325739Y-40755123D02*
X94325739Y-40374171D01*
X94325739Y-40374171D02*
X94373358Y-40278933D01*
X94373358Y-40278933D02*
X94468596Y-40231314D01*
X94468596Y-40231314D02*
X94659072Y-40231314D01*
X94659072Y-40231314D02*
X94754310Y-40278933D01*
X94754310Y-40278933D02*
X94801929Y-40374171D01*
X94801929Y-40374171D02*
X94801929Y-40469409D01*
X94801929Y-40469409D02*
X94325739Y-40564647D01*
X95230501Y-40897981D02*
X95230501Y-40231314D01*
X95230501Y-40421790D02*
X95278120Y-40326552D01*
X95278120Y-40326552D02*
X95325739Y-40278933D01*
X95325739Y-40278933D02*
X95420977Y-40231314D01*
X95420977Y-40231314D02*
X95516215Y-40231314D01*
X96278120Y-40897981D02*
X96278120Y-40374171D01*
X96278120Y-40374171D02*
X96230501Y-40278933D01*
X96230501Y-40278933D02*
X96135263Y-40231314D01*
X96135263Y-40231314D02*
X95944787Y-40231314D01*
X95944787Y-40231314D02*
X95849549Y-40278933D01*
X96278120Y-40850362D02*
X96182882Y-40897981D01*
X96182882Y-40897981D02*
X95944787Y-40897981D01*
X95944787Y-40897981D02*
X95849549Y-40850362D01*
X95849549Y-40850362D02*
X95801930Y-40755123D01*
X95801930Y-40755123D02*
X95801930Y-40659885D01*
X95801930Y-40659885D02*
X95849549Y-40564647D01*
X95849549Y-40564647D02*
X95944787Y-40517028D01*
X95944787Y-40517028D02*
X96182882Y-40517028D01*
X96182882Y-40517028D02*
X96278120Y-40469409D01*
X96611454Y-40231314D02*
X96992406Y-40231314D01*
X96754311Y-39897981D02*
X96754311Y-40755123D01*
X96754311Y-40755123D02*
X96801930Y-40850362D01*
X96801930Y-40850362D02*
X96897168Y-40897981D01*
X96897168Y-40897981D02*
X96992406Y-40897981D01*
X97468597Y-40897981D02*
X97373359Y-40850362D01*
X97373359Y-40850362D02*
X97325740Y-40802742D01*
X97325740Y-40802742D02*
X97278121Y-40707504D01*
X97278121Y-40707504D02*
X97278121Y-40421790D01*
X97278121Y-40421790D02*
X97325740Y-40326552D01*
X97325740Y-40326552D02*
X97373359Y-40278933D01*
X97373359Y-40278933D02*
X97468597Y-40231314D01*
X97468597Y-40231314D02*
X97611454Y-40231314D01*
X97611454Y-40231314D02*
X97706692Y-40278933D01*
X97706692Y-40278933D02*
X97754311Y-40326552D01*
X97754311Y-40326552D02*
X97801930Y-40421790D01*
X97801930Y-40421790D02*
X97801930Y-40707504D01*
X97801930Y-40707504D02*
X97754311Y-40802742D01*
X97754311Y-40802742D02*
X97706692Y-40850362D01*
X97706692Y-40850362D02*
X97611454Y-40897981D01*
X97611454Y-40897981D02*
X97468597Y-40897981D01*
X98230502Y-40897981D02*
X98230502Y-40231314D01*
X98230502Y-40421790D02*
X98278121Y-40326552D01*
X98278121Y-40326552D02*
X98325740Y-40278933D01*
X98325740Y-40278933D02*
X98420978Y-40231314D01*
X98420978Y-40231314D02*
X98516216Y-40231314D01*
X99516217Y-40231314D02*
X99754312Y-40897981D01*
X99754312Y-40897981D02*
X99992407Y-40231314D01*
X100897169Y-40897981D02*
X100325741Y-40897981D01*
X100611455Y-40897981D02*
X100611455Y-39897981D01*
X100611455Y-39897981D02*
X100516217Y-40040838D01*
X100516217Y-40040838D02*
X100420979Y-40136076D01*
X100420979Y-40136076D02*
X100325741Y-40183695D01*
X75611450Y-41984115D02*
X75944783Y-41984115D01*
X76087640Y-42507925D02*
X75611450Y-42507925D01*
X75611450Y-42507925D02*
X75611450Y-41507925D01*
X75611450Y-41507925D02*
X76087640Y-41507925D01*
X76849545Y-41984115D02*
X76516212Y-41984115D01*
X76516212Y-42507925D02*
X76516212Y-41507925D01*
X76516212Y-41507925D02*
X76992402Y-41507925D01*
X77944783Y-42507925D02*
X77611450Y-42031734D01*
X77373355Y-42507925D02*
X77373355Y-41507925D01*
X77373355Y-41507925D02*
X77754307Y-41507925D01*
X77754307Y-41507925D02*
X77849545Y-41555544D01*
X77849545Y-41555544D02*
X77897164Y-41603163D01*
X77897164Y-41603163D02*
X77944783Y-41698401D01*
X77944783Y-41698401D02*
X77944783Y-41841258D01*
X77944783Y-41841258D02*
X77897164Y-41936496D01*
X77897164Y-41936496D02*
X77849545Y-41984115D01*
X77849545Y-41984115D02*
X77754307Y-42031734D01*
X77754307Y-42031734D02*
X77373355Y-42031734D01*
X78373355Y-41984115D02*
X78706688Y-41984115D01*
X78849545Y-42507925D02*
X78373355Y-42507925D01*
X78373355Y-42507925D02*
X78373355Y-41507925D01*
X78373355Y-41507925D02*
X78849545Y-41507925D01*
X78706688Y-41126972D02*
X78563831Y-41269829D01*
X79278117Y-42507925D02*
X79278117Y-41507925D01*
X79278117Y-41507925D02*
X79849545Y-42507925D01*
X79849545Y-42507925D02*
X79849545Y-41507925D01*
X81420974Y-41984115D02*
X81087641Y-41984115D01*
X81087641Y-42507925D02*
X81087641Y-41507925D01*
X81087641Y-41507925D02*
X81563831Y-41507925D01*
X81944784Y-41984115D02*
X82278117Y-41984115D01*
X82420974Y-42507925D02*
X81944784Y-42507925D01*
X81944784Y-42507925D02*
X81944784Y-41507925D01*
X81944784Y-41507925D02*
X82420974Y-41507925D01*
X83420974Y-42507925D02*
X83087641Y-42031734D01*
X82849546Y-42507925D02*
X82849546Y-41507925D01*
X82849546Y-41507925D02*
X83230498Y-41507925D01*
X83230498Y-41507925D02*
X83325736Y-41555544D01*
X83325736Y-41555544D02*
X83373355Y-41603163D01*
X83373355Y-41603163D02*
X83420974Y-41698401D01*
X83420974Y-41698401D02*
X83420974Y-41841258D01*
X83420974Y-41841258D02*
X83373355Y-41936496D01*
X83373355Y-41936496D02*
X83325736Y-41984115D01*
X83325736Y-41984115D02*
X83230498Y-42031734D01*
X83230498Y-42031734D02*
X82849546Y-42031734D01*
X83849546Y-42507925D02*
X83849546Y-41507925D01*
X83849546Y-41507925D02*
X84420974Y-42507925D01*
X84420974Y-42507925D02*
X84420974Y-41507925D01*
X84849546Y-42222210D02*
X85325736Y-42222210D01*
X84754308Y-42507925D02*
X85087641Y-41507925D01*
X85087641Y-41507925D02*
X85420974Y-42507925D01*
X85182879Y-41126972D02*
X85040022Y-41269829D01*
X85754308Y-42507925D02*
X85754308Y-41507925D01*
X85754308Y-41507925D02*
X86325736Y-42507925D01*
X86325736Y-42507925D02*
X86325736Y-41507925D01*
X86801927Y-42507925D02*
X86801927Y-41507925D01*
X86801927Y-41507925D02*
X87040022Y-41507925D01*
X87040022Y-41507925D02*
X87182879Y-41555544D01*
X87182879Y-41555544D02*
X87278117Y-41650782D01*
X87278117Y-41650782D02*
X87325736Y-41746020D01*
X87325736Y-41746020D02*
X87373355Y-41936496D01*
X87373355Y-41936496D02*
X87373355Y-42079353D01*
X87373355Y-42079353D02*
X87325736Y-42269829D01*
X87325736Y-42269829D02*
X87278117Y-42365067D01*
X87278117Y-42365067D02*
X87182879Y-42460306D01*
X87182879Y-42460306D02*
X87040022Y-42507925D01*
X87040022Y-42507925D02*
X86801927Y-42507925D01*
X87801927Y-41984115D02*
X88135260Y-41984115D01*
X88278117Y-42507925D02*
X87801927Y-42507925D01*
X87801927Y-42507925D02*
X87801927Y-41507925D01*
X87801927Y-41507925D02*
X88278117Y-41507925D01*
X88611451Y-41507925D02*
X89278117Y-41507925D01*
X89278117Y-41507925D02*
X88611451Y-42507925D01*
X88611451Y-42507925D02*
X89278117Y-42507925D01*
X90420975Y-42126972D02*
X91182880Y-42126972D01*
X92278118Y-41507925D02*
X92849546Y-41507925D01*
X92563832Y-42507925D02*
X92563832Y-41507925D01*
X93516213Y-41984115D02*
X93182880Y-41984115D01*
X93182880Y-42507925D02*
X93182880Y-41507925D01*
X93182880Y-41507925D02*
X93659070Y-41507925D01*
X94563832Y-41555544D02*
X94468594Y-41507925D01*
X94468594Y-41507925D02*
X94325737Y-41507925D01*
X94325737Y-41507925D02*
X94182880Y-41555544D01*
X94182880Y-41555544D02*
X94087642Y-41650782D01*
X94087642Y-41650782D02*
X94040023Y-41746020D01*
X94040023Y-41746020D02*
X93992404Y-41936496D01*
X93992404Y-41936496D02*
X93992404Y-42079353D01*
X93992404Y-42079353D02*
X94040023Y-42269829D01*
X94040023Y-42269829D02*
X94087642Y-42365067D01*
X94087642Y-42365067D02*
X94182880Y-42460306D01*
X94182880Y-42460306D02*
X94325737Y-42507925D01*
X94325737Y-42507925D02*
X94420975Y-42507925D01*
X94420975Y-42507925D02*
X94563832Y-42460306D01*
X94563832Y-42460306D02*
X94611451Y-42412686D01*
X94611451Y-42412686D02*
X94611451Y-42079353D01*
X94611451Y-42079353D02*
X94420975Y-42079353D01*
X75897164Y-43117869D02*
X75897164Y-43832154D01*
X75897164Y-43832154D02*
X75849545Y-43975011D01*
X75849545Y-43975011D02*
X75754307Y-44070250D01*
X75754307Y-44070250D02*
X75611450Y-44117869D01*
X75611450Y-44117869D02*
X75516212Y-44117869D01*
X76801926Y-43451202D02*
X76801926Y-44117869D01*
X76373355Y-43451202D02*
X76373355Y-43975011D01*
X76373355Y-43975011D02*
X76420974Y-44070250D01*
X76420974Y-44070250D02*
X76516212Y-44117869D01*
X76516212Y-44117869D02*
X76659069Y-44117869D01*
X76659069Y-44117869D02*
X76754307Y-44070250D01*
X76754307Y-44070250D02*
X76801926Y-44022630D01*
X77420974Y-44117869D02*
X77325736Y-44070250D01*
X77325736Y-44070250D02*
X77278117Y-43975011D01*
X77278117Y-43975011D02*
X77278117Y-43117869D01*
X77706689Y-43451202D02*
X77944784Y-44117869D01*
X78182879Y-43451202D02*
X77944784Y-44117869D01*
X77944784Y-44117869D02*
X77849546Y-44355964D01*
X77849546Y-44355964D02*
X77801927Y-44403583D01*
X77801927Y-44403583D02*
X77706689Y-44451202D01*
X79278118Y-43213107D02*
X79325737Y-43165488D01*
X79325737Y-43165488D02*
X79420975Y-43117869D01*
X79420975Y-43117869D02*
X79659070Y-43117869D01*
X79659070Y-43117869D02*
X79754308Y-43165488D01*
X79754308Y-43165488D02*
X79801927Y-43213107D01*
X79801927Y-43213107D02*
X79849546Y-43308345D01*
X79849546Y-43308345D02*
X79849546Y-43403583D01*
X79849546Y-43403583D02*
X79801927Y-43546440D01*
X79801927Y-43546440D02*
X79230499Y-44117869D01*
X79230499Y-44117869D02*
X79849546Y-44117869D01*
X80468594Y-43117869D02*
X80563832Y-43117869D01*
X80563832Y-43117869D02*
X80659070Y-43165488D01*
X80659070Y-43165488D02*
X80706689Y-43213107D01*
X80706689Y-43213107D02*
X80754308Y-43308345D01*
X80754308Y-43308345D02*
X80801927Y-43498821D01*
X80801927Y-43498821D02*
X80801927Y-43736916D01*
X80801927Y-43736916D02*
X80754308Y-43927392D01*
X80754308Y-43927392D02*
X80706689Y-44022630D01*
X80706689Y-44022630D02*
X80659070Y-44070250D01*
X80659070Y-44070250D02*
X80563832Y-44117869D01*
X80563832Y-44117869D02*
X80468594Y-44117869D01*
X80468594Y-44117869D02*
X80373356Y-44070250D01*
X80373356Y-44070250D02*
X80325737Y-44022630D01*
X80325737Y-44022630D02*
X80278118Y-43927392D01*
X80278118Y-43927392D02*
X80230499Y-43736916D01*
X80230499Y-43736916D02*
X80230499Y-43498821D01*
X80230499Y-43498821D02*
X80278118Y-43308345D01*
X80278118Y-43308345D02*
X80325737Y-43213107D01*
X80325737Y-43213107D02*
X80373356Y-43165488D01*
X80373356Y-43165488D02*
X80468594Y-43117869D01*
X81182880Y-43213107D02*
X81230499Y-43165488D01*
X81230499Y-43165488D02*
X81325737Y-43117869D01*
X81325737Y-43117869D02*
X81563832Y-43117869D01*
X81563832Y-43117869D02*
X81659070Y-43165488D01*
X81659070Y-43165488D02*
X81706689Y-43213107D01*
X81706689Y-43213107D02*
X81754308Y-43308345D01*
X81754308Y-43308345D02*
X81754308Y-43403583D01*
X81754308Y-43403583D02*
X81706689Y-43546440D01*
X81706689Y-43546440D02*
X81135261Y-44117869D01*
X81135261Y-44117869D02*
X81754308Y-44117869D01*
X82611451Y-43117869D02*
X82420975Y-43117869D01*
X82420975Y-43117869D02*
X82325737Y-43165488D01*
X82325737Y-43165488D02*
X82278118Y-43213107D01*
X82278118Y-43213107D02*
X82182880Y-43355964D01*
X82182880Y-43355964D02*
X82135261Y-43546440D01*
X82135261Y-43546440D02*
X82135261Y-43927392D01*
X82135261Y-43927392D02*
X82182880Y-44022630D01*
X82182880Y-44022630D02*
X82230499Y-44070250D01*
X82230499Y-44070250D02*
X82325737Y-44117869D01*
X82325737Y-44117869D02*
X82516213Y-44117869D01*
X82516213Y-44117869D02*
X82611451Y-44070250D01*
X82611451Y-44070250D02*
X82659070Y-44022630D01*
X82659070Y-44022630D02*
X82706689Y-43927392D01*
X82706689Y-43927392D02*
X82706689Y-43689297D01*
X82706689Y-43689297D02*
X82659070Y-43594059D01*
X82659070Y-43594059D02*
X82611451Y-43546440D01*
X82611451Y-43546440D02*
X82516213Y-43498821D01*
X82516213Y-43498821D02*
X82325737Y-43498821D01*
X82325737Y-43498821D02*
X82230499Y-43546440D01*
X82230499Y-43546440D02*
X82182880Y-43594059D01*
X82182880Y-43594059D02*
X82135261Y-43689297D01*
D13*
D14*
X84721421Y-94181161D02*
X84578564Y-94109733D01*
X84578564Y-94109733D02*
X84507135Y-94038304D01*
X84507135Y-94038304D02*
X84435707Y-93895447D01*
X84435707Y-93895447D02*
X84435707Y-93824018D01*
X84435707Y-93824018D02*
X84507135Y-93681161D01*
X84507135Y-93681161D02*
X84578564Y-93609733D01*
X84578564Y-93609733D02*
X84721421Y-93538304D01*
X84721421Y-93538304D02*
X85007135Y-93538304D01*
X85007135Y-93538304D02*
X85149993Y-93609733D01*
X85149993Y-93609733D02*
X85221421Y-93681161D01*
X85221421Y-93681161D02*
X85292850Y-93824018D01*
X85292850Y-93824018D02*
X85292850Y-93895447D01*
X85292850Y-93895447D02*
X85221421Y-94038304D01*
X85221421Y-94038304D02*
X85149993Y-94109733D01*
X85149993Y-94109733D02*
X85007135Y-94181161D01*
X85007135Y-94181161D02*
X84721421Y-94181161D01*
X84721421Y-94181161D02*
X84578564Y-94252590D01*
X84578564Y-94252590D02*
X84507135Y-94324018D01*
X84507135Y-94324018D02*
X84435707Y-94466876D01*
X84435707Y-94466876D02*
X84435707Y-94752590D01*
X84435707Y-94752590D02*
X84507135Y-94895447D01*
X84507135Y-94895447D02*
X84578564Y-94966876D01*
X84578564Y-94966876D02*
X84721421Y-95038304D01*
X84721421Y-95038304D02*
X85007135Y-95038304D01*
X85007135Y-95038304D02*
X85149993Y-94966876D01*
X85149993Y-94966876D02*
X85221421Y-94895447D01*
X85221421Y-94895447D02*
X85292850Y-94752590D01*
X85292850Y-94752590D02*
X85292850Y-94466876D01*
X85292850Y-94466876D02*
X85221421Y-94324018D01*
X85221421Y-94324018D02*
X85149993Y-94252590D01*
X85149993Y-94252590D02*
X85007135Y-94181161D01*
X85935706Y-94895447D02*
X86007135Y-94966876D01*
X86007135Y-94966876D02*
X85935706Y-95038304D01*
X85935706Y-95038304D02*
X85864278Y-94966876D01*
X85864278Y-94966876D02*
X85935706Y-94895447D01*
X85935706Y-94895447D02*
X85935706Y-95038304D01*
X86935707Y-93538304D02*
X87078564Y-93538304D01*
X87078564Y-93538304D02*
X87221421Y-93609733D01*
X87221421Y-93609733D02*
X87292850Y-93681161D01*
X87292850Y-93681161D02*
X87364278Y-93824018D01*
X87364278Y-93824018D02*
X87435707Y-94109733D01*
X87435707Y-94109733D02*
X87435707Y-94466876D01*
X87435707Y-94466876D02*
X87364278Y-94752590D01*
X87364278Y-94752590D02*
X87292850Y-94895447D01*
X87292850Y-94895447D02*
X87221421Y-94966876D01*
X87221421Y-94966876D02*
X87078564Y-95038304D01*
X87078564Y-95038304D02*
X86935707Y-95038304D01*
X86935707Y-95038304D02*
X86792850Y-94966876D01*
X86792850Y-94966876D02*
X86721421Y-94895447D01*
X86721421Y-94895447D02*
X86649992Y-94752590D01*
X86649992Y-94752590D02*
X86578564Y-94466876D01*
X86578564Y-94466876D02*
X86578564Y-94109733D01*
X86578564Y-94109733D02*
X86649992Y-93824018D01*
X86649992Y-93824018D02*
X86721421Y-93681161D01*
X86721421Y-93681161D02*
X86792850Y-93609733D01*
X86792850Y-93609733D02*
X86935707Y-93538304D01*
X88364278Y-93538304D02*
X88507135Y-93538304D01*
X88507135Y-93538304D02*
X88649992Y-93609733D01*
X88649992Y-93609733D02*
X88721421Y-93681161D01*
X88721421Y-93681161D02*
X88792849Y-93824018D01*
X88792849Y-93824018D02*
X88864278Y-94109733D01*
X88864278Y-94109733D02*
X88864278Y-94466876D01*
X88864278Y-94466876D02*
X88792849Y-94752590D01*
X88792849Y-94752590D02*
X88721421Y-94895447D01*
X88721421Y-94895447D02*
X88649992Y-94966876D01*
X88649992Y-94966876D02*
X88507135Y-95038304D01*
X88507135Y-95038304D02*
X88364278Y-95038304D01*
X88364278Y-95038304D02*
X88221421Y-94966876D01*
X88221421Y-94966876D02*
X88149992Y-94895447D01*
X88149992Y-94895447D02*
X88078563Y-94752590D01*
X88078563Y-94752590D02*
X88007135Y-94466876D01*
X88007135Y-94466876D02*
X88007135Y-94109733D01*
X88007135Y-94109733D02*
X88078563Y-93824018D01*
X88078563Y-93824018D02*
X88149992Y-93681161D01*
X88149992Y-93681161D02*
X88221421Y-93609733D01*
X88221421Y-93609733D02*
X88364278Y-93538304D01*
X89792849Y-93538304D02*
X89935706Y-93538304D01*
X89935706Y-93538304D02*
X90078563Y-93609733D01*
X90078563Y-93609733D02*
X90149992Y-93681161D01*
X90149992Y-93681161D02*
X90221420Y-93824018D01*
X90221420Y-93824018D02*
X90292849Y-94109733D01*
X90292849Y-94109733D02*
X90292849Y-94466876D01*
X90292849Y-94466876D02*
X90221420Y-94752590D01*
X90221420Y-94752590D02*
X90149992Y-94895447D01*
X90149992Y-94895447D02*
X90078563Y-94966876D01*
X90078563Y-94966876D02*
X89935706Y-95038304D01*
X89935706Y-95038304D02*
X89792849Y-95038304D01*
X89792849Y-95038304D02*
X89649992Y-94966876D01*
X89649992Y-94966876D02*
X89578563Y-94895447D01*
X89578563Y-94895447D02*
X89507134Y-94752590D01*
X89507134Y-94752590D02*
X89435706Y-94466876D01*
X89435706Y-94466876D02*
X89435706Y-94109733D01*
X89435706Y-94109733D02*
X89507134Y-93824018D01*
X89507134Y-93824018D02*
X89578563Y-93681161D01*
X89578563Y-93681161D02*
X89649992Y-93609733D01*
X89649992Y-93609733D02*
X89792849Y-93538304D01*
X91221420Y-93538304D02*
X91364277Y-93538304D01*
X91364277Y-93538304D02*
X91507134Y-93609733D01*
X91507134Y-93609733D02*
X91578563Y-93681161D01*
X91578563Y-93681161D02*
X91649991Y-93824018D01*
X91649991Y-93824018D02*
X91721420Y-94109733D01*
X91721420Y-94109733D02*
X91721420Y-94466876D01*
X91721420Y-94466876D02*
X91649991Y-94752590D01*
X91649991Y-94752590D02*
X91578563Y-94895447D01*
X91578563Y-94895447D02*
X91507134Y-94966876D01*
X91507134Y-94966876D02*
X91364277Y-95038304D01*
X91364277Y-95038304D02*
X91221420Y-95038304D01*
X91221420Y-95038304D02*
X91078563Y-94966876D01*
X91078563Y-94966876D02*
X91007134Y-94895447D01*
X91007134Y-94895447D02*
X90935705Y-94752590D01*
X90935705Y-94752590D02*
X90864277Y-94466876D01*
X90864277Y-94466876D02*
X90864277Y-94109733D01*
X90864277Y-94109733D02*
X90935705Y-93824018D01*
X90935705Y-93824018D02*
X91007134Y-93681161D01*
X91007134Y-93681161D02*
X91078563Y-93609733D01*
X91078563Y-93609733D02*
X91221420Y-93538304D01*
X93507133Y-95038304D02*
X93507133Y-94038304D01*
X93507133Y-94181161D02*
X93578562Y-94109733D01*
X93578562Y-94109733D02*
X93721419Y-94038304D01*
X93721419Y-94038304D02*
X93935705Y-94038304D01*
X93935705Y-94038304D02*
X94078562Y-94109733D01*
X94078562Y-94109733D02*
X94149991Y-94252590D01*
X94149991Y-94252590D02*
X94149991Y-95038304D01*
X94149991Y-94252590D02*
X94221419Y-94109733D01*
X94221419Y-94109733D02*
X94364276Y-94038304D01*
X94364276Y-94038304D02*
X94578562Y-94038304D01*
X94578562Y-94038304D02*
X94721419Y-94109733D01*
X94721419Y-94109733D02*
X94792848Y-94252590D01*
X94792848Y-94252590D02*
X94792848Y-95038304D01*
X95507133Y-95038304D02*
X95507133Y-94038304D01*
X95507133Y-94181161D02*
X95578562Y-94109733D01*
X95578562Y-94109733D02*
X95721419Y-94038304D01*
X95721419Y-94038304D02*
X95935705Y-94038304D01*
X95935705Y-94038304D02*
X96078562Y-94109733D01*
X96078562Y-94109733D02*
X96149991Y-94252590D01*
X96149991Y-94252590D02*
X96149991Y-95038304D01*
X96149991Y-94252590D02*
X96221419Y-94109733D01*
X96221419Y-94109733D02*
X96364276Y-94038304D01*
X96364276Y-94038304D02*
X96578562Y-94038304D01*
X96578562Y-94038304D02*
X96721419Y-94109733D01*
X96721419Y-94109733D02*
X96792848Y-94252590D01*
X96792848Y-94252590D02*
X96792848Y-95038304D01*
D15*
X94449992Y-79959976D02*
X94449992Y-87846396D01*
X86449992Y-79959976D02*
X86449992Y-87846396D01*
X94449992Y-87259976D02*
X86449992Y-87259976D01*
X94449992Y-87259976D02*
X93323488Y-87846397D01*
X94449992Y-87259976D02*
X93323488Y-86673555D01*
X86449992Y-87259976D02*
X87576496Y-86673555D01*
X86449992Y-87259976D02*
X87576496Y-87846397D01*
%TD*%
D16*
%TO.P,D3,1,A*%
%TO.N,Net-(D1-K)*%
X94919992Y-68089976D03*
%TO.P,D3,3,K*%
%TO.N,GND*%
X93969992Y-70289975D03*
%TD*%
D17*
%TO.P,C1,1*%
%TO.N,/V12v*%
X59899992Y-48059976D03*
%TO.P,C1,2*%
%TO.N,GND*%
X62599992Y-48059976D03*
%TD*%
D18*
%TO.P,R5,1*%
%TO.N,Net-(R5-Pad1)*%
X87839992Y-55869976D03*
%TO.P,R5,2*%
%TO.N,/V5v_bias*%
X87839992Y-54219976D03*
%TD*%
D19*
%TO.P,C14,1*%
%TO.N,GND*%
X90007500Y-51562500D03*
%TO.P,C14,2*%
%TO.N,/V5v_bias*%
X88457500Y-51562500D03*
%TD*%
D20*
%TO.P,C5,1*%
%TO.N,GND*%
X58230000Y-61560000D03*
%TO.P,C5,2*%
%TO.N,/V5v*%
X59780000Y-61560000D03*
%TD*%
D21*
%TO.P,D1,1,K*%
%TO.N,Net-(D1-K)*%
X86370000Y-67950000D03*
%TO.P,D1,2,A*%
%TO.N,GND*%
X86370000Y-66300000D03*
%TD*%
D22*
%TO.P,R3,1*%
%TO.N,Net-(BFR35AP1-B)*%
X73374992Y-64509976D03*
%TO.P,R3,2*%
%TO.N,Net-(Q1-C)*%
X71724992Y-64509976D03*
%TD*%
D20*
%TO.P,C9,1*%
%TO.N,GND*%
X77549992Y-60947476D03*
%TO.P,C9,2*%
%TO.N,/V12v*%
X79099992Y-60947476D03*
%TD*%
D23*
%TO.P,C11,1*%
%TO.N,/V5v_bias*%
X81059992Y-49677476D03*
%TO.P,C11,2*%
%TO.N,GND*%
X81059992Y-52377476D03*
%TD*%
D24*
%TO.P,R2,1,1*%
%TO.N,Net-(IC1-Y)*%
X64399992Y-65259976D03*
D25*
%TO.P,R2,2,2*%
%TO.N,Net-(Q1-C)*%
X65549992Y-59759976D03*
D24*
%TO.P,R2,3,3*%
X66699992Y-65259976D03*
%TD*%
D26*
%TO.P,C12,1*%
%TO.N,GND*%
X83859992Y-51227476D03*
%TO.P,C12,2*%
%TO.N,/V5v_bias*%
X83859992Y-49677476D03*
%TD*%
D21*
%TO.P,D2,1,K*%
%TO.N,Net-(D1-K)*%
X86374992Y-68275000D03*
%TO.P,D2,2,A*%
%TO.N,GND*%
X86374992Y-69925000D03*
%TD*%
D20*
%TO.P,C7,1*%
%TO.N,Net-(IC1-Y)*%
X64774992Y-67509976D03*
%TO.P,C7,2*%
%TO.N,Net-(Q1-C)*%
X66324992Y-67509976D03*
%TD*%
D23*
%TO.P,C8,1*%
%TO.N,/V12v*%
X65549992Y-52159976D03*
%TO.P,C8,2*%
%TO.N,GND*%
X65549992Y-54859976D03*
%TD*%
D27*
%TO.P,IC2,1,GND*%
%TO.N,GND*%
X59849992Y-56609976D03*
D28*
%TO.P,IC2,2,VO*%
%TO.N,/V5v*%
X53549992Y-54309976D03*
D27*
%TO.P,IC2,3,VI*%
%TO.N,/V12v*%
X59849992Y-52009976D03*
%TD*%
D20*
%TO.P,C10,1*%
%TO.N,GND*%
X77549992Y-62947476D03*
%TO.P,C10,2*%
%TO.N,/V12v*%
X79099992Y-62947476D03*
%TD*%
D18*
%TO.P,R6,1*%
%TO.N,Net-(R6-Pad1)*%
X84049992Y-60372476D03*
%TO.P,R6,2*%
%TO.N,Net-(R5-Pad1)*%
X84049992Y-58722476D03*
%TD*%
D29*
%TO.P,IC1,2,A*%
%TO.N,/V3v_in*%
X57969992Y-66849976D03*
%TO.P,IC1,3,GND*%
%TO.N,GND*%
X57969992Y-67499976D03*
%TO.P,IC1,4,Y*%
%TO.N,Net-(IC1-Y)*%
X60069992Y-67499976D03*
%TO.P,IC1,5,VCC*%
%TO.N,/V5v*%
X60069992Y-66199976D03*
%TD*%
D19*
%TO.P,C15,1*%
%TO.N,GND*%
X90020000Y-49340000D03*
%TO.P,C15,2*%
%TO.N,/V5v_bias*%
X88470000Y-49340000D03*
%TD*%
%TO.P,C2,1*%
%TO.N,GND*%
X62114992Y-43559976D03*
%TO.P,C2,2*%
%TO.N,/V12v*%
X60564992Y-43559976D03*
%TD*%
D24*
%TO.P,R1,1,1*%
%TO.N,Net-(IC1-Y)*%
X64399992Y-69759976D03*
D25*
%TO.P,R1,2,2*%
%TO.N,Net-(Q1-B)*%
X65549992Y-75259976D03*
D24*
%TO.P,R1,3,3*%
X66699992Y-69759976D03*
%TD*%
D20*
%TO.P,C16,1*%
%TO.N,Net-(D1-K)*%
X95954992Y-68100000D03*
%TO.P,C16,2*%
%TO.N,/Vout*%
X97504992Y-68100000D03*
%TD*%
D30*
%TO.P,R4,1*%
%TO.N,/V12v*%
X79149992Y-66397476D03*
%TO.P,R4,2*%
%TO.N,/Vout_Driver*%
X79149992Y-68047476D03*
%TD*%
D31*
%TO.P,J2,1,1*%
%TO.N,/V3v_in*%
X48722492Y-66839976D03*
D32*
%TO.P,J2,2,2*%
%TO.N,GND*%
X48722492Y-69609976D03*
%TO.P,J2,3,3*%
X48722492Y-64069976D03*
%TD*%
D31*
%TO.P,J3,1,1*%
%TO.N,/Vout*%
X101249992Y-68100000D03*
D32*
%TO.P,J3,2,2*%
%TO.N,GND*%
X101249992Y-65330000D03*
%TO.P,J3,3,3*%
X101249992Y-70870000D03*
%TD*%
D33*
%TO.P,IC3,1,GND*%
%TO.N,GND*%
X70859992Y-47377476D03*
D34*
%TO.P,IC3,2,VO*%
%TO.N,/V5v_bias*%
X77159992Y-49677476D03*
D33*
%TO.P,IC3,3,VI*%
%TO.N,/V12v*%
X70859992Y-51977476D03*
%TD*%
D35*
%TO.P,L1,1,1*%
%TO.N,/I_bias*%
X84200000Y-65975000D03*
%TO.P,L1,2,2*%
%TO.N,Net-(D1-K)*%
X84200000Y-68100000D03*
%TD*%
D19*
%TO.P,C3,1*%
%TO.N,/V5v*%
X59800000Y-63400000D03*
%TO.P,C3,2*%
%TO.N,GND*%
X58250000Y-63400000D03*
%TD*%
D36*
%TO.P,J1,1*%
%TO.N,/V12v*%
X55859992Y-42379976D03*
D37*
%TO.P,J1,2*%
%TO.N,GND*%
X49859992Y-42379976D03*
D38*
%TO.P,J1,3*%
X52859992Y-47079976D03*
%TD*%
D26*
%TO.P,C6,1*%
%TO.N,GND*%
X69549992Y-73284976D03*
%TO.P,C6,2*%
%TO.N,Net-(Q1-B)*%
X69549992Y-71734976D03*
%TD*%
D39*
%TO.P,C4,1*%
%TO.N,/V5v*%
X53249992Y-59509976D03*
%TO.P,C4,2*%
%TO.N,GND*%
X50549992Y-59509976D03*
%TD*%
D24*
%TO.P,R8,1,1*%
%TO.N,Net-(R5-Pad1)*%
X87824992Y-58397476D03*
D40*
%TO.P,R8,2,2*%
%TO.N,Net-(R6-Pad1)*%
X93324992Y-59547476D03*
D24*
%TO.P,R8,3,3*%
X87824992Y-60697476D03*
%TD*%
D18*
%TO.P,R7,1*%
%TO.N,/I_bias*%
X84049992Y-63772476D03*
%TO.P,R7,2*%
%TO.N,Net-(R6-Pad1)*%
X84049992Y-62122476D03*
%TD*%
D41*
%TO.P,Q1,1,B*%
%TO.N,Net-(Q1-B)*%
X70399992Y-69019976D03*
D42*
%TO.P,Q1,2,E_1*%
%TO.N,GND*%
X71549992Y-69019976D03*
D41*
%TO.P,Q1,3,C*%
%TO.N,Net-(Q1-C)*%
X71699992Y-66999976D03*
%TO.P,Q1,4,E_2*%
%TO.N,GND*%
X70399992Y-66999976D03*
%TD*%
D43*
%TO.P,BFR35AP1,1,B*%
%TO.N,Net-(BFR35AP1-B)*%
X75274992Y-67119976D03*
%TO.P,BFR35AP1,2,C*%
%TO.N,/Vout_Driver*%
X77149992Y-68069976D03*
%TO.P,BFR35AP1,3,E*%
%TO.N,GND*%
X75274992Y-69019976D03*
%TD*%
D20*
%TO.P,C13,1*%
%TO.N,/Vout_Driver*%
X81625000Y-68100000D03*
%TO.P,C13,2*%
%TO.N,Net-(D1-K)*%
X83175000Y-68100000D03*
%TD*%
D44*
%TO.N,GND*%
X51230339Y-65139976D03*
X58509992Y-68229976D03*
X93049992Y-70509976D03*
X71549992Y-68109976D03*
X93949992Y-71259976D03*
X57060000Y-63700000D03*
X82439992Y-51979976D03*
X101700000Y-69800000D03*
X99840000Y-69790000D03*
X61549992Y-56899976D03*
X98810000Y-64200000D03*
X83949992Y-53559976D03*
X49279992Y-59119976D03*
X100820000Y-71910000D03*
X85590000Y-65500000D03*
X47519992Y-70719976D03*
X51249992Y-69649976D03*
X61299992Y-57759976D03*
X72339992Y-47029976D03*
X58209992Y-57009976D03*
X102530000Y-69790000D03*
X51280339Y-64069976D03*
X76399992Y-61459976D03*
X87290000Y-65500000D03*
X99800000Y-66340000D03*
X70749992Y-46109976D03*
X72269992Y-46089976D03*
X49299992Y-60009976D03*
X49299992Y-60759976D03*
X102490000Y-66340000D03*
X57040000Y-62060000D03*
X91297500Y-50462500D03*
X74419992Y-69679976D03*
X65549992Y-55959976D03*
X57709992Y-68229976D03*
X101660000Y-64210000D03*
X59799992Y-57789976D03*
X102490000Y-64200000D03*
X48380339Y-65129976D03*
X73579992Y-69689976D03*
X100780000Y-66320000D03*
X47550339Y-62999976D03*
X47519992Y-68579976D03*
X57060000Y-62950000D03*
X84539992Y-52559976D03*
X51199992Y-68579976D03*
X56809992Y-68229976D03*
X94899992Y-70509976D03*
X98850000Y-71930000D03*
X51199992Y-70719976D03*
X91307500Y-52192500D03*
X69349992Y-46999976D03*
X71549992Y-70009976D03*
X63014992Y-43559976D03*
X63014992Y-44459976D03*
X86400000Y-70700000D03*
X48349992Y-70709976D03*
X76399992Y-63419976D03*
X82549992Y-53259976D03*
X101700000Y-71940000D03*
X76399992Y-60609976D03*
X90527500Y-50462500D03*
X80189992Y-53729976D03*
X64799992Y-55909976D03*
X48380339Y-62989976D03*
X50240339Y-65139976D03*
X98760000Y-65270000D03*
X58299992Y-57759976D03*
X86390000Y-65500000D03*
X69359992Y-46039976D03*
X69449992Y-68009976D03*
X63014992Y-42759976D03*
X49229992Y-68599976D03*
X81399992Y-53739976D03*
X100780000Y-64180000D03*
X57060000Y-61180000D03*
X72649992Y-69109976D03*
X99840000Y-71930000D03*
X50209992Y-70719976D03*
X66349992Y-55909976D03*
X87200000Y-70700000D03*
X76399992Y-62489976D03*
X51230339Y-62999976D03*
X99800000Y-64200000D03*
X98810000Y-66340000D03*
X49229992Y-70739976D03*
X48349992Y-68569976D03*
X85500000Y-70700000D03*
X49260339Y-65159976D03*
X102530000Y-71930000D03*
X91307500Y-51342500D03*
X49299992Y-58239976D03*
X91237500Y-48722500D03*
X70349992Y-74009976D03*
X63599992Y-48969976D03*
X72549992Y-68109976D03*
X68649992Y-74009976D03*
X50209992Y-68579976D03*
X91217500Y-49542500D03*
X73919992Y-69039976D03*
X69549992Y-74009976D03*
X47550339Y-65139976D03*
X94799992Y-71259976D03*
X83459992Y-52579976D03*
X100820000Y-69770000D03*
X50240339Y-62999976D03*
X63599992Y-48069976D03*
X98850000Y-69790000D03*
X93049992Y-71259976D03*
X75519992Y-69679976D03*
X98800000Y-70860000D03*
X49260339Y-63019976D03*
X70349992Y-68009976D03*
X101660000Y-66350000D03*
X69549992Y-67009976D03*
X63599992Y-47269976D03*
%TD*%
%TO.N,Net-(D1-K)*%
D45*
X83177524Y-68097476D02*
X95917492Y-68097476D01*
X83175000Y-68100000D02*
X83177524Y-68097476D01*
%TO.N,GND*%
D10*
X62417492Y-48577476D02*
X62349992Y-48509976D01*
D46*
X90230000Y-51640000D02*
X90240000Y-51650000D01*
D10*
X62499992Y-48659976D02*
X62349992Y-48509976D01*
%TO.N,/V12v*%
X59849992Y-48109976D02*
X59899992Y-48059976D01*
X59749992Y-48209976D02*
X59899992Y-48059976D01*
X79149992Y-62997476D02*
X79099992Y-62947476D01*
X60414992Y-43409976D02*
X60564992Y-43559976D01*
%TO.N,Net-(R5-Pad1)*%
D47*
X84974992Y-58722476D02*
X84049992Y-58722476D01*
D10*
X87839992Y-58382476D02*
X87824992Y-58397476D01*
D47*
X87839992Y-55869976D02*
X87839992Y-58382476D01*
X85299992Y-58397476D02*
X84974992Y-58722476D01*
X87824992Y-58397476D02*
X85299992Y-58397476D01*
%TO.N,/V5v_bias*%
D10*
X88445000Y-49315000D02*
X88470000Y-49340000D01*
X88470000Y-51465000D02*
X88395000Y-51540000D01*
%TO.N,Net-(BFR35AP1-B)*%
D47*
X75274992Y-65314976D02*
X75274992Y-67119976D01*
X73374992Y-64509976D02*
X74469992Y-64509976D01*
X74469992Y-64509976D02*
X75274992Y-65314976D01*
%TO.N,Net-(Q1-C)*%
X65549992Y-59759976D02*
X65549992Y-62119976D01*
X66324992Y-66714976D02*
X66699992Y-66339976D01*
X66324992Y-67509976D02*
X66324992Y-66714976D01*
X71540016Y-64500000D02*
X69459968Y-64500000D01*
D10*
X71549992Y-64509976D02*
X71540016Y-64500000D01*
D47*
X66699992Y-66339976D02*
X66699992Y-65259976D01*
X68699992Y-65259976D02*
X66699992Y-65259976D01*
D10*
X71724992Y-64509976D02*
X71549992Y-64509976D01*
D47*
X65549992Y-62119976D02*
X66699992Y-63269976D01*
X66699992Y-63269976D02*
X66699992Y-65259976D01*
X69459968Y-64500000D02*
X68699992Y-65259976D01*
D10*
X71699992Y-64534976D02*
X71724992Y-64509976D01*
D47*
X71699992Y-66999976D02*
X71699992Y-64534976D01*
%TO.N,Net-(IC1-Y)*%
X64774992Y-68354976D02*
X64399992Y-68729976D01*
X64399992Y-65259976D02*
X64399992Y-66309976D01*
X64399992Y-66309976D02*
X64729992Y-66639976D01*
X64774992Y-67509976D02*
X64774992Y-68354976D01*
X64729992Y-66639976D02*
X64729992Y-67464976D01*
X64399992Y-68729976D02*
X64399992Y-69759976D01*
D48*
X64774992Y-67509976D02*
X59959992Y-67509976D01*
D10*
X59959992Y-67509976D02*
X59869992Y-67419976D01*
X64729992Y-67464976D02*
X64774992Y-67509976D01*
%TO.N,Net-(R6-Pad1)*%
D47*
X84974992Y-60372476D02*
X84049992Y-60372476D01*
X85299992Y-60697476D02*
X84974992Y-60372476D01*
X87824992Y-60697476D02*
X85299992Y-60697476D01*
X84049992Y-60372476D02*
X84049992Y-62122476D01*
X90449992Y-59547476D02*
X89299992Y-60697476D01*
X93324992Y-59547476D02*
X90449992Y-59547476D01*
X89299992Y-60697476D02*
X87824992Y-60697476D01*
%TO.N,/V3v_in*%
D10*
X47459992Y-66849976D02*
X47449992Y-66839976D01*
D48*
X57969992Y-66849976D02*
X48732492Y-66849976D01*
D10*
X48732492Y-66849976D02*
X48722492Y-66839976D01*
%TO.N,Net-(Q1-B)*%
X65549992Y-73069976D02*
X65549992Y-75259976D01*
X69549992Y-71734976D02*
X66884992Y-71734976D01*
D47*
X69549992Y-71734976D02*
X69549992Y-69859976D01*
X66699992Y-69759976D02*
X69649992Y-69759976D01*
D10*
X70369992Y-69019976D02*
X70399992Y-69019976D01*
D47*
X69649992Y-69739976D02*
X70369992Y-69019976D01*
D10*
X66884992Y-71734976D02*
X65549992Y-73069976D01*
X69649992Y-69759976D02*
X69649992Y-69739976D01*
X69549992Y-69859976D02*
X69649992Y-69759976D01*
%TO.N,/Vout*%
X101249992Y-68059976D02*
X101309992Y-67999976D01*
D49*
X97545016Y-68100000D02*
X101209968Y-68100000D01*
X97504992Y-68059976D02*
X97545016Y-68100000D01*
%TO.N,/Vout_Driver*%
D10*
X81625000Y-68100000D02*
X81572476Y-68047476D01*
X79127492Y-68069976D02*
X79149992Y-68047476D01*
D47*
X81572476Y-68047476D02*
X79149992Y-68047476D01*
X77149992Y-68069976D02*
X79127492Y-68069976D01*
%TO.N,/I_bias*%
X84049992Y-65947476D02*
X84049992Y-63772476D01*
%TD*%
%TA.AperFunction,Conductor*%
%TO.N,GND*%
G36*
X77543031Y-60139661D02*
G01*
X77588786Y-60192465D01*
X77599992Y-60243976D01*
X77599992Y-63755976D01*
X77580307Y-63823015D01*
X77527503Y-63868770D01*
X77475992Y-63879976D01*
X76063992Y-63879976D01*
X75996953Y-63860291D01*
X75951198Y-63807487D01*
X75939992Y-63755976D01*
X75939992Y-60243976D01*
X75959677Y-60176937D01*
X76012481Y-60131182D01*
X76063992Y-60119976D01*
X77475992Y-60119976D01*
X77543031Y-60139661D01*
G37*
%TD.AperFunction*%
%TD*%
%TA.AperFunction,Conductor*%
%TO.N,GND*%
G36*
X95393031Y-69879661D02*
G01*
X95438786Y-69932465D01*
X95449992Y-69983976D01*
X95449992Y-71635976D01*
X95430307Y-71703015D01*
X95377503Y-71748770D01*
X95325992Y-71759976D01*
X92673992Y-71759976D01*
X92606953Y-71740291D01*
X92561198Y-71687487D01*
X92549992Y-71635976D01*
X92549992Y-69983976D01*
X92569677Y-69916937D01*
X92622481Y-69871182D01*
X92673992Y-69859976D01*
X95325992Y-69859976D01*
X95393031Y-69879661D01*
G37*
%TD.AperFunction*%
%TD*%
%TA.AperFunction,Conductor*%
%TO.N,/V5v*%
G36*
X55693098Y-51364999D02*
G01*
X55708096Y-51369403D01*
X55723086Y-51379033D01*
X55740167Y-51384043D01*
X55766847Y-51407148D01*
X55768034Y-51408517D01*
X55795510Y-51463378D01*
X55797155Y-51470936D01*
X55799992Y-51497307D01*
X55799992Y-59209976D01*
X61408163Y-59209976D01*
X61443098Y-59214999D01*
X61458096Y-59219403D01*
X61516847Y-59257148D01*
X61516871Y-59257176D01*
X61516874Y-59257178D01*
X61516875Y-59257180D01*
X61518034Y-59258517D01*
X61545510Y-59313378D01*
X61547155Y-59320936D01*
X61549992Y-59347307D01*
X61549992Y-66268170D01*
X61549991Y-66268176D01*
X61549992Y-66268179D01*
X61544967Y-66303114D01*
X61540562Y-66318112D01*
X61502819Y-66376855D01*
X61502784Y-66376885D01*
X61502783Y-66376887D01*
X61502781Y-66376887D01*
X61501450Y-66378042D01*
X61446589Y-66405518D01*
X61439031Y-66407163D01*
X61412660Y-66410000D01*
X61074207Y-66410000D01*
X61039273Y-66404977D01*
X61022240Y-66399976D01*
X61022239Y-66399976D01*
X59126325Y-66399976D01*
X59126323Y-66399976D01*
X59126321Y-66399977D01*
X59109289Y-66404978D01*
X59074355Y-66410000D01*
X58961830Y-66410000D01*
X58926889Y-66404975D01*
X58911890Y-66400570D01*
X58896885Y-66390930D01*
X58894791Y-66390315D01*
X58893362Y-66388666D01*
X58853144Y-66362827D01*
X58851957Y-66361458D01*
X58824477Y-66306583D01*
X58822832Y-66299021D01*
X58820000Y-66272668D01*
X58820000Y-65959976D01*
X52541822Y-65959976D01*
X52541817Y-65959975D01*
X52541815Y-65959976D01*
X52506881Y-65954951D01*
X52497248Y-65952122D01*
X59144992Y-65952122D01*
X59144992Y-65952131D01*
X59144992Y-65999976D01*
X59869992Y-65999976D01*
X60269992Y-65999976D01*
X60994992Y-65999976D01*
X60994992Y-65952148D01*
X60994991Y-65952131D01*
X60994990Y-65952122D01*
X60994990Y-65952114D01*
X60988590Y-65892604D01*
X60988588Y-65892597D01*
X60986682Y-65887487D01*
X60938346Y-65757889D01*
X60938342Y-65757882D01*
X60852182Y-65642788D01*
X60852179Y-65642785D01*
X60852177Y-65642783D01*
X60794309Y-65599463D01*
X60737085Y-65556625D01*
X60737078Y-65556621D01*
X60669724Y-65531500D01*
X60602369Y-65506378D01*
X60602362Y-65506376D01*
X60542844Y-65499976D01*
X60542836Y-65499976D01*
X60269992Y-65499976D01*
X60269992Y-65999976D01*
X59869992Y-65999976D01*
X59869992Y-65499976D01*
X59597138Y-65499976D01*
X59537620Y-65506376D01*
X59537613Y-65506378D01*
X59402902Y-65556622D01*
X59402899Y-65556624D01*
X59287805Y-65642783D01*
X59287799Y-65642789D01*
X59201640Y-65757883D01*
X59201638Y-65757886D01*
X59151394Y-65892597D01*
X59151392Y-65892604D01*
X59144992Y-65952122D01*
X52497248Y-65952122D01*
X52491882Y-65950546D01*
X52433136Y-65912803D01*
X52433107Y-65912769D01*
X52433106Y-65912769D01*
X52433105Y-65912767D01*
X52431949Y-65911434D01*
X52404469Y-65856559D01*
X52402824Y-65848997D01*
X52399992Y-65822644D01*
X52399992Y-61759976D01*
X51941822Y-61759976D01*
X51941817Y-61759975D01*
X51941815Y-61759976D01*
X51906881Y-61754951D01*
X51891882Y-61750546D01*
X51833136Y-61712803D01*
X51833107Y-61712769D01*
X51833106Y-61712769D01*
X51833105Y-61712767D01*
X51831949Y-61711434D01*
X51804469Y-61656559D01*
X51802824Y-61648997D01*
X51799992Y-61622644D01*
X51799992Y-60774000D01*
X56094500Y-60774000D01*
X56094500Y-64066000D01*
X56094501Y-64066009D01*
X56106052Y-64173450D01*
X56106054Y-64173462D01*
X56117260Y-64224972D01*
X56151383Y-64327497D01*
X56151386Y-64327503D01*
X56229171Y-64448537D01*
X56229179Y-64448548D01*
X56274923Y-64501340D01*
X56274926Y-64501343D01*
X56274930Y-64501347D01*
X56383664Y-64595567D01*
X56383667Y-64595568D01*
X56383668Y-64595569D01*
X56477925Y-64638616D01*
X56514541Y-64655338D01*
X56581580Y-64675023D01*
X56581584Y-64675024D01*
X56724000Y-64695500D01*
X58185990Y-64695500D01*
X58186000Y-64695500D01*
X58293456Y-64683947D01*
X58344967Y-64672741D01*
X58379197Y-64661347D01*
X58447497Y-64638616D01*
X58447501Y-64638613D01*
X58447504Y-64638613D01*
X58568543Y-64560825D01*
X58621347Y-64515070D01*
X58715567Y-64406336D01*
X58733179Y-64367770D01*
X58745111Y-64353999D01*
X58752790Y-64337471D01*
X58777582Y-64316524D01*
X58778932Y-64314967D01*
X58779613Y-64314532D01*
X58783504Y-64312066D01*
X58783697Y-64312003D01*
X58928044Y-64222968D01*
X58934780Y-64216231D01*
X58946387Y-64208878D01*
X58948780Y-64208191D01*
X58953308Y-64204801D01*
X58967033Y-64197306D01*
X59035299Y-64182450D01*
X59037112Y-64182579D01*
X59095307Y-64201947D01*
X59099745Y-64204799D01*
X59101818Y-64206131D01*
X59118821Y-64219833D01*
X59118945Y-64219691D01*
X59122262Y-64222567D01*
X59122267Y-64222572D01*
X59122271Y-64222575D01*
X59122279Y-64222580D01*
X59122286Y-64222585D01*
X59193509Y-64266516D01*
X59266507Y-64311542D01*
X59266518Y-64311547D01*
X59427393Y-64364855D01*
X59526683Y-64374999D01*
X60050000Y-64374999D01*
X60073296Y-64374999D01*
X60073308Y-64374999D01*
X60073322Y-64374998D01*
X60172607Y-64364855D01*
X60333481Y-64311547D01*
X60333492Y-64311542D01*
X60477728Y-64222575D01*
X60477732Y-64222572D01*
X60597572Y-64102732D01*
X60597575Y-64102728D01*
X60686542Y-63958492D01*
X60686547Y-63958481D01*
X60739855Y-63797606D01*
X60749999Y-63698322D01*
X60750000Y-63698309D01*
X60750000Y-63650000D01*
X60050000Y-63650000D01*
X60050000Y-64374999D01*
X59526683Y-64374999D01*
X59550000Y-64374998D01*
X59550000Y-62651433D01*
X59545166Y-62642581D01*
X59530000Y-62583157D01*
X59530000Y-62308566D01*
X60030000Y-62308566D01*
X60034833Y-62317418D01*
X60050000Y-62376843D01*
X60050000Y-63150000D01*
X60749999Y-63150000D01*
X60749999Y-63101692D01*
X60749998Y-63101677D01*
X60739855Y-63002392D01*
X60686547Y-62841518D01*
X60686542Y-62841507D01*
X60641516Y-62768509D01*
X60597585Y-62697286D01*
X60597571Y-62697266D01*
X60542888Y-62642583D01*
X60482601Y-62582296D01*
X60478102Y-62577551D01*
X60457110Y-62554209D01*
X60426917Y-62491200D01*
X60428976Y-62474726D01*
X60435581Y-62421875D01*
X60439378Y-62413138D01*
X60465417Y-62374885D01*
X60577576Y-62262727D01*
X60666542Y-62118492D01*
X60666547Y-62118481D01*
X60719855Y-61957606D01*
X60729999Y-61858322D01*
X60730000Y-61858309D01*
X60730000Y-61810000D01*
X60030000Y-61810000D01*
X60030000Y-62308566D01*
X59530000Y-62308566D01*
X59530000Y-61310000D01*
X60030000Y-61310000D01*
X60729999Y-61310000D01*
X60729999Y-61261692D01*
X60729998Y-61261677D01*
X60719855Y-61162392D01*
X60666547Y-61001518D01*
X60666542Y-61001507D01*
X60621516Y-60928509D01*
X60577585Y-60857286D01*
X60577580Y-60857279D01*
X60577575Y-60857271D01*
X60577572Y-60857267D01*
X60577569Y-60857264D01*
X60577567Y-60857261D01*
X60457737Y-60737431D01*
X60457734Y-60737429D01*
X60457733Y-60737428D01*
X60457732Y-60737427D01*
X60457728Y-60737424D01*
X60457722Y-60737420D01*
X60457712Y-60737413D01*
X60315212Y-60649518D01*
X60313492Y-60648457D01*
X60313490Y-60648456D01*
X60313476Y-60648449D01*
X60152604Y-60595143D01*
X60053327Y-60585000D01*
X60053322Y-60585000D01*
X60030000Y-60585000D01*
X60030000Y-61310000D01*
X59530000Y-61310000D01*
X59530000Y-60584999D01*
X59506705Y-60584999D01*
X59506686Y-60585000D01*
X59506685Y-60585000D01*
X59506661Y-60585002D01*
X59407394Y-60595143D01*
X59407393Y-60595143D01*
X59246522Y-60648449D01*
X59246508Y-60648456D01*
X59246505Y-60648458D01*
X59102280Y-60737417D01*
X59102270Y-60737424D01*
X59097527Y-60741313D01*
X59096927Y-60740582D01*
X59077382Y-60755206D01*
X59063667Y-60762695D01*
X58995394Y-60777547D01*
X58995347Y-60777544D01*
X58993539Y-60777414D01*
X58935398Y-60758052D01*
X58930969Y-60755206D01*
X58928891Y-60753870D01*
X58911451Y-60739814D01*
X58911366Y-60739913D01*
X58908646Y-60737554D01*
X58908233Y-60737221D01*
X58908044Y-60737032D01*
X58908040Y-60737029D01*
X58850385Y-60701466D01*
X58803663Y-60649518D01*
X58794320Y-60622292D01*
X58792741Y-60615033D01*
X58782746Y-60585002D01*
X58758616Y-60512502D01*
X58758613Y-60512496D01*
X58688450Y-60403322D01*
X58680825Y-60391457D01*
X58680820Y-60391451D01*
X58635076Y-60338659D01*
X58635072Y-60338656D01*
X58635070Y-60338653D01*
X58526336Y-60244433D01*
X58526333Y-60244431D01*
X58526331Y-60244430D01*
X58395465Y-60184664D01*
X58395460Y-60184662D01*
X58395459Y-60184662D01*
X58328420Y-60164977D01*
X58328422Y-60164977D01*
X58328417Y-60164976D01*
X58266347Y-60156052D01*
X58186000Y-60144500D01*
X58185998Y-60144500D01*
X56724010Y-60144500D01*
X56724000Y-60144500D01*
X56723991Y-60144500D01*
X56723990Y-60144501D01*
X56616549Y-60156052D01*
X56616537Y-60156054D01*
X56565027Y-60167260D01*
X56462502Y-60201383D01*
X56462496Y-60201386D01*
X56341462Y-60279171D01*
X56341451Y-60279179D01*
X56288659Y-60324923D01*
X56194433Y-60433664D01*
X56194430Y-60433668D01*
X56134664Y-60564534D01*
X56114976Y-60631582D01*
X56101325Y-60726528D01*
X56094500Y-60774000D01*
X51799992Y-60774000D01*
X51799992Y-59984971D01*
X52049993Y-59984971D01*
X52060485Y-60087670D01*
X52060485Y-60087671D01*
X52060486Y-60087673D01*
X52115633Y-60254095D01*
X52115635Y-60254100D01*
X52207676Y-60403321D01*
X52331646Y-60527291D01*
X52480867Y-60619332D01*
X52480872Y-60619334D01*
X52647291Y-60674480D01*
X52647292Y-60674480D01*
X52647294Y-60674481D01*
X52647301Y-60674482D01*
X52750011Y-60684975D01*
X52999991Y-60684975D01*
X53499992Y-60684975D01*
X53749952Y-60684975D01*
X53749964Y-60684975D01*
X53749978Y-60684974D01*
X53852689Y-60674481D01*
X54019111Y-60619334D01*
X54019116Y-60619332D01*
X54168337Y-60527291D01*
X54292307Y-60403321D01*
X54384348Y-60254100D01*
X54384350Y-60254095D01*
X54439497Y-60087673D01*
X54439498Y-60087666D01*
X54449991Y-59984962D01*
X54449992Y-59984949D01*
X54449992Y-59759976D01*
X53499992Y-59759976D01*
X53499992Y-60684975D01*
X52999991Y-60684975D01*
X52999992Y-60684974D01*
X52999992Y-59759976D01*
X52049993Y-59759976D01*
X52049993Y-59984971D01*
X51799992Y-59984971D01*
X51799992Y-59034983D01*
X52049992Y-59034983D01*
X52049992Y-59034986D01*
X52049992Y-59034989D01*
X52049992Y-59259976D01*
X52999992Y-59259976D01*
X53499992Y-59259976D01*
X54449991Y-59259976D01*
X54449991Y-59035004D01*
X54449990Y-59034989D01*
X54439497Y-58932278D01*
X54384350Y-58765856D01*
X54384348Y-58765851D01*
X54292307Y-58616630D01*
X54168337Y-58492660D01*
X54019116Y-58400619D01*
X54019111Y-58400617D01*
X54019102Y-58400614D01*
X53852691Y-58345470D01*
X53852686Y-58345469D01*
X53749983Y-58334976D01*
X53749978Y-58334976D01*
X53499992Y-58334976D01*
X53499992Y-59259976D01*
X52999992Y-59259976D01*
X52999992Y-58334976D01*
X52750029Y-58334976D01*
X52750021Y-58334976D01*
X52750011Y-58334976D01*
X52749998Y-58334977D01*
X52647296Y-58345469D01*
X52647294Y-58345470D01*
X52480879Y-58400614D01*
X52480871Y-58400617D01*
X52480869Y-58400618D01*
X52480867Y-58400619D01*
X52381386Y-58461979D01*
X52331644Y-58492661D01*
X52207677Y-58616628D01*
X52115633Y-58765855D01*
X52115630Y-58765864D01*
X52060486Y-58932275D01*
X52060485Y-58932280D01*
X52049992Y-59034983D01*
X51799992Y-59034983D01*
X51799992Y-55767976D01*
X52049992Y-55767976D01*
X52053528Y-55807751D01*
X52060600Y-55887305D01*
X52060723Y-55887893D01*
X52061335Y-55889870D01*
X52064242Y-55900031D01*
X52116549Y-56082837D01*
X52210713Y-56263105D01*
X52339238Y-56420729D01*
X52496862Y-56549254D01*
X52677130Y-56643418D01*
X52872663Y-56699366D01*
X52872666Y-56699367D01*
X52988739Y-56709685D01*
X52989911Y-56709813D01*
X52990130Y-56709904D01*
X52990703Y-56709976D01*
X52991994Y-56709976D01*
X53299992Y-56709976D01*
X53799992Y-56709976D01*
X54107990Y-56709976D01*
X54111217Y-56709976D01*
X54114386Y-56709431D01*
X54115596Y-56709299D01*
X54227317Y-56699367D01*
X54227320Y-56699366D01*
X54422853Y-56643418D01*
X54603121Y-56549254D01*
X54760745Y-56420729D01*
X54889270Y-56263105D01*
X54983434Y-56082837D01*
X55039382Y-55887304D01*
X55039383Y-55887301D01*
X55049315Y-55775580D01*
X55049447Y-55774370D01*
X55049700Y-55773761D01*
X55049992Y-55771956D01*
X55049992Y-54559976D01*
X53799992Y-54559976D01*
X53799992Y-56709976D01*
X53299992Y-56709976D01*
X53299992Y-54559976D01*
X52049992Y-54559976D01*
X52049992Y-55767976D01*
X51799992Y-55767976D01*
X51799992Y-52851975D01*
X52049992Y-52851975D01*
X52049992Y-54059976D01*
X53299992Y-54059976D01*
X53799992Y-54059976D01*
X55049992Y-54059976D01*
X55049992Y-52851100D01*
X55049829Y-52849895D01*
X55049701Y-52848723D01*
X55039383Y-52732650D01*
X55039382Y-52732647D01*
X54983434Y-52537114D01*
X54889270Y-52356846D01*
X54760745Y-52199222D01*
X54603121Y-52070697D01*
X54422853Y-51976533D01*
X54422852Y-51976532D01*
X54422851Y-51976532D01*
X54229886Y-51921319D01*
X54227909Y-51920707D01*
X54227321Y-51920584D01*
X54147767Y-51913512D01*
X54107992Y-51909976D01*
X54107990Y-51909976D01*
X53799992Y-51909976D01*
X53799992Y-54059976D01*
X53299992Y-54059976D01*
X53299992Y-51909976D01*
X52991992Y-51909976D01*
X52991991Y-51909976D01*
X52972103Y-51911744D01*
X52872661Y-51920584D01*
X52872072Y-51920707D01*
X52870096Y-51921319D01*
X52677131Y-51976532D01*
X52496861Y-52070697D01*
X52339238Y-52199222D01*
X52210713Y-52356845D01*
X52116548Y-52537115D01*
X52061335Y-52730080D01*
X52060723Y-52732056D01*
X52060600Y-52732645D01*
X52060600Y-52732650D01*
X52049992Y-52851975D01*
X51799992Y-52851975D01*
X51799992Y-51483976D01*
X51819677Y-51416937D01*
X51872481Y-51371182D01*
X51923992Y-51359976D01*
X55658162Y-51359976D01*
X55693098Y-51364999D01*
G37*
%TD.AperFunction*%
%TD*%
%TA.AperFunction,Conductor*%
%TO.N,/V5v_bias*%
G36*
X89293106Y-46314999D02*
G01*
X89308104Y-46319403D01*
X89323094Y-46329033D01*
X89340175Y-46334043D01*
X89366855Y-46357148D01*
X89368042Y-46358517D01*
X89395518Y-46413378D01*
X89397163Y-46420936D01*
X89400000Y-46447307D01*
X89400000Y-48394064D01*
X89399937Y-48394497D01*
X89399973Y-48394498D01*
X89399972Y-48394861D01*
X89396300Y-48419805D01*
X89394982Y-48428983D01*
X89394955Y-48429075D01*
X89394937Y-48429069D01*
X89394813Y-48429913D01*
X89390091Y-48445767D01*
X89390055Y-48445886D01*
X89390023Y-48445997D01*
X89388503Y-48451171D01*
X89378682Y-48466447D01*
X89373467Y-48483844D01*
X89353221Y-48506050D01*
X89350719Y-48509943D01*
X89350204Y-48510387D01*
X89343711Y-48515949D01*
X89341956Y-48517032D01*
X89339018Y-48519969D01*
X89335378Y-48523088D01*
X89328595Y-48526139D01*
X89305785Y-48541909D01*
X89295616Y-48546506D01*
X89295214Y-48545618D01*
X89278801Y-48548541D01*
X89271660Y-48551754D01*
X89265735Y-48550868D01*
X89234050Y-48556510D01*
X89233980Y-48557497D01*
X89231685Y-48557332D01*
X89231684Y-48557332D01*
X89231472Y-48557316D01*
X89230820Y-48557086D01*
X89230293Y-48557180D01*
X89229413Y-48557084D01*
X89229465Y-48556606D01*
X89169453Y-48535366D01*
X89165985Y-48532949D01*
X89149200Y-48518895D01*
X89147732Y-48517427D01*
X89147728Y-48517424D01*
X89147722Y-48517420D01*
X89147712Y-48517413D01*
X89031555Y-48445767D01*
X89003492Y-48428457D01*
X89003490Y-48428456D01*
X89003476Y-48428449D01*
X88842604Y-48375143D01*
X88743327Y-48365000D01*
X88743322Y-48365000D01*
X88720000Y-48365000D01*
X88720000Y-50314999D01*
X88743296Y-50314999D01*
X88743308Y-50314999D01*
X88743322Y-50314998D01*
X88842607Y-50304855D01*
X89003481Y-50251547D01*
X89003492Y-50251542D01*
X89147731Y-50162573D01*
X89147734Y-50162569D01*
X89153045Y-50158371D01*
X89157142Y-50154799D01*
X89161370Y-50151594D01*
X89167064Y-50149430D01*
X89172972Y-50145457D01*
X89172609Y-50144792D01*
X89174535Y-50143740D01*
X89174801Y-50144227D01*
X89184330Y-50137817D01*
X89191148Y-50134672D01*
X89191153Y-50134669D01*
X89193059Y-50133790D01*
X89193477Y-50134697D01*
X89205320Y-50132523D01*
X89210482Y-50128914D01*
X89222288Y-50128453D01*
X89226686Y-50126783D01*
X89231291Y-50127755D01*
X89254967Y-50123409D01*
X89255034Y-50122481D01*
X89257128Y-50122630D01*
X89257132Y-50122631D01*
X89258859Y-50122754D01*
X89259143Y-50122843D01*
X89259276Y-50122857D01*
X89259273Y-50122883D01*
X89271058Y-50126551D01*
X89280299Y-50126191D01*
X89312950Y-50139590D01*
X89313040Y-50139643D01*
X89337799Y-50158811D01*
X89347064Y-50168076D01*
X89346808Y-50168331D01*
X89368997Y-50192708D01*
X89370729Y-50195381D01*
X89370734Y-50195386D01*
X89372406Y-50197569D01*
X89373082Y-50199011D01*
X89373387Y-50199481D01*
X89373322Y-50199522D01*
X89377026Y-50207418D01*
X89382247Y-50212542D01*
X89394889Y-50245494D01*
X89396914Y-50254401D01*
X89400000Y-50281891D01*
X89400000Y-50608982D01*
X89394976Y-50643921D01*
X89389402Y-50662902D01*
X89357298Y-50716446D01*
X89351035Y-50722595D01*
X89333786Y-50736105D01*
X89323791Y-50744009D01*
X89323302Y-50743391D01*
X89304177Y-50757705D01*
X89290460Y-50765195D01*
X89222187Y-50780047D01*
X89222140Y-50780044D01*
X89220332Y-50779914D01*
X89162191Y-50760552D01*
X89158597Y-50758242D01*
X89155684Y-50756370D01*
X89138678Y-50742664D01*
X89138554Y-50742808D01*
X89135234Y-50739929D01*
X89135232Y-50739927D01*
X89135228Y-50739924D01*
X89135222Y-50739920D01*
X89135212Y-50739913D01*
X89027490Y-50673469D01*
X88990992Y-50650957D01*
X88990990Y-50650956D01*
X88990976Y-50650949D01*
X88830104Y-50597643D01*
X88730827Y-50587500D01*
X88730822Y-50587500D01*
X88707500Y-50587500D01*
X88707500Y-52537499D01*
X88730796Y-52537499D01*
X88730808Y-52537499D01*
X88730822Y-52537498D01*
X88830107Y-52527355D01*
X88990981Y-52474047D01*
X88990992Y-52474042D01*
X89135231Y-52385073D01*
X89135234Y-52385069D01*
X89138920Y-52382156D01*
X89142600Y-52378878D01*
X89144379Y-52377470D01*
X89149289Y-52375486D01*
X89160394Y-52367504D01*
X89160238Y-52367218D01*
X89160998Y-52366804D01*
X89161102Y-52366995D01*
X89164786Y-52364347D01*
X89176509Y-52358341D01*
X89176533Y-52358327D01*
X89176644Y-52358271D01*
X89207457Y-52351990D01*
X89209163Y-52351301D01*
X89210030Y-52351465D01*
X89242024Y-52344944D01*
X89242150Y-52344953D01*
X89242191Y-52344957D01*
X89246408Y-52345258D01*
X89311871Y-52369669D01*
X89325249Y-52381261D01*
X89329456Y-52385468D01*
X89330169Y-52385907D01*
X89331166Y-52386820D01*
X89335123Y-52389949D01*
X89334897Y-52390234D01*
X89335474Y-52390762D01*
X89339508Y-52392273D01*
X89358818Y-52412123D01*
X89364433Y-52417261D01*
X89365349Y-52418488D01*
X89369089Y-52423768D01*
X89370279Y-52425091D01*
X89373394Y-52429263D01*
X89376556Y-52437774D01*
X89394946Y-52475952D01*
X89396913Y-52484602D01*
X89400000Y-52512098D01*
X89400000Y-54618146D01*
X89394975Y-54653090D01*
X89390570Y-54668088D01*
X89380939Y-54683077D01*
X89375932Y-54700151D01*
X89352827Y-54726831D01*
X89351458Y-54728018D01*
X89296597Y-54755494D01*
X89289039Y-54757139D01*
X89262668Y-54759976D01*
X88928593Y-54759976D01*
X88893654Y-54754952D01*
X88880336Y-54751041D01*
X88865339Y-54741402D01*
X88848234Y-54736380D01*
X88836558Y-54722905D01*
X88821559Y-54713265D01*
X88814152Y-54697046D01*
X88802480Y-54683575D01*
X88792537Y-54649711D01*
X88791497Y-54642477D01*
X88795850Y-54587941D01*
X88808581Y-54547085D01*
X88808582Y-54547080D01*
X88808583Y-54547077D01*
X88814992Y-54476548D01*
X88814992Y-54469976D01*
X86864993Y-54469976D01*
X86864993Y-54476565D01*
X86870027Y-54531969D01*
X86871400Y-54547078D01*
X86871400Y-54547080D01*
X86883361Y-54585463D01*
X86884234Y-54588964D01*
X86884065Y-54593043D01*
X86887899Y-54616909D01*
X86888128Y-54630784D01*
X86881514Y-54654764D01*
X86881349Y-54658774D01*
X86879801Y-54660976D01*
X86869553Y-54698139D01*
X86817520Y-54744755D01*
X86810923Y-54747901D01*
X86757548Y-54759976D01*
X85372673Y-54759976D01*
X85305634Y-54740291D01*
X85259879Y-54687487D01*
X85249935Y-54618329D01*
X85278960Y-54554773D01*
X85291470Y-54542263D01*
X85303349Y-54531969D01*
X85311339Y-54525046D01*
X85405559Y-54416312D01*
X85465330Y-54285435D01*
X85485015Y-54218396D01*
X85485016Y-54218392D01*
X85505492Y-54075976D01*
X85505492Y-53963403D01*
X86864992Y-53963403D01*
X86864992Y-53969976D01*
X87589992Y-53969976D01*
X88089992Y-53969976D01*
X88814991Y-53969976D01*
X88814991Y-53963393D01*
X88808583Y-53892873D01*
X88808582Y-53892868D01*
X88758010Y-53730579D01*
X88758009Y-53730577D01*
X88670068Y-53585103D01*
X88670067Y-53585102D01*
X88670065Y-53585100D01*
X88670064Y-53585098D01*
X88549869Y-53464903D01*
X88549868Y-53464902D01*
X88549867Y-53464901D01*
X88481414Y-53423520D01*
X88481410Y-53423518D01*
X88404387Y-53376956D01*
X88404388Y-53376956D01*
X88325930Y-53352508D01*
X88318788Y-53349246D01*
X88298298Y-53331491D01*
X88189373Y-53321594D01*
X88171564Y-53319976D01*
X88171563Y-53319976D01*
X88089992Y-53319976D01*
X88089992Y-53969976D01*
X87589992Y-53969976D01*
X87589992Y-53319976D01*
X87589991Y-53319975D01*
X87508409Y-53319975D01*
X87437896Y-53326382D01*
X87437872Y-53326388D01*
X87275599Y-53376955D01*
X87275593Y-53376957D01*
X87130119Y-53464898D01*
X87130118Y-53464899D01*
X87009917Y-53585099D01*
X86921972Y-53730579D01*
X86871399Y-53892876D01*
X86864993Y-53963393D01*
X86864992Y-53963403D01*
X85505492Y-53963403D01*
X85505492Y-51860831D01*
X87507501Y-51860831D01*
X87517644Y-51960108D01*
X87570951Y-52120978D01*
X87570956Y-52120990D01*
X87570958Y-52120993D01*
X87659913Y-52265212D01*
X87659920Y-52265222D01*
X87659924Y-52265228D01*
X87659927Y-52265232D01*
X87659929Y-52265234D01*
X87659931Y-52265237D01*
X87779761Y-52385067D01*
X87779764Y-52385069D01*
X87779767Y-52385072D01*
X87779771Y-52385075D01*
X87779779Y-52385080D01*
X87779786Y-52385085D01*
X87823622Y-52412123D01*
X87924007Y-52474042D01*
X87924018Y-52474047D01*
X88084893Y-52527355D01*
X88184183Y-52537499D01*
X88207500Y-52537498D01*
X88207500Y-51812500D01*
X87507501Y-51812500D01*
X87507501Y-51860831D01*
X85505492Y-51860831D01*
X85505492Y-51333976D01*
X85497987Y-51264171D01*
X87507500Y-51264171D01*
X87507500Y-51264177D01*
X87507500Y-51312500D01*
X88207500Y-51312500D01*
X88207500Y-50587499D01*
X88184205Y-50587499D01*
X88184186Y-50587500D01*
X88184185Y-50587500D01*
X88184161Y-50587502D01*
X88084894Y-50597643D01*
X88084893Y-50597643D01*
X87924022Y-50650949D01*
X87924008Y-50650956D01*
X87924005Y-50650958D01*
X87779786Y-50739913D01*
X87779764Y-50739929D01*
X87779761Y-50739931D01*
X87659931Y-50859761D01*
X87659929Y-50859764D01*
X87659913Y-50859786D01*
X87570958Y-51004005D01*
X87570956Y-51004008D01*
X87570949Y-51004022D01*
X87517643Y-51164894D01*
X87507500Y-51264171D01*
X85497987Y-51264171D01*
X85493939Y-51226520D01*
X85482733Y-51175009D01*
X85471703Y-51141870D01*
X85448608Y-51072478D01*
X85448605Y-51072472D01*
X85370820Y-50951438D01*
X85370817Y-50951433D01*
X85370812Y-50951427D01*
X85325068Y-50898635D01*
X85325064Y-50898632D01*
X85325062Y-50898629D01*
X85216328Y-50804409D01*
X85216325Y-50804407D01*
X85216323Y-50804406D01*
X85085457Y-50744640D01*
X85085452Y-50744638D01*
X85085451Y-50744638D01*
X85018412Y-50724953D01*
X85018414Y-50724953D01*
X85018409Y-50724952D01*
X84970936Y-50718126D01*
X84875992Y-50704476D01*
X84875990Y-50704476D01*
X84847800Y-50704476D01*
X84839039Y-50701903D01*
X84829999Y-50703192D01*
X84806040Y-50692213D01*
X84780761Y-50684791D01*
X84773099Y-50677120D01*
X84766480Y-50674087D01*
X84746069Y-50650056D01*
X84743401Y-50647385D01*
X84742816Y-50646472D01*
X84682962Y-50549435D01*
X84682959Y-50549431D01*
X84676454Y-50542926D01*
X84669218Y-50531635D01*
X84668469Y-50529073D01*
X84664783Y-50524149D01*
X84657293Y-50510431D01*
X84642443Y-50442159D01*
X84642572Y-50440356D01*
X84661937Y-50382171D01*
X84666131Y-50375645D01*
X84680495Y-50357824D01*
X84682561Y-50355210D01*
X84682565Y-50355207D01*
X84771534Y-50210968D01*
X84771539Y-50210957D01*
X84775498Y-50199011D01*
X84791927Y-50149430D01*
X84824847Y-50050082D01*
X84834991Y-49950798D01*
X84834992Y-49950785D01*
X84834992Y-49927476D01*
X82884993Y-49927476D01*
X82884993Y-49950807D01*
X82895136Y-50050084D01*
X82944641Y-50199481D01*
X82948444Y-50210957D01*
X82948449Y-50210968D01*
X82961780Y-50232580D01*
X83037405Y-50355188D01*
X83037414Y-50355201D01*
X83037416Y-50355204D01*
X83037418Y-50355207D01*
X83037424Y-50355215D01*
X83037425Y-50355216D01*
X83039979Y-50358161D01*
X83055140Y-50379986D01*
X83062689Y-50393812D01*
X83077540Y-50462070D01*
X83077411Y-50463876D01*
X83058041Y-50522081D01*
X83053863Y-50528582D01*
X83040893Y-50544677D01*
X83040910Y-50544691D01*
X83039359Y-50546582D01*
X83037239Y-50549214D01*
X83037033Y-50549419D01*
X83037020Y-50549435D01*
X83037014Y-50549444D01*
X82977721Y-50645573D01*
X82925773Y-50692298D01*
X82872183Y-50704476D01*
X82232463Y-50704476D01*
X82165424Y-50684791D01*
X82119669Y-50631987D01*
X82109725Y-50562829D01*
X82126924Y-50515379D01*
X82129976Y-50510431D01*
X82169348Y-50446600D01*
X82169350Y-50446595D01*
X82224497Y-50280173D01*
X82224498Y-50280166D01*
X82234991Y-50177462D01*
X82234992Y-50177449D01*
X82234992Y-49927476D01*
X79884993Y-49927476D01*
X79884993Y-50177471D01*
X79895485Y-50280170D01*
X79895485Y-50280171D01*
X79895486Y-50280173D01*
X79903665Y-50304854D01*
X79948565Y-50440356D01*
X79950633Y-50446595D01*
X79950635Y-50446600D01*
X79980770Y-50495456D01*
X79993059Y-50515379D01*
X80011499Y-50582772D01*
X79990576Y-50649435D01*
X79936934Y-50694205D01*
X79887520Y-50704476D01*
X79643992Y-50704476D01*
X79643983Y-50704476D01*
X79643982Y-50704477D01*
X79536541Y-50716028D01*
X79536529Y-50716030D01*
X79485019Y-50727236D01*
X79382494Y-50761359D01*
X79382488Y-50761362D01*
X79261454Y-50839147D01*
X79261443Y-50839155D01*
X79208651Y-50884899D01*
X79114425Y-50993640D01*
X79114422Y-50993644D01*
X79054656Y-51124510D01*
X79034968Y-51191558D01*
X79025875Y-51254801D01*
X79014492Y-51333976D01*
X79014492Y-54075976D01*
X79014493Y-54075985D01*
X79026044Y-54183426D01*
X79026046Y-54183438D01*
X79037252Y-54234948D01*
X79073828Y-54344841D01*
X79071131Y-54345738D01*
X79080150Y-54401449D01*
X79052254Y-54465508D01*
X78994153Y-54504317D01*
X78957119Y-54509976D01*
X78691822Y-54509976D01*
X78691817Y-54509975D01*
X78691815Y-54509976D01*
X78656881Y-54504951D01*
X78641882Y-54500546D01*
X78583136Y-54462803D01*
X78583107Y-54462769D01*
X78583106Y-54462769D01*
X78583105Y-54462767D01*
X78581949Y-54461434D01*
X78554469Y-54406559D01*
X78552824Y-54398997D01*
X78549992Y-54372644D01*
X78549992Y-52859976D01*
X74941822Y-52859976D01*
X74941817Y-52859975D01*
X74941815Y-52859976D01*
X74906881Y-52854951D01*
X74891882Y-52850546D01*
X74833136Y-52812803D01*
X74833107Y-52812769D01*
X74833106Y-52812769D01*
X74833105Y-52812767D01*
X74831949Y-52811434D01*
X74804469Y-52756559D01*
X74802824Y-52748997D01*
X74799992Y-52722644D01*
X74799992Y-51135476D01*
X75659992Y-51135476D01*
X75662607Y-51164893D01*
X75670600Y-51254805D01*
X75670723Y-51255393D01*
X75671335Y-51257370D01*
X75693254Y-51333976D01*
X75726549Y-51450337D01*
X75820713Y-51630605D01*
X75949238Y-51788229D01*
X76106862Y-51916754D01*
X76287130Y-52010918D01*
X76482663Y-52066866D01*
X76482666Y-52066867D01*
X76598739Y-52077185D01*
X76599911Y-52077313D01*
X76600130Y-52077404D01*
X76600703Y-52077476D01*
X76601994Y-52077476D01*
X76909992Y-52077476D01*
X77409992Y-52077476D01*
X77717990Y-52077476D01*
X77721217Y-52077476D01*
X77724386Y-52076931D01*
X77725596Y-52076799D01*
X77837317Y-52066867D01*
X77837320Y-52066866D01*
X78032853Y-52010918D01*
X78213121Y-51916754D01*
X78370745Y-51788229D01*
X78499270Y-51630605D01*
X78593434Y-51450337D01*
X78649382Y-51254804D01*
X78649383Y-51254801D01*
X78659315Y-51143080D01*
X78659447Y-51141870D01*
X78659700Y-51141261D01*
X78659992Y-51139456D01*
X78659992Y-49927476D01*
X77409992Y-49927476D01*
X77409992Y-52077476D01*
X76909992Y-52077476D01*
X76909992Y-49927476D01*
X75659992Y-49927476D01*
X75659992Y-51135476D01*
X74799992Y-51135476D01*
X74799992Y-49638331D01*
X87520001Y-49638331D01*
X87530144Y-49737608D01*
X87583451Y-49898478D01*
X87583456Y-49898490D01*
X87583458Y-49898493D01*
X87672413Y-50042712D01*
X87672420Y-50042722D01*
X87672424Y-50042728D01*
X87672427Y-50042732D01*
X87672429Y-50042734D01*
X87672431Y-50042737D01*
X87792261Y-50162567D01*
X87792264Y-50162569D01*
X87792267Y-50162572D01*
X87792271Y-50162575D01*
X87792279Y-50162580D01*
X87792286Y-50162585D01*
X87863509Y-50206516D01*
X87936507Y-50251542D01*
X87936518Y-50251547D01*
X88097393Y-50304855D01*
X88196683Y-50314999D01*
X88220000Y-50314998D01*
X88220000Y-49590000D01*
X87520001Y-49590000D01*
X87520001Y-49638331D01*
X74799992Y-49638331D01*
X74799992Y-48219475D01*
X75659992Y-48219475D01*
X75659992Y-49427476D01*
X76909992Y-49427476D01*
X77409992Y-49427476D01*
X78659992Y-49427476D01*
X78659992Y-49177483D01*
X79884992Y-49177483D01*
X79884992Y-49177486D01*
X79884992Y-49177489D01*
X79884992Y-49427476D01*
X80809992Y-49427476D01*
X81309992Y-49427476D01*
X82234991Y-49427476D01*
X82234991Y-49404147D01*
X82884992Y-49404147D01*
X82884992Y-49404150D01*
X82884992Y-49404153D01*
X82884992Y-49427476D01*
X83609992Y-49427476D01*
X84109992Y-49427476D01*
X84834991Y-49427476D01*
X84834991Y-49404168D01*
X84834990Y-49404153D01*
X84824847Y-49304868D01*
X84771539Y-49143994D01*
X84771537Y-49143989D01*
X84746640Y-49103625D01*
X84746639Y-49103623D01*
X84708426Y-49041671D01*
X87520000Y-49041671D01*
X87520000Y-49041677D01*
X87520000Y-49090000D01*
X88220000Y-49090000D01*
X88220000Y-48364999D01*
X88196705Y-48364999D01*
X88196686Y-48365000D01*
X88196685Y-48365000D01*
X88196661Y-48365002D01*
X88097394Y-48375143D01*
X88097393Y-48375143D01*
X87936522Y-48428449D01*
X87936508Y-48428456D01*
X87936505Y-48428458D01*
X87792286Y-48517413D01*
X87792264Y-48517429D01*
X87792261Y-48517431D01*
X87672431Y-48637261D01*
X87672429Y-48637264D01*
X87672413Y-48637286D01*
X87583458Y-48781505D01*
X87583456Y-48781508D01*
X87583449Y-48781522D01*
X87530143Y-48942394D01*
X87520000Y-49041671D01*
X84708426Y-49041671D01*
X84682565Y-48999744D01*
X84562724Y-48879903D01*
X84562720Y-48879900D01*
X84562717Y-48879898D01*
X84562704Y-48879889D01*
X84454982Y-48813445D01*
X84418484Y-48790933D01*
X84418482Y-48790932D01*
X84418468Y-48790925D01*
X84257596Y-48737619D01*
X84158319Y-48727476D01*
X84158314Y-48727476D01*
X84109992Y-48727476D01*
X84109992Y-49427476D01*
X83609992Y-49427476D01*
X83609992Y-48727475D01*
X83609991Y-48727474D01*
X83609990Y-48727474D01*
X83561705Y-48727475D01*
X83561677Y-48727476D01*
X83561643Y-48727479D01*
X83462382Y-48737620D01*
X83301512Y-48790927D01*
X83301500Y-48790932D01*
X83301497Y-48790934D01*
X83157278Y-48879889D01*
X83157256Y-48879905D01*
X83157253Y-48879907D01*
X83037423Y-48999737D01*
X83037421Y-48999740D01*
X83037405Y-48999762D01*
X82948450Y-49143981D01*
X82948448Y-49143984D01*
X82948441Y-49143998D01*
X82895135Y-49304870D01*
X82884992Y-49404147D01*
X82234991Y-49404147D01*
X82234991Y-49177504D01*
X82234990Y-49177489D01*
X82224497Y-49074778D01*
X82169350Y-48908356D01*
X82169348Y-48908351D01*
X82077307Y-48759130D01*
X81953337Y-48635160D01*
X81804116Y-48543119D01*
X81804111Y-48543117D01*
X81780720Y-48535366D01*
X81637691Y-48487970D01*
X81637686Y-48487969D01*
X81534983Y-48477476D01*
X81534978Y-48477476D01*
X81309992Y-48477476D01*
X81309992Y-49427476D01*
X80809992Y-49427476D01*
X80809992Y-48477476D01*
X80585029Y-48477476D01*
X80585021Y-48477476D01*
X80585011Y-48477476D01*
X80584998Y-48477477D01*
X80482296Y-48487969D01*
X80482294Y-48487970D01*
X80315879Y-48543114D01*
X80315871Y-48543117D01*
X80315869Y-48543118D01*
X80315867Y-48543119D01*
X80216386Y-48604479D01*
X80166644Y-48635161D01*
X80042677Y-48759128D01*
X79950633Y-48908355D01*
X79950630Y-48908364D01*
X79895486Y-49074775D01*
X79895485Y-49074780D01*
X79884992Y-49177483D01*
X78659992Y-49177483D01*
X78659992Y-48218600D01*
X78659829Y-48217395D01*
X78659701Y-48216223D01*
X78649383Y-48100150D01*
X78649382Y-48100147D01*
X78593434Y-47904614D01*
X78499270Y-47724346D01*
X78370745Y-47566722D01*
X78213121Y-47438197D01*
X78032853Y-47344033D01*
X78032852Y-47344032D01*
X78032851Y-47344032D01*
X77839886Y-47288819D01*
X77837909Y-47288207D01*
X77837321Y-47288084D01*
X77757767Y-47281012D01*
X77717992Y-47277476D01*
X77717990Y-47277476D01*
X77409992Y-47277476D01*
X77409992Y-49427476D01*
X76909992Y-49427476D01*
X76909992Y-47277476D01*
X76601992Y-47277476D01*
X76601991Y-47277476D01*
X76582103Y-47279244D01*
X76482661Y-47288084D01*
X76482072Y-47288207D01*
X76480096Y-47288819D01*
X76287131Y-47344032D01*
X76106861Y-47438197D01*
X75949238Y-47566722D01*
X75820713Y-47724345D01*
X75726548Y-47904615D01*
X75674306Y-48087193D01*
X75674305Y-48087201D01*
X75670601Y-48100147D01*
X75670600Y-48100150D01*
X75659992Y-48219475D01*
X74799992Y-48219475D01*
X74799992Y-46451805D01*
X74805015Y-46416869D01*
X74809419Y-46401871D01*
X74847164Y-46343120D01*
X74847192Y-46343095D01*
X74847191Y-46343095D01*
X74848533Y-46341932D01*
X74903412Y-46314453D01*
X74910971Y-46312809D01*
X74937324Y-46309976D01*
X89258170Y-46309976D01*
X89293106Y-46314999D01*
G37*
%TD.AperFunction*%
%TD*%
%TA.AperFunction,Conductor*%
%TO.N,GND*%
G36*
X72693031Y-45639661D02*
G01*
X72738786Y-45692465D01*
X72749992Y-45743976D01*
X72749992Y-47265976D01*
X72730307Y-47333015D01*
X72677503Y-47378770D01*
X72625992Y-47389976D01*
X69013992Y-47389976D01*
X68946953Y-47370291D01*
X68901198Y-47317487D01*
X68889992Y-47265976D01*
X68889992Y-45743976D01*
X68909677Y-45676937D01*
X68962481Y-45631182D01*
X69013992Y-45619976D01*
X72625992Y-45619976D01*
X72693031Y-45639661D01*
G37*
%TD.AperFunction*%
%TD*%
%TA.AperFunction,Conductor*%
%TO.N,GND*%
G36*
X63358031Y-42379661D02*
G01*
X63403786Y-42432465D01*
X63414992Y-42483976D01*
X63414992Y-44635976D01*
X63395307Y-44703015D01*
X63342503Y-44748770D01*
X63290992Y-44759976D01*
X62338992Y-44759976D01*
X62271953Y-44740291D01*
X62226198Y-44687487D01*
X62214992Y-44635976D01*
X62214992Y-42483976D01*
X62234677Y-42416937D01*
X62287481Y-42371182D01*
X62338992Y-42359976D01*
X63290992Y-42359976D01*
X63358031Y-42379661D01*
G37*
%TD.AperFunction*%
%TD*%
%TA.AperFunction,Conductor*%
%TO.N,/V5v*%
G36*
X51743031Y-51379661D02*
G01*
X51788786Y-51432465D01*
X51799992Y-51483976D01*
X51799992Y-57126000D01*
X51780307Y-57193039D01*
X51727503Y-57238794D01*
X51675992Y-57250000D01*
X50671540Y-57250000D01*
X50636603Y-57244977D01*
X50635455Y-57244640D01*
X50635451Y-57244638D01*
X50568412Y-57224953D01*
X50568414Y-57224953D01*
X50568409Y-57224952D01*
X50520936Y-57218126D01*
X50425992Y-57204476D01*
X50425990Y-57204476D01*
X50124000Y-57204476D01*
X50056961Y-57184791D01*
X50011206Y-57131987D01*
X50000000Y-57080476D01*
X50000000Y-51501805D01*
X50005023Y-51466869D01*
X50009427Y-51451871D01*
X50047172Y-51393120D01*
X50047200Y-51393095D01*
X50047199Y-51393095D01*
X50048541Y-51391932D01*
X50103420Y-51364453D01*
X50110979Y-51362809D01*
X50137332Y-51359976D01*
X51675992Y-51359976D01*
X51743031Y-51379661D01*
G37*
%TD.AperFunction*%
%TD*%
%TA.AperFunction,Conductor*%
%TO.N,GND*%
G36*
X50493031Y-57729661D02*
G01*
X50538786Y-57782465D01*
X50549992Y-57833976D01*
X50549992Y-61125976D01*
X50530307Y-61193015D01*
X50477503Y-61238770D01*
X50425992Y-61249976D01*
X48963992Y-61249976D01*
X48896953Y-61230291D01*
X48851198Y-61177487D01*
X48839992Y-61125976D01*
X48839992Y-57833976D01*
X48859677Y-57766937D01*
X48912481Y-57721182D01*
X48963992Y-57709976D01*
X50425992Y-57709976D01*
X50493031Y-57729661D01*
G37*
%TD.AperFunction*%
%TD*%
%TA.AperFunction,Conductor*%
%TO.N,GND*%
G36*
X102832539Y-63729685D02*
G01*
X102878294Y-63782489D01*
X102889500Y-63834000D01*
X102889500Y-66556000D01*
X102869815Y-66623039D01*
X102817011Y-66668794D01*
X102765500Y-66680000D01*
X98484000Y-66680000D01*
X98416961Y-66660315D01*
X98371206Y-66607511D01*
X98360000Y-66556000D01*
X98360000Y-63834000D01*
X98379685Y-63766961D01*
X98432489Y-63721206D01*
X98484000Y-63710000D01*
X102765500Y-63710000D01*
X102832539Y-63729685D01*
G37*
%TD.AperFunction*%
%TD*%
%TA.AperFunction,Conductor*%
%TO.N,GND*%
G36*
X63943031Y-46889661D02*
G01*
X63988786Y-46942465D01*
X63999992Y-46993976D01*
X63999992Y-49145976D01*
X63980307Y-49213015D01*
X63927503Y-49258770D01*
X63875992Y-49269976D01*
X62923992Y-49269976D01*
X62856953Y-49250291D01*
X62811198Y-49197487D01*
X62799992Y-49145976D01*
X62799992Y-46993976D01*
X62819677Y-46926937D01*
X62872481Y-46881182D01*
X62923992Y-46869976D01*
X63875992Y-46869976D01*
X63943031Y-46889661D01*
G37*
%TD.AperFunction*%
%TD*%
%TA.AperFunction,Conductor*%
%TO.N,GND*%
G36*
X51593031Y-68259661D02*
G01*
X51638786Y-68312465D01*
X51649992Y-68363976D01*
X51649992Y-71085976D01*
X51630307Y-71153015D01*
X51577503Y-71198770D01*
X51525992Y-71209976D01*
X47304500Y-71209976D01*
X47237461Y-71190291D01*
X47191706Y-71137487D01*
X47180500Y-71085976D01*
X47180500Y-68363976D01*
X47200185Y-68296937D01*
X47252989Y-68251182D01*
X47304500Y-68239976D01*
X51525992Y-68239976D01*
X51593031Y-68259661D01*
G37*
%TD.AperFunction*%
%TD*%
%TA.AperFunction,Conductor*%
%TO.N,GND*%
G36*
X58253039Y-60669685D02*
G01*
X58298794Y-60722489D01*
X58310000Y-60774000D01*
X58310000Y-64066000D01*
X58290315Y-64133039D01*
X58237511Y-64178794D01*
X58186000Y-64190000D01*
X56724000Y-64190000D01*
X56656961Y-64170315D01*
X56611206Y-64117511D01*
X56600000Y-64066000D01*
X56600000Y-60774000D01*
X56619685Y-60706961D01*
X56672489Y-60661206D01*
X56724000Y-60650000D01*
X58186000Y-60650000D01*
X58253039Y-60669685D01*
G37*
%TD.AperFunction*%
%TD*%
%TA.AperFunction,Conductor*%
%TO.N,GND*%
G36*
X76030624Y-68638620D02*
G01*
X76060611Y-68645144D01*
X76065626Y-68648898D01*
X76068223Y-68649661D01*
X76088865Y-68666295D01*
X76111894Y-68689324D01*
X76145379Y-68750647D01*
X76148213Y-68777005D01*
X76148213Y-69885976D01*
X76128528Y-69953015D01*
X76075724Y-69998770D01*
X76024213Y-70009976D01*
X72948213Y-70009976D01*
X72948213Y-68629976D01*
X72949992Y-68629976D01*
X76001184Y-68629976D01*
X76030624Y-68638620D01*
G37*
%TD.AperFunction*%
%TD*%
%TA.AperFunction,Conductor*%
%TO.N,GND*%
G36*
X61993031Y-56509661D02*
G01*
X62038786Y-56562465D01*
X62049992Y-56613976D01*
X62049992Y-58135976D01*
X62030307Y-58203015D01*
X61977503Y-58248770D01*
X61925992Y-58259976D01*
X57813992Y-58259976D01*
X57746953Y-58240291D01*
X57701198Y-58187487D01*
X57689992Y-58135976D01*
X57689992Y-56613976D01*
X57709677Y-56546937D01*
X57762481Y-56501182D01*
X57813992Y-56489976D01*
X61925992Y-56489976D01*
X61993031Y-56509661D01*
G37*
%TD.AperFunction*%
%TD*%
%TA.AperFunction,Conductor*%
%TO.N,GND*%
G36*
X84943031Y-51229661D02*
G01*
X84988786Y-51282465D01*
X84999992Y-51333976D01*
X84999992Y-54075976D01*
X84980307Y-54143015D01*
X84927503Y-54188770D01*
X84875992Y-54199976D01*
X79643992Y-54199976D01*
X79576953Y-54180291D01*
X79531198Y-54127487D01*
X79519992Y-54075976D01*
X79519992Y-51333976D01*
X79539677Y-51266937D01*
X79592481Y-51221182D01*
X79643992Y-51209976D01*
X84875992Y-51209976D01*
X84943031Y-51229661D01*
G37*
%TD.AperFunction*%
%TD*%
%TA.AperFunction,Conductor*%
%TO.N,GND*%
G36*
X70967531Y-66029661D02*
G01*
X71013286Y-66082465D01*
X71024492Y-66133976D01*
X71024492Y-66361332D01*
X71004807Y-66428371D01*
X70952003Y-66474126D01*
X70882845Y-66484070D01*
X70830413Y-66463630D01*
X70822469Y-66458188D01*
X70719868Y-66412886D01*
X70694786Y-66409976D01*
X70549992Y-66409976D01*
X70549992Y-67589975D01*
X70694778Y-67589975D01*
X70694800Y-67589973D01*
X70719861Y-67587067D01*
X70719865Y-67587066D01*
X70822466Y-67541764D01*
X70830396Y-67533835D01*
X70891718Y-67500349D01*
X70961410Y-67505331D01*
X71017345Y-67547200D01*
X71017346Y-67547202D01*
X71092447Y-67647523D01*
X71207656Y-67733769D01*
X71207663Y-67733773D01*
X71252610Y-67750537D01*
X71342509Y-67784067D01*
X71402119Y-67790476D01*
X71997864Y-67790475D01*
X72057475Y-67784067D01*
X72192323Y-67733772D01*
X72307538Y-67647522D01*
X72393788Y-67532307D01*
X72444083Y-67397459D01*
X72450492Y-67337849D01*
X72450491Y-66662104D01*
X72444083Y-66602493D01*
X72393788Y-66467645D01*
X72393785Y-66467642D01*
X72390659Y-66461915D01*
X72375492Y-66402489D01*
X72375492Y-66133976D01*
X72395177Y-66066937D01*
X72447981Y-66021182D01*
X72499492Y-66009976D01*
X72825992Y-66009976D01*
X72893031Y-66029661D01*
X72938786Y-66082465D01*
X72949992Y-66133976D01*
X72949992Y-70009976D01*
X72948213Y-70009976D01*
X70892700Y-70009976D01*
X70825661Y-69990291D01*
X70779906Y-69937487D01*
X70769962Y-69868329D01*
X70798987Y-69804773D01*
X70849367Y-69769794D01*
X70892320Y-69753773D01*
X70892319Y-69753773D01*
X70892323Y-69753772D01*
X71007538Y-69667522D01*
X71013415Y-69659671D01*
X71069344Y-69617796D01*
X71112686Y-69609975D01*
X71399991Y-69609975D01*
X71699992Y-69609975D01*
X71994778Y-69609975D01*
X71994800Y-69609973D01*
X72019861Y-69607067D01*
X72019865Y-69607066D01*
X72122466Y-69561764D01*
X72122471Y-69561761D01*
X72201777Y-69482455D01*
X72201780Y-69482450D01*
X72247081Y-69379853D01*
X72247081Y-69379851D01*
X72249991Y-69354770D01*
X72249992Y-69354767D01*
X72249992Y-69169976D01*
X71699992Y-69169976D01*
X71699992Y-69609975D01*
X71399991Y-69609975D01*
X71399992Y-69609974D01*
X71399992Y-68869976D01*
X71699992Y-68869976D01*
X72249991Y-68869976D01*
X72249991Y-68685190D01*
X72249989Y-68685167D01*
X72247083Y-68660106D01*
X72247082Y-68660102D01*
X72201780Y-68557501D01*
X72201777Y-68557496D01*
X72122471Y-68478190D01*
X72122466Y-68478187D01*
X72019868Y-68432886D01*
X71994786Y-68429976D01*
X71699992Y-68429976D01*
X71699992Y-68869976D01*
X71399992Y-68869976D01*
X71399992Y-68429976D01*
X71112686Y-68429976D01*
X71045647Y-68410291D01*
X71013421Y-68380289D01*
X71007538Y-68372430D01*
X71007536Y-68372428D01*
X71007535Y-68372427D01*
X70892327Y-68286182D01*
X70892320Y-68286178D01*
X70757478Y-68235886D01*
X70757477Y-68235885D01*
X70757475Y-68235885D01*
X70697865Y-68229476D01*
X70697855Y-68229476D01*
X70102121Y-68229476D01*
X70102115Y-68229477D01*
X70042508Y-68235884D01*
X69907663Y-68286178D01*
X69907656Y-68286182D01*
X69792447Y-68372428D01*
X69792444Y-68372431D01*
X69706198Y-68487640D01*
X69706194Y-68487647D01*
X69655900Y-68622493D01*
X69649493Y-68682092D01*
X69649492Y-68682111D01*
X69649492Y-68733812D01*
X69629807Y-68800851D01*
X69613173Y-68821493D01*
X69386510Y-69048157D01*
X69359582Y-69062860D01*
X69333764Y-69079453D01*
X69327563Y-69080344D01*
X69325187Y-69081642D01*
X69298829Y-69084476D01*
X69073992Y-69084476D01*
X69006953Y-69064791D01*
X68961198Y-69011987D01*
X68949992Y-68960476D01*
X68949992Y-67334761D01*
X69849993Y-67334761D01*
X69849994Y-67334784D01*
X69852900Y-67359845D01*
X69852901Y-67359849D01*
X69898203Y-67462450D01*
X69898206Y-67462455D01*
X69977512Y-67541761D01*
X69977517Y-67541764D01*
X70080115Y-67587065D01*
X70105198Y-67589975D01*
X70249991Y-67589975D01*
X70249992Y-67589974D01*
X70249992Y-67149976D01*
X69849993Y-67149976D01*
X69849993Y-67334761D01*
X68949992Y-67334761D01*
X68949992Y-66665181D01*
X69849992Y-66665181D01*
X69849992Y-66849976D01*
X70249992Y-66849976D01*
X70249992Y-66409976D01*
X70105206Y-66409976D01*
X70105183Y-66409978D01*
X70080122Y-66412884D01*
X70080118Y-66412885D01*
X69977517Y-66458187D01*
X69977512Y-66458190D01*
X69898206Y-66537496D01*
X69898203Y-66537501D01*
X69852902Y-66640098D01*
X69852902Y-66640100D01*
X69849992Y-66665181D01*
X68949992Y-66665181D01*
X68949992Y-66133976D01*
X68969677Y-66066937D01*
X69022481Y-66021182D01*
X69073992Y-66009976D01*
X70900492Y-66009976D01*
X70967531Y-66029661D01*
G37*
%TD.AperFunction*%
%TD*%
%TA.AperFunction,Conductor*%
%TO.N,GND*%
G36*
X58853031Y-67449661D02*
G01*
X58898786Y-67502465D01*
X58909992Y-67553976D01*
X58909992Y-68505976D01*
X58890307Y-68573015D01*
X58837503Y-68618770D01*
X58785992Y-68629976D01*
X56633992Y-68629976D01*
X56566953Y-68610291D01*
X56521198Y-68557487D01*
X56509992Y-68505976D01*
X56509992Y-67624476D01*
X56529677Y-67557437D01*
X56582481Y-67511682D01*
X56633992Y-67500476D01*
X57298263Y-67500476D01*
X57341596Y-67508294D01*
X57437509Y-67544067D01*
X57437508Y-67544067D01*
X57444436Y-67544811D01*
X57497119Y-67550476D01*
X58442864Y-67550475D01*
X58502475Y-67544067D01*
X58637323Y-67493772D01*
X58689504Y-67454709D01*
X58710250Y-67446971D01*
X58728879Y-67434999D01*
X58750794Y-67431847D01*
X58754966Y-67430292D01*
X58763814Y-67429976D01*
X58785992Y-67429976D01*
X58853031Y-67449661D01*
G37*
%TD.AperFunction*%
%TD*%
%TA.AperFunction,Conductor*%
%TO.N,GND*%
G36*
X91680539Y-48352185D02*
G01*
X91726294Y-48404989D01*
X91737500Y-48456500D01*
X91737500Y-52498500D01*
X91717815Y-52565539D01*
X91665011Y-52611294D01*
X91613500Y-52622500D01*
X90151500Y-52622500D01*
X90084461Y-52602815D01*
X90038706Y-52550011D01*
X90027500Y-52498500D01*
X90027500Y-48456500D01*
X90047185Y-48389461D01*
X90099989Y-48343706D01*
X90151500Y-48332500D01*
X91613500Y-48332500D01*
X91680539Y-48352185D01*
G37*
%TD.AperFunction*%
%TD*%
%TA.AperFunction,Conductor*%
%TO.N,GND*%
G36*
X87533039Y-65119685D02*
G01*
X87578794Y-65172489D01*
X87590000Y-65224000D01*
X87590000Y-66176000D01*
X87570315Y-66243039D01*
X87517511Y-66288794D01*
X87466000Y-66300000D01*
X85424500Y-66300000D01*
X85357461Y-66280315D01*
X85311706Y-66227511D01*
X85300500Y-66176000D01*
X85300500Y-65708331D01*
X85300499Y-65708318D01*
X85290436Y-65609816D01*
X85290436Y-65609815D01*
X85237549Y-65450213D01*
X85237545Y-65450206D01*
X85208461Y-65403053D01*
X85203765Y-65386495D01*
X85195023Y-65372892D01*
X85190000Y-65337957D01*
X85190000Y-65224000D01*
X85209685Y-65156961D01*
X85262489Y-65111206D01*
X85314000Y-65100000D01*
X87466000Y-65100000D01*
X87533039Y-65119685D01*
G37*
%TD.AperFunction*%
%TD*%
%TA.AperFunction,Conductor*%
%TO.N,GND*%
G36*
X66743031Y-55029661D02*
G01*
X66788786Y-55082465D01*
X66799992Y-55133976D01*
X66799992Y-56185976D01*
X66780307Y-56253015D01*
X66727503Y-56298770D01*
X66675992Y-56309976D01*
X64473992Y-56309976D01*
X64406953Y-56290291D01*
X64361198Y-56237487D01*
X64349992Y-56185976D01*
X64349992Y-55133976D01*
X64369677Y-55066937D01*
X64422481Y-55021182D01*
X64473992Y-55009976D01*
X66675992Y-55009976D01*
X66743031Y-55029661D01*
G37*
%TD.AperFunction*%
%TD*%
%TA.AperFunction,Conductor*%
%TO.N,GND*%
G36*
X87543039Y-69919685D02*
G01*
X87588794Y-69972489D01*
X87600000Y-70024000D01*
X87600000Y-70976000D01*
X87580315Y-71043039D01*
X87527511Y-71088794D01*
X87476000Y-71100000D01*
X85324000Y-71100000D01*
X85256961Y-71080315D01*
X85211206Y-71027511D01*
X85200000Y-70976000D01*
X85200000Y-70024000D01*
X85219685Y-69956961D01*
X85272489Y-69911206D01*
X85324000Y-69900000D01*
X87476000Y-69900000D01*
X87543039Y-69919685D01*
G37*
%TD.AperFunction*%
%TD*%
%TA.AperFunction,Conductor*%
%TO.N,GND*%
G36*
X70693031Y-73229661D02*
G01*
X70738786Y-73282465D01*
X70749992Y-73333976D01*
X70749992Y-74285976D01*
X70730307Y-74353015D01*
X70677503Y-74398770D01*
X70625992Y-74409976D01*
X68473992Y-74409976D01*
X68406953Y-74390291D01*
X68361198Y-74337487D01*
X68349992Y-74285976D01*
X68349992Y-73333976D01*
X68369677Y-73266937D01*
X68422481Y-73221182D01*
X68473992Y-73209976D01*
X70625992Y-73209976D01*
X70693031Y-73229661D01*
G37*
%TD.AperFunction*%
%TD*%
%TA.AperFunction,Conductor*%
%TO.N,/V12v*%
G36*
X73753106Y-39014999D02*
G01*
X73768104Y-39019403D01*
X73826855Y-39057148D01*
X73828042Y-39058517D01*
X73855518Y-39113378D01*
X73857163Y-39120936D01*
X73860000Y-39147307D01*
X73860000Y-55009976D01*
X78609286Y-55009976D01*
X78615541Y-55010134D01*
X78620178Y-55010368D01*
X78637553Y-55012555D01*
X78652816Y-55012016D01*
X78658127Y-55012285D01*
X78658932Y-55012566D01*
X78664088Y-55012729D01*
X78691822Y-55015476D01*
X78957118Y-55015476D01*
X78957119Y-55015476D01*
X79024840Y-55010331D01*
X79034232Y-55009976D01*
X81408421Y-55009976D01*
X81443356Y-55014999D01*
X81458354Y-55019403D01*
X81517080Y-55057118D01*
X81517604Y-55057722D01*
X81518313Y-55058540D01*
X81545791Y-55113328D01*
X81547417Y-55120769D01*
X81550276Y-55146983D01*
X81564076Y-61770442D01*
X81574695Y-66867889D01*
X81570188Y-66899708D01*
X81569746Y-66902830D01*
X81565374Y-66917837D01*
X81527724Y-66976695D01*
X81527710Y-66976707D01*
X81526395Y-66977851D01*
X81471499Y-67005435D01*
X81463826Y-67007113D01*
X81437335Y-67009976D01*
X80216001Y-67009976D01*
X80215998Y-67009975D01*
X80215997Y-67009976D01*
X80181062Y-67004952D01*
X80167744Y-67001041D01*
X80108967Y-66963265D01*
X80079946Y-66899715D01*
X80078906Y-66892483D01*
X80083256Y-66837948D01*
X80118582Y-66724582D01*
X80124992Y-66654048D01*
X80124992Y-66647476D01*
X78174993Y-66647476D01*
X78174993Y-66654066D01*
X78181398Y-66724563D01*
X78181399Y-66724575D01*
X78181401Y-66724584D01*
X78181405Y-66724599D01*
X78214893Y-66832065D01*
X78220491Y-66866909D01*
X78220720Y-66880785D01*
X78202144Y-66948140D01*
X78150111Y-66994756D01*
X78146007Y-66996712D01*
X78143514Y-66997901D01*
X78090142Y-67009976D01*
X77478089Y-67009976D01*
X77443155Y-67004953D01*
X77420602Y-66998331D01*
X77409896Y-66992316D01*
X77401310Y-66990869D01*
X77372094Y-66971078D01*
X77370400Y-66969537D01*
X77356356Y-66954441D01*
X76775132Y-66214701D01*
X76717148Y-66140903D01*
X78174992Y-66140903D01*
X78174992Y-66147476D01*
X78899992Y-66147476D01*
X79399992Y-66147476D01*
X80124991Y-66147476D01*
X80124991Y-66140893D01*
X80118583Y-66070373D01*
X80118582Y-66070368D01*
X80068010Y-65908079D01*
X80068009Y-65908077D01*
X79980068Y-65762603D01*
X79980067Y-65762602D01*
X79980065Y-65762600D01*
X79980064Y-65762598D01*
X79859869Y-65642403D01*
X79859868Y-65642402D01*
X79859867Y-65642401D01*
X79791414Y-65601020D01*
X79791410Y-65601018D01*
X79714387Y-65554456D01*
X79714388Y-65554456D01*
X79635930Y-65530008D01*
X79628788Y-65526746D01*
X79608298Y-65508991D01*
X79499373Y-65499094D01*
X79481564Y-65497476D01*
X79481563Y-65497476D01*
X79399992Y-65497476D01*
X79399992Y-66147476D01*
X78899992Y-66147476D01*
X78899992Y-65497476D01*
X78899991Y-65497475D01*
X78818409Y-65497475D01*
X78747896Y-65503882D01*
X78747872Y-65503888D01*
X78585599Y-65554455D01*
X78585593Y-65554457D01*
X78440119Y-65642398D01*
X78440118Y-65642399D01*
X78319917Y-65762599D01*
X78231972Y-65908079D01*
X78181399Y-66070376D01*
X78174993Y-66140893D01*
X78174992Y-66140903D01*
X76717148Y-66140903D01*
X76661728Y-66070369D01*
X76325469Y-65642403D01*
X75953069Y-65168439D01*
X75940599Y-65149117D01*
X75940417Y-65148769D01*
X75927711Y-65124376D01*
X75923137Y-65114571D01*
X75873612Y-64995007D01*
X75873610Y-64995004D01*
X75873608Y-64995000D01*
X75873604Y-64994993D01*
X75799685Y-64884367D01*
X75799684Y-64884366D01*
X75481730Y-64566413D01*
X75476669Y-64561040D01*
X75471756Y-64555502D01*
X75467012Y-64549821D01*
X75101839Y-64085056D01*
X74968179Y-63914943D01*
X72083848Y-60243976D01*
X75434492Y-60243976D01*
X75434492Y-63755976D01*
X75434493Y-63755985D01*
X75446044Y-63863426D01*
X75446046Y-63863438D01*
X75457252Y-63914948D01*
X75491375Y-64017473D01*
X75491378Y-64017479D01*
X75569163Y-64138513D01*
X75569171Y-64138524D01*
X75614915Y-64191316D01*
X75614918Y-64191319D01*
X75614922Y-64191323D01*
X75723656Y-64285543D01*
X75723659Y-64285544D01*
X75723660Y-64285545D01*
X75817917Y-64328592D01*
X75854533Y-64345314D01*
X75921572Y-64364999D01*
X75921576Y-64365000D01*
X76063992Y-64385476D01*
X77475982Y-64385476D01*
X77475992Y-64385476D01*
X77583448Y-64373923D01*
X77634959Y-64362717D01*
X77669189Y-64351323D01*
X77737489Y-64328592D01*
X77737493Y-64328589D01*
X77737496Y-64328589D01*
X77858535Y-64250801D01*
X77911339Y-64205046D01*
X78005559Y-64096312D01*
X78065330Y-63965435D01*
X78085015Y-63898396D01*
X78085016Y-63898392D01*
X78085015Y-63898392D01*
X78085725Y-63895978D01*
X78086945Y-63896336D01*
X78099081Y-63875578D01*
X78111106Y-63849250D01*
X78117803Y-63843554D01*
X78119736Y-63840249D01*
X78137780Y-63826138D01*
X78138678Y-63825560D01*
X78228036Y-63770444D01*
X78234486Y-63763993D01*
X78245703Y-63756785D01*
X78248299Y-63756022D01*
X78253300Y-63752277D01*
X78267025Y-63744782D01*
X78335291Y-63729926D01*
X78337104Y-63730055D01*
X78395299Y-63749423D01*
X78399737Y-63752275D01*
X78401810Y-63753607D01*
X78418813Y-63767309D01*
X78418937Y-63767167D01*
X78422254Y-63770043D01*
X78422259Y-63770048D01*
X78422263Y-63770051D01*
X78422271Y-63770056D01*
X78422278Y-63770061D01*
X78493501Y-63813992D01*
X78566499Y-63859018D01*
X78566510Y-63859023D01*
X78727385Y-63912331D01*
X78826675Y-63922475D01*
X79349992Y-63922475D01*
X79373288Y-63922475D01*
X79373300Y-63922475D01*
X79373314Y-63922474D01*
X79472599Y-63912331D01*
X79633473Y-63859023D01*
X79633484Y-63859018D01*
X79777720Y-63770051D01*
X79777724Y-63770048D01*
X79897564Y-63650208D01*
X79897567Y-63650204D01*
X79986534Y-63505968D01*
X79986539Y-63505957D01*
X80039847Y-63345082D01*
X80049991Y-63245798D01*
X80049992Y-63245785D01*
X80049992Y-63197476D01*
X79349992Y-63197476D01*
X79349992Y-63922475D01*
X78826675Y-63922475D01*
X78849992Y-63922474D01*
X78849992Y-62697476D01*
X79349992Y-62697476D01*
X80049991Y-62697476D01*
X80049991Y-62649168D01*
X80049990Y-62649153D01*
X80039847Y-62549868D01*
X79986539Y-62388994D01*
X79986534Y-62388983D01*
X79941508Y-62315985D01*
X79897577Y-62244762D01*
X79897572Y-62244755D01*
X79897567Y-62244747D01*
X79897564Y-62244743D01*
X79897561Y-62244740D01*
X79897559Y-62244737D01*
X79777727Y-62124905D01*
X79777702Y-62124888D01*
X79676349Y-62062373D01*
X79649254Y-62039761D01*
X79639971Y-62029440D01*
X79609775Y-61966436D01*
X79618434Y-61897107D01*
X79619796Y-61893974D01*
X79619848Y-61893855D01*
X79652342Y-61849592D01*
X79653575Y-61848523D01*
X79669704Y-61836676D01*
X79777720Y-61770051D01*
X79777724Y-61770048D01*
X79897564Y-61650208D01*
X79897567Y-61650204D01*
X79986534Y-61505968D01*
X79986539Y-61505957D01*
X80039847Y-61345082D01*
X80049991Y-61245798D01*
X80049992Y-61245785D01*
X80049992Y-61197476D01*
X79349992Y-61197476D01*
X79349992Y-62697476D01*
X78849992Y-62697476D01*
X78849992Y-60697476D01*
X79349992Y-60697476D01*
X80049991Y-60697476D01*
X80049991Y-60649168D01*
X80049990Y-60649153D01*
X80039847Y-60549868D01*
X79986539Y-60388994D01*
X79986534Y-60388983D01*
X79941508Y-60315985D01*
X79897577Y-60244762D01*
X79897572Y-60244755D01*
X79897567Y-60244747D01*
X79897564Y-60244743D01*
X79897561Y-60244740D01*
X79897559Y-60244737D01*
X79777729Y-60124907D01*
X79777726Y-60124905D01*
X79777725Y-60124904D01*
X79777724Y-60124903D01*
X79777720Y-60124900D01*
X79777714Y-60124896D01*
X79777704Y-60124889D01*
X79669982Y-60058445D01*
X79633484Y-60035933D01*
X79633482Y-60035932D01*
X79633468Y-60035925D01*
X79472596Y-59982619D01*
X79373319Y-59972476D01*
X79373314Y-59972476D01*
X79349992Y-59972476D01*
X79349992Y-60697476D01*
X78849992Y-60697476D01*
X78849992Y-59972475D01*
X78826697Y-59972475D01*
X78826678Y-59972476D01*
X78826677Y-59972476D01*
X78826653Y-59972478D01*
X78727386Y-59982619D01*
X78727385Y-59982619D01*
X78566514Y-60035925D01*
X78566500Y-60035932D01*
X78566497Y-60035934D01*
X78422272Y-60124893D01*
X78422262Y-60124900D01*
X78417519Y-60128789D01*
X78416919Y-60128058D01*
X78397374Y-60142682D01*
X78383659Y-60150171D01*
X78315386Y-60165023D01*
X78315339Y-60165020D01*
X78313531Y-60164890D01*
X78255390Y-60145528D01*
X78250961Y-60142682D01*
X78248883Y-60141346D01*
X78231443Y-60127290D01*
X78231358Y-60127389D01*
X78228638Y-60125030D01*
X78228225Y-60124697D01*
X78228036Y-60124508D01*
X78228032Y-60124505D01*
X78189209Y-60100558D01*
X78100071Y-60045576D01*
X78053347Y-59993627D01*
X78050109Y-59985615D01*
X78048606Y-59982473D01*
X77970820Y-59861438D01*
X77970817Y-59861433D01*
X77970812Y-59861427D01*
X77925068Y-59808635D01*
X77925064Y-59808632D01*
X77925062Y-59808629D01*
X77816328Y-59714409D01*
X77816325Y-59714407D01*
X77816323Y-59714406D01*
X77685457Y-59654640D01*
X77685452Y-59654638D01*
X77685451Y-59654638D01*
X77618412Y-59634953D01*
X77618414Y-59634953D01*
X77618409Y-59634952D01*
X77556339Y-59626028D01*
X77475992Y-59614476D01*
X77475990Y-59614476D01*
X76064002Y-59614476D01*
X76063992Y-59614476D01*
X76063983Y-59614476D01*
X76063982Y-59614477D01*
X75956541Y-59626028D01*
X75956529Y-59626030D01*
X75905019Y-59637236D01*
X75802494Y-59671359D01*
X75802488Y-59671362D01*
X75681454Y-59749147D01*
X75681443Y-59749155D01*
X75628651Y-59794899D01*
X75534425Y-59903640D01*
X75534422Y-59903644D01*
X75474656Y-60034510D01*
X75454968Y-60101558D01*
X75445470Y-60167622D01*
X75434492Y-60243976D01*
X72083848Y-60243976D01*
X66910705Y-53659976D01*
X66039380Y-53659976D01*
X66038332Y-53659972D01*
X66035700Y-53659949D01*
X66028161Y-53659565D01*
X66028158Y-53659637D01*
X66025006Y-53659476D01*
X66025001Y-53659476D01*
X66024995Y-53659476D01*
X65979654Y-53659476D01*
X65119262Y-53659476D01*
X65112504Y-53657491D01*
X65068077Y-53659756D01*
X65066938Y-53659815D01*
X65060626Y-53659976D01*
X56691822Y-53659976D01*
X56691817Y-53659975D01*
X56691815Y-53659976D01*
X56656881Y-53654951D01*
X56641882Y-53650546D01*
X56583136Y-53612803D01*
X56583107Y-53612769D01*
X56583106Y-53612769D01*
X56583105Y-53612767D01*
X56581949Y-53611434D01*
X56554469Y-53556559D01*
X56552824Y-53548997D01*
X56549992Y-53522644D01*
X56549992Y-52461073D01*
X58349992Y-52461073D01*
X58352888Y-52503802D01*
X58398821Y-52688494D01*
X58398824Y-52688502D01*
X58467262Y-52826494D01*
X58483382Y-52858998D01*
X58483384Y-52859001D01*
X58483389Y-52859007D01*
X58483393Y-52859013D01*
X58602615Y-53007331D01*
X58602624Y-53007342D01*
X58602635Y-53007351D01*
X58750953Y-53126573D01*
X58750956Y-53126575D01*
X58750966Y-53126583D01*
X58750969Y-53126585D01*
X58921468Y-53211144D01*
X59106167Y-53257078D01*
X59148895Y-53259976D01*
X59599992Y-53259976D01*
X60099992Y-53259976D01*
X60551086Y-53259976D01*
X60551089Y-53259976D01*
X60593816Y-53257078D01*
X60778515Y-53211144D01*
X60949014Y-53126585D01*
X60949017Y-53126583D01*
X61097358Y-53007343D01*
X61097359Y-53007342D01*
X61216599Y-52859001D01*
X61216601Y-52858998D01*
X61301160Y-52688499D01*
X61308255Y-52659971D01*
X64374993Y-52659971D01*
X64385485Y-52762670D01*
X64385485Y-52762671D01*
X64385486Y-52762673D01*
X64440633Y-52929095D01*
X64440635Y-52929100D01*
X64532676Y-53078321D01*
X64656646Y-53202291D01*
X64805867Y-53294332D01*
X64805872Y-53294334D01*
X64972291Y-53349480D01*
X64972292Y-53349480D01*
X64972294Y-53349481D01*
X64972301Y-53349482D01*
X65075011Y-53359975D01*
X65299991Y-53359975D01*
X65799992Y-53359975D01*
X66024952Y-53359975D01*
X66024964Y-53359975D01*
X66024978Y-53359974D01*
X66127689Y-53349481D01*
X66294111Y-53294334D01*
X66294116Y-53294332D01*
X66443337Y-53202291D01*
X66567307Y-53078321D01*
X66659348Y-52929100D01*
X66659350Y-52929095D01*
X66714497Y-52762673D01*
X66714498Y-52762666D01*
X66724991Y-52659962D01*
X66724992Y-52659949D01*
X66724992Y-52428573D01*
X69359992Y-52428573D01*
X69362888Y-52471302D01*
X69408821Y-52655994D01*
X69408824Y-52656002D01*
X69461726Y-52762670D01*
X69493382Y-52826498D01*
X69493384Y-52826501D01*
X69493389Y-52826507D01*
X69493393Y-52826513D01*
X69612615Y-52974831D01*
X69612624Y-52974842D01*
X69612635Y-52974851D01*
X69760953Y-53094073D01*
X69760956Y-53094075D01*
X69760966Y-53094083D01*
X69760969Y-53094085D01*
X69931468Y-53178644D01*
X70116167Y-53224578D01*
X70158895Y-53227476D01*
X70609992Y-53227476D01*
X71109992Y-53227476D01*
X71561086Y-53227476D01*
X71561089Y-53227476D01*
X71603816Y-53224578D01*
X71788515Y-53178644D01*
X71959014Y-53094085D01*
X71959017Y-53094083D01*
X72107358Y-52974843D01*
X72107359Y-52974842D01*
X72226599Y-52826501D01*
X72226601Y-52826498D01*
X72311160Y-52655999D01*
X72357094Y-52471300D01*
X72359992Y-52428572D01*
X72359992Y-52227476D01*
X71109992Y-52227476D01*
X71109992Y-53227476D01*
X70609992Y-53227476D01*
X70609992Y-52227476D01*
X69359992Y-52227476D01*
X69359992Y-52428573D01*
X66724992Y-52428573D01*
X66724992Y-52409976D01*
X65799992Y-52409976D01*
X65799992Y-53359975D01*
X65299991Y-53359975D01*
X65299992Y-53359974D01*
X65299992Y-52409976D01*
X64374993Y-52409976D01*
X64374993Y-52659971D01*
X61308255Y-52659971D01*
X61347094Y-52503800D01*
X61349992Y-52461072D01*
X61349992Y-52369566D01*
X61330476Y-52259976D01*
X61317884Y-52259976D01*
X60099992Y-52259976D01*
X60099992Y-53259976D01*
X59599992Y-53259976D01*
X59599992Y-52259976D01*
X58349992Y-52259976D01*
X58349992Y-52461073D01*
X56549992Y-52461073D01*
X56549992Y-51558879D01*
X58349992Y-51558879D01*
X58349992Y-51759976D01*
X59599992Y-51759976D01*
X60099992Y-51759976D01*
X61349992Y-51759976D01*
X61349992Y-51659983D01*
X64374992Y-51659983D01*
X64374992Y-51659989D01*
X64374992Y-51909976D01*
X65299992Y-51909976D01*
X65799992Y-51909976D01*
X66724991Y-51909976D01*
X66724991Y-51660004D01*
X66724990Y-51659989D01*
X66714498Y-51557280D01*
X66704258Y-51526379D01*
X69359992Y-51526379D01*
X69359992Y-51727476D01*
X70609992Y-51727476D01*
X71109992Y-51727476D01*
X72359992Y-51727476D01*
X72359992Y-51526379D01*
X72357094Y-51483651D01*
X72311160Y-51298952D01*
X72226601Y-51128453D01*
X72226599Y-51128450D01*
X72143939Y-51025617D01*
X72107367Y-50980119D01*
X72107358Y-50980108D01*
X72107347Y-50980099D01*
X71959029Y-50860877D01*
X71959023Y-50860873D01*
X71959017Y-50860868D01*
X71959014Y-50860866D01*
X71854042Y-50808805D01*
X71788518Y-50776308D01*
X71788510Y-50776305D01*
X71603818Y-50730372D01*
X71561090Y-50727476D01*
X71561089Y-50727476D01*
X71109992Y-50727476D01*
X71109992Y-51727476D01*
X70609992Y-51727476D01*
X70609992Y-50727476D01*
X70158893Y-50727476D01*
X70116164Y-50730372D01*
X69931472Y-50776305D01*
X69931464Y-50776308D01*
X69760972Y-50860864D01*
X69760969Y-50860866D01*
X69760953Y-50860877D01*
X69612635Y-50980099D01*
X69612624Y-50980108D01*
X69612615Y-50980119D01*
X69493393Y-51128437D01*
X69493382Y-51128453D01*
X69493380Y-51128456D01*
X69408824Y-51298948D01*
X69408821Y-51298956D01*
X69362888Y-51483648D01*
X69360685Y-51516151D01*
X69359992Y-51526379D01*
X66704258Y-51526379D01*
X66659350Y-51390856D01*
X66659348Y-51390851D01*
X66567307Y-51241630D01*
X66443337Y-51117660D01*
X66294116Y-51025619D01*
X66294111Y-51025617D01*
X66254853Y-51012608D01*
X66127691Y-50970470D01*
X66127686Y-50970469D01*
X66024983Y-50959976D01*
X66024978Y-50959976D01*
X65799992Y-50959976D01*
X65799992Y-51909976D01*
X65299992Y-51909976D01*
X65299992Y-50959976D01*
X65075029Y-50959976D01*
X65075021Y-50959976D01*
X65075011Y-50959976D01*
X65074998Y-50959977D01*
X64972296Y-50970469D01*
X64972294Y-50970470D01*
X64805879Y-51025614D01*
X64805871Y-51025617D01*
X64805869Y-51025618D01*
X64805867Y-51025619D01*
X64706386Y-51086979D01*
X64656644Y-51117661D01*
X64532677Y-51241628D01*
X64532676Y-51241630D01*
X64477271Y-51331456D01*
X64440633Y-51390855D01*
X64440630Y-51390864D01*
X64385486Y-51557275D01*
X64385485Y-51557280D01*
X64374992Y-51659983D01*
X61349992Y-51659983D01*
X61349992Y-51558879D01*
X61347094Y-51516151D01*
X61301160Y-51331452D01*
X61216601Y-51160953D01*
X61216599Y-51160950D01*
X61190464Y-51128437D01*
X61097367Y-51012619D01*
X61097358Y-51012608D01*
X61097347Y-51012599D01*
X60949029Y-50893377D01*
X60949023Y-50893373D01*
X60949017Y-50893368D01*
X60949014Y-50893366D01*
X60949010Y-50893364D01*
X60778518Y-50808808D01*
X60778510Y-50808805D01*
X60593818Y-50762872D01*
X60551090Y-50759976D01*
X60551089Y-50759976D01*
X60099992Y-50759976D01*
X60099992Y-51759976D01*
X59599992Y-51759976D01*
X59599992Y-50759976D01*
X59148893Y-50759976D01*
X59106164Y-50762872D01*
X58921472Y-50808805D01*
X58921464Y-50808808D01*
X58750972Y-50893364D01*
X58750969Y-50893366D01*
X58750953Y-50893377D01*
X58602635Y-51012599D01*
X58602624Y-51012608D01*
X58602615Y-51012619D01*
X58483393Y-51160937D01*
X58483382Y-51160953D01*
X58483380Y-51160956D01*
X58398824Y-51331448D01*
X58398821Y-51331456D01*
X58352888Y-51516148D01*
X58350100Y-51557280D01*
X58349992Y-51558879D01*
X56549992Y-51558879D01*
X56549992Y-48534971D01*
X58699993Y-48534971D01*
X58710485Y-48637670D01*
X58710485Y-48637671D01*
X58710486Y-48637673D01*
X58710589Y-48637983D01*
X58748061Y-48751068D01*
X58765633Y-48804095D01*
X58765635Y-48804100D01*
X58857676Y-48953321D01*
X58981646Y-49077291D01*
X59130867Y-49169332D01*
X59130872Y-49169334D01*
X59297291Y-49224480D01*
X59297292Y-49224480D01*
X59297294Y-49224481D01*
X59297301Y-49224482D01*
X59400011Y-49234975D01*
X59649991Y-49234975D01*
X60149992Y-49234975D01*
X60399952Y-49234975D01*
X60399964Y-49234975D01*
X60399978Y-49234974D01*
X60502689Y-49224481D01*
X60669111Y-49169334D01*
X60669116Y-49169332D01*
X60818337Y-49077291D01*
X60942307Y-48953321D01*
X61034348Y-48804100D01*
X61034350Y-48804095D01*
X61089497Y-48637673D01*
X61089498Y-48637666D01*
X61099991Y-48534962D01*
X61099992Y-48534949D01*
X61099992Y-48309976D01*
X60149992Y-48309976D01*
X60149992Y-49234975D01*
X59649991Y-49234975D01*
X59649992Y-49234974D01*
X59649992Y-48309976D01*
X58699993Y-48309976D01*
X58699993Y-48534971D01*
X56549992Y-48534971D01*
X56549992Y-47584983D01*
X58699992Y-47584983D01*
X58699992Y-47584989D01*
X58699992Y-47809976D01*
X59649992Y-47809976D01*
X60149992Y-47809976D01*
X61099991Y-47809976D01*
X61099991Y-47585000D01*
X61099990Y-47584992D01*
X61099986Y-47584949D01*
X61399492Y-47584949D01*
X61399492Y-48534974D01*
X61399495Y-48535021D01*
X61403999Y-48579107D01*
X61409992Y-48637772D01*
X61409993Y-48637775D01*
X61447535Y-48751068D01*
X61465178Y-48804310D01*
X61557280Y-48953632D01*
X61681336Y-49077688D01*
X61830658Y-49169790D01*
X61997195Y-49224975D01*
X62099983Y-49235476D01*
X62204713Y-49235475D01*
X62271751Y-49255159D01*
X62317507Y-49307962D01*
X62322367Y-49320316D01*
X62351375Y-49407473D01*
X62351378Y-49407479D01*
X62429163Y-49528513D01*
X62429171Y-49528524D01*
X62474915Y-49581316D01*
X62474918Y-49581319D01*
X62474922Y-49581323D01*
X62583656Y-49675543D01*
X62583659Y-49675544D01*
X62583660Y-49675545D01*
X62677917Y-49718592D01*
X62714533Y-49735314D01*
X62781572Y-49754999D01*
X62781576Y-49755000D01*
X62923992Y-49775476D01*
X63875982Y-49775476D01*
X63875992Y-49775476D01*
X63983448Y-49763923D01*
X64034959Y-49752717D01*
X64069189Y-49741323D01*
X64137489Y-49718592D01*
X64137493Y-49718589D01*
X64137496Y-49718589D01*
X64258535Y-49640801D01*
X64311339Y-49595046D01*
X64405559Y-49486312D01*
X64465330Y-49355435D01*
X64485015Y-49288396D01*
X64485016Y-49288392D01*
X64505492Y-49145976D01*
X64505492Y-46993976D01*
X64493939Y-46886520D01*
X64482733Y-46835009D01*
X64469554Y-46795413D01*
X64448608Y-46732478D01*
X64448605Y-46732472D01*
X64370820Y-46611438D01*
X64370817Y-46611433D01*
X64370812Y-46611427D01*
X64325068Y-46558635D01*
X64325064Y-46558632D01*
X64325062Y-46558629D01*
X64216328Y-46464409D01*
X64216325Y-46464407D01*
X64216323Y-46464406D01*
X64085457Y-46404640D01*
X64085452Y-46404638D01*
X64085451Y-46404638D01*
X64018412Y-46384953D01*
X64018414Y-46384953D01*
X64018409Y-46384952D01*
X63956339Y-46376028D01*
X63875992Y-46364476D01*
X63875990Y-46364476D01*
X62924002Y-46364476D01*
X62923992Y-46364476D01*
X62923983Y-46364476D01*
X62923982Y-46364477D01*
X62816541Y-46376028D01*
X62816529Y-46376030D01*
X62765019Y-46387236D01*
X62662494Y-46421359D01*
X62662488Y-46421362D01*
X62541454Y-46499147D01*
X62541443Y-46499155D01*
X62488651Y-46544899D01*
X62394425Y-46653640D01*
X62394422Y-46653644D01*
X62334653Y-46784516D01*
X62331454Y-46795413D01*
X62293679Y-46854191D01*
X62230123Y-46883214D01*
X62212478Y-46884476D01*
X62099990Y-46884476D01*
X62099972Y-46884477D01*
X62099964Y-46884477D01*
X62099945Y-46884479D01*
X61997189Y-46894976D01*
X61997185Y-46894977D01*
X61997024Y-46895032D01*
X61830659Y-46950161D01*
X61830657Y-46950162D01*
X61830655Y-46950163D01*
X61829916Y-46950619D01*
X61681332Y-47042266D01*
X61557282Y-47166316D01*
X61526580Y-47216091D01*
X61495812Y-47265976D01*
X61465177Y-47315643D01*
X61465170Y-47315661D01*
X61451982Y-47355460D01*
X61451982Y-47355465D01*
X61420291Y-47451099D01*
X61411844Y-47464043D01*
X61410357Y-47478606D01*
X61409534Y-47484857D01*
X61409351Y-47488452D01*
X61399492Y-47584949D01*
X61099986Y-47584949D01*
X61089497Y-47482278D01*
X61034350Y-47315856D01*
X61034348Y-47315851D01*
X60942307Y-47166630D01*
X60818337Y-47042660D01*
X60669116Y-46950619D01*
X60669111Y-46950617D01*
X60667735Y-46950161D01*
X60502691Y-46895470D01*
X60502686Y-46895469D01*
X60399983Y-46884976D01*
X60399978Y-46884976D01*
X60149992Y-46884976D01*
X60149992Y-47809976D01*
X59649992Y-47809976D01*
X59649992Y-46884976D01*
X59400029Y-46884976D01*
X59400021Y-46884976D01*
X59400011Y-46884976D01*
X59399998Y-46884977D01*
X59297296Y-46895469D01*
X59297294Y-46895470D01*
X59130879Y-46950614D01*
X59130871Y-46950617D01*
X59130869Y-46950618D01*
X59130867Y-46950619D01*
X59031386Y-47011979D01*
X58981644Y-47042661D01*
X58857677Y-47166628D01*
X58857676Y-47166630D01*
X58765753Y-47315661D01*
X58765633Y-47315855D01*
X58765630Y-47315864D01*
X58710486Y-47482275D01*
X58710485Y-47482280D01*
X58699992Y-47584983D01*
X56549992Y-47584983D01*
X56549992Y-45743976D01*
X68384492Y-45743976D01*
X68384492Y-47265976D01*
X68384493Y-47265985D01*
X68396044Y-47373426D01*
X68396046Y-47373438D01*
X68407252Y-47424948D01*
X68441375Y-47527473D01*
X68441378Y-47527479D01*
X68519163Y-47648513D01*
X68519171Y-47648524D01*
X68564915Y-47701316D01*
X68564918Y-47701319D01*
X68564922Y-47701323D01*
X68673656Y-47795543D01*
X68673659Y-47795544D01*
X68673660Y-47795545D01*
X68767917Y-47838592D01*
X68804533Y-47855314D01*
X68871572Y-47874999D01*
X68871576Y-47875000D01*
X69013992Y-47895476D01*
X69271449Y-47895476D01*
X69338488Y-47915161D01*
X69384243Y-47967965D01*
X69391782Y-47989545D01*
X69408352Y-48056172D01*
X69436403Y-48112733D01*
X69492956Y-48226764D01*
X69492958Y-48226767D01*
X69492959Y-48226768D01*
X69492961Y-48226771D01*
X69612269Y-48375197D01*
X69612270Y-48375198D01*
X69760696Y-48494506D01*
X69760699Y-48494508D01*
X69931294Y-48579115D01*
X69931295Y-48579115D01*
X69931299Y-48579117D01*
X69931300Y-48579117D01*
X69931320Y-48579127D01*
X69932009Y-48579293D01*
X70028692Y-48603337D01*
X70116098Y-48625075D01*
X70116099Y-48625075D01*
X70116103Y-48625076D01*
X70158869Y-48627976D01*
X71561114Y-48627975D01*
X71603881Y-48625076D01*
X71788685Y-48579117D01*
X71959288Y-48494506D01*
X72107714Y-48375198D01*
X72227022Y-48226772D01*
X72311633Y-48056169D01*
X72328201Y-47989548D01*
X72363482Y-47929243D01*
X72425768Y-47897584D01*
X72448535Y-47895476D01*
X72625982Y-47895476D01*
X72625992Y-47895476D01*
X72733448Y-47883923D01*
X72784959Y-47872717D01*
X72819189Y-47861323D01*
X72887489Y-47838592D01*
X72887493Y-47838589D01*
X72887496Y-47838589D01*
X73008535Y-47760801D01*
X73061339Y-47715046D01*
X73155559Y-47606312D01*
X73215330Y-47475435D01*
X73235015Y-47408396D01*
X73235016Y-47408392D01*
X73255492Y-47265976D01*
X73255492Y-45743976D01*
X73243939Y-45636520D01*
X73232733Y-45585009D01*
X73232629Y-45584698D01*
X73198608Y-45482478D01*
X73198605Y-45482472D01*
X73120820Y-45361438D01*
X73120817Y-45361433D01*
X73120812Y-45361427D01*
X73075068Y-45308635D01*
X73075064Y-45308632D01*
X73075062Y-45308629D01*
X72966328Y-45214409D01*
X72966325Y-45214407D01*
X72966323Y-45214406D01*
X72835457Y-45154640D01*
X72835452Y-45154638D01*
X72835451Y-45154638D01*
X72768412Y-45134953D01*
X72768414Y-45134953D01*
X72768409Y-45134952D01*
X72706339Y-45126028D01*
X72625992Y-45114476D01*
X72625990Y-45114476D01*
X69014002Y-45114476D01*
X69013992Y-45114476D01*
X69013983Y-45114476D01*
X69013982Y-45114477D01*
X68906541Y-45126028D01*
X68906529Y-45126030D01*
X68855019Y-45137236D01*
X68752494Y-45171359D01*
X68752488Y-45171362D01*
X68631454Y-45249147D01*
X68631443Y-45249155D01*
X68578651Y-45294899D01*
X68484425Y-45403640D01*
X68484422Y-45403644D01*
X68424656Y-45534510D01*
X68404968Y-45601558D01*
X68399941Y-45636525D01*
X68384492Y-45743976D01*
X56549992Y-45743976D01*
X56549992Y-45109976D01*
X54633289Y-45109976D01*
X54633287Y-45109975D01*
X54633287Y-45109976D01*
X54598353Y-45104953D01*
X54570393Y-45096743D01*
X54539490Y-45080974D01*
X54538943Y-45081907D01*
X54330180Y-44959400D01*
X54239824Y-44925302D01*
X54111118Y-44876731D01*
X54111116Y-44876730D01*
X54106191Y-44874872D01*
X54106240Y-44874739D01*
X54092786Y-44868953D01*
X54084623Y-44864738D01*
X54081023Y-44861301D01*
X54077495Y-44859600D01*
X54070793Y-44854802D01*
X54060691Y-44841889D01*
X54034087Y-44816490D01*
X54031072Y-44804030D01*
X54027741Y-44799772D01*
X54026305Y-44784322D01*
X54017658Y-44748579D01*
X54021857Y-44736470D01*
X54021275Y-44730202D01*
X54029593Y-44714165D01*
X54040553Y-44682567D01*
X54049719Y-44675368D01*
X54053448Y-44668180D01*
X54073600Y-44656612D01*
X54095502Y-44639412D01*
X54095557Y-44639390D01*
X54097018Y-44638807D01*
X54108447Y-44636610D01*
X54114045Y-44633398D01*
X54122864Y-44633840D01*
X54142975Y-44629976D01*
X55609992Y-44629976D01*
X55609992Y-43992226D01*
X55629677Y-43925187D01*
X55682481Y-43879432D01*
X55751639Y-43869488D01*
X55766085Y-43872451D01*
X55794166Y-43879976D01*
X55925817Y-43879976D01*
X55925818Y-43879976D01*
X55953897Y-43872452D01*
X56023747Y-43874113D01*
X56081610Y-43913275D01*
X56109115Y-43977503D01*
X56109992Y-43992226D01*
X56109992Y-44629976D01*
X57657820Y-44629976D01*
X57657828Y-44629976D01*
X57657839Y-44629975D01*
X57693552Y-44626134D01*
X57717364Y-44623574D01*
X57717371Y-44623572D01*
X57852078Y-44573330D01*
X57852085Y-44573326D01*
X57967179Y-44487166D01*
X57967182Y-44487163D01*
X58053342Y-44372069D01*
X58053346Y-44372062D01*
X58103588Y-44237355D01*
X58103590Y-44237348D01*
X58105061Y-44223665D01*
X58109990Y-44177836D01*
X58109992Y-44177803D01*
X58109992Y-43858307D01*
X59614993Y-43858307D01*
X59625136Y-43957584D01*
X59678443Y-44118454D01*
X59678448Y-44118466D01*
X59678450Y-44118469D01*
X59767405Y-44262688D01*
X59767412Y-44262698D01*
X59767416Y-44262704D01*
X59767419Y-44262708D01*
X59767421Y-44262710D01*
X59767423Y-44262713D01*
X59887253Y-44382543D01*
X59887256Y-44382545D01*
X59887259Y-44382548D01*
X59887263Y-44382551D01*
X59887271Y-44382556D01*
X59887278Y-44382561D01*
X59958501Y-44426492D01*
X60031499Y-44471518D01*
X60031510Y-44471523D01*
X60192385Y-44524831D01*
X60291675Y-44534975D01*
X60314992Y-44534974D01*
X60314992Y-43809976D01*
X59614993Y-43809976D01*
X59614993Y-43858307D01*
X58109992Y-43858307D01*
X58109992Y-43261647D01*
X59614992Y-43261647D01*
X59614992Y-43261653D01*
X59614992Y-43309976D01*
X60314992Y-43309976D01*
X60314992Y-42584976D01*
X60814992Y-42584976D01*
X60814992Y-44534975D01*
X60838288Y-44534975D01*
X60838300Y-44534975D01*
X60838314Y-44534974D01*
X60937599Y-44524831D01*
X61098473Y-44471523D01*
X61098484Y-44471518D01*
X61242723Y-44382549D01*
X61242726Y-44382545D01*
X61248391Y-44378068D01*
X61248930Y-44378750D01*
X61267595Y-44364777D01*
X61272829Y-44361919D01*
X61281317Y-44357282D01*
X61349586Y-44342426D01*
X61351398Y-44342555D01*
X61409584Y-44361918D01*
X61416098Y-44366104D01*
X61433539Y-44380160D01*
X61433625Y-44380062D01*
X61436341Y-44382418D01*
X61436757Y-44382753D01*
X61436947Y-44382943D01*
X61436951Y-44382946D01*
X61436957Y-44382949D01*
X61436966Y-44382956D01*
X61579439Y-44470835D01*
X61581286Y-44471974D01*
X61581289Y-44471975D01*
X61581295Y-44471979D01*
X61624495Y-44486293D01*
X61681939Y-44526063D01*
X61708764Y-44590578D01*
X61709492Y-44603999D01*
X61709492Y-44635976D01*
X61709493Y-44635985D01*
X61721044Y-44743426D01*
X61721046Y-44743438D01*
X61732252Y-44794948D01*
X61766375Y-44897473D01*
X61766378Y-44897479D01*
X61844163Y-45018513D01*
X61844171Y-45018524D01*
X61889915Y-45071316D01*
X61889918Y-45071319D01*
X61889922Y-45071323D01*
X61998656Y-45165543D01*
X61998659Y-45165544D01*
X61998660Y-45165545D01*
X62092917Y-45208592D01*
X62129533Y-45225314D01*
X62196572Y-45244999D01*
X62196576Y-45245000D01*
X62338992Y-45265476D01*
X63290982Y-45265476D01*
X63290992Y-45265476D01*
X63398448Y-45253923D01*
X63449959Y-45242717D01*
X63484189Y-45231323D01*
X63552489Y-45208592D01*
X63552493Y-45208589D01*
X63552496Y-45208589D01*
X63673535Y-45130801D01*
X63726339Y-45085046D01*
X63820559Y-44976312D01*
X63880330Y-44845435D01*
X63900015Y-44778396D01*
X63900016Y-44778392D01*
X63920492Y-44635976D01*
X63920492Y-42483976D01*
X63908939Y-42376520D01*
X63897733Y-42325009D01*
X63897629Y-42324698D01*
X63863608Y-42222478D01*
X63863605Y-42222472D01*
X63785820Y-42101438D01*
X63785817Y-42101433D01*
X63785812Y-42101427D01*
X63740068Y-42048635D01*
X63740064Y-42048632D01*
X63740062Y-42048629D01*
X63631328Y-41954409D01*
X63631325Y-41954407D01*
X63631323Y-41954406D01*
X63500457Y-41894640D01*
X63500452Y-41894638D01*
X63500451Y-41894638D01*
X63433412Y-41874953D01*
X63433414Y-41874953D01*
X63433409Y-41874952D01*
X63371339Y-41866028D01*
X63290992Y-41854476D01*
X63290990Y-41854476D01*
X62339002Y-41854476D01*
X62338992Y-41854476D01*
X62338983Y-41854476D01*
X62338982Y-41854477D01*
X62231541Y-41866028D01*
X62231529Y-41866030D01*
X62180019Y-41877236D01*
X62077494Y-41911359D01*
X62077488Y-41911362D01*
X61956454Y-41989147D01*
X61956443Y-41989155D01*
X61903651Y-42034899D01*
X61809425Y-42143640D01*
X61809422Y-42143644D01*
X61749656Y-42274510D01*
X61729968Y-42341558D01*
X61724941Y-42376525D01*
X61709494Y-42483966D01*
X61709492Y-42483977D01*
X61709492Y-42515951D01*
X61689807Y-42582990D01*
X61637003Y-42628745D01*
X61624496Y-42633657D01*
X61581299Y-42647971D01*
X61581287Y-42647976D01*
X61581284Y-42647978D01*
X61436960Y-42736998D01*
X61436951Y-42737004D01*
X61432207Y-42740894D01*
X61431657Y-42740223D01*
X61411667Y-42755182D01*
X61397952Y-42762671D01*
X61329679Y-42777523D01*
X61329632Y-42777520D01*
X61327824Y-42777390D01*
X61269683Y-42758028D01*
X61265254Y-42755182D01*
X61263176Y-42753846D01*
X61246170Y-42740140D01*
X61246046Y-42740284D01*
X61242726Y-42737405D01*
X61242724Y-42737403D01*
X61242720Y-42737400D01*
X61242714Y-42737396D01*
X61242704Y-42737389D01*
X61134982Y-42670945D01*
X61098484Y-42648433D01*
X61098482Y-42648432D01*
X61098468Y-42648425D01*
X60937596Y-42595119D01*
X60838319Y-42584976D01*
X60838314Y-42584976D01*
X60814992Y-42584976D01*
X60314992Y-42584976D01*
X60314992Y-42584975D01*
X60291697Y-42584975D01*
X60291678Y-42584976D01*
X60291677Y-42584976D01*
X60291653Y-42584978D01*
X60192386Y-42595119D01*
X60192385Y-42595119D01*
X60031514Y-42648425D01*
X60031500Y-42648432D01*
X60031497Y-42648434D01*
X59887278Y-42737389D01*
X59887256Y-42737405D01*
X59887253Y-42737407D01*
X59767423Y-42857237D01*
X59767421Y-42857240D01*
X59767405Y-42857262D01*
X59678450Y-43001481D01*
X59678448Y-43001484D01*
X59678441Y-43001498D01*
X59625135Y-43162370D01*
X59614992Y-43261647D01*
X58109992Y-43261647D01*
X58109992Y-42629976D01*
X56483992Y-42629976D01*
X56416953Y-42610291D01*
X56371198Y-42557487D01*
X56359992Y-42505976D01*
X56359992Y-42253976D01*
X56379677Y-42186937D01*
X56432481Y-42141182D01*
X56483992Y-42129976D01*
X58109992Y-42129976D01*
X58109992Y-40582148D01*
X58109990Y-40582114D01*
X58103590Y-40522604D01*
X58103588Y-40522597D01*
X58103588Y-40522596D01*
X58053346Y-40387889D01*
X58053342Y-40387882D01*
X57967182Y-40272788D01*
X57967179Y-40272785D01*
X57967177Y-40272783D01*
X57909309Y-40229463D01*
X57852085Y-40186625D01*
X57852080Y-40186622D01*
X57852081Y-40186622D01*
X57717369Y-40136378D01*
X57717362Y-40136376D01*
X57657844Y-40129976D01*
X57657836Y-40129976D01*
X56109992Y-40129976D01*
X56109992Y-40767725D01*
X56090307Y-40834764D01*
X56037503Y-40880519D01*
X55968345Y-40890463D01*
X55953900Y-40887500D01*
X55925820Y-40879976D01*
X55925818Y-40879976D01*
X55794166Y-40879976D01*
X55794163Y-40879976D01*
X55766084Y-40887500D01*
X55696234Y-40885837D01*
X55638372Y-40846674D01*
X55610869Y-40782445D01*
X55609992Y-40767725D01*
X55609992Y-40129976D01*
X54062147Y-40129976D01*
X54062138Y-40129976D01*
X54002620Y-40136376D01*
X54002613Y-40136378D01*
X53867902Y-40186622D01*
X53867899Y-40186624D01*
X53752805Y-40272783D01*
X53752799Y-40272789D01*
X53666640Y-40387883D01*
X53666638Y-40387886D01*
X53616394Y-40522597D01*
X53616392Y-40522604D01*
X53609992Y-40582122D01*
X53609992Y-40582131D01*
X53609992Y-42129976D01*
X55235992Y-42129976D01*
X55303031Y-42149661D01*
X55348786Y-42202465D01*
X55359992Y-42253976D01*
X55359992Y-42505976D01*
X55340307Y-42573015D01*
X55287503Y-42618770D01*
X55235992Y-42629976D01*
X53609992Y-42629976D01*
X53609992Y-44177828D01*
X53616392Y-44237346D01*
X53616394Y-44237353D01*
X53625849Y-44262704D01*
X53666637Y-44372062D01*
X53666641Y-44372069D01*
X53674784Y-44382946D01*
X53752799Y-44487161D01*
X53752801Y-44487163D01*
X53752804Y-44487166D01*
X53867898Y-44573326D01*
X53867903Y-44573329D01*
X53867906Y-44573330D01*
X53899893Y-44585261D01*
X53908119Y-44591419D01*
X53930868Y-44602174D01*
X53933305Y-44603999D01*
X53936195Y-44606162D01*
X53946878Y-44620434D01*
X53955826Y-44627132D01*
X53959731Y-44637603D01*
X53978066Y-44662096D01*
X53983050Y-44731787D01*
X53949565Y-44793110D01*
X53906028Y-44817140D01*
X53896276Y-44824046D01*
X53893273Y-44824180D01*
X53889344Y-44826350D01*
X53883496Y-44827678D01*
X53849460Y-44830582D01*
X53828701Y-44829479D01*
X53828626Y-44829476D01*
X53828621Y-44829476D01*
X53828620Y-44829476D01*
X52691822Y-44829476D01*
X52691817Y-44829475D01*
X52691815Y-44829476D01*
X52656881Y-44824451D01*
X52641882Y-44820046D01*
X52583136Y-44782303D01*
X52583107Y-44782269D01*
X52583106Y-44782269D01*
X52583105Y-44782267D01*
X52581949Y-44780934D01*
X52554469Y-44726059D01*
X52552824Y-44718497D01*
X52549992Y-44692144D01*
X52549992Y-39151805D01*
X52555015Y-39116869D01*
X52559419Y-39101871D01*
X52597164Y-39043120D01*
X52597192Y-39043095D01*
X52597191Y-39043095D01*
X52598533Y-39041932D01*
X52653412Y-39014453D01*
X52660971Y-39012809D01*
X52687324Y-39009976D01*
X73718170Y-39009976D01*
X73753106Y-39014999D01*
G37*
%TD.AperFunction*%
%TD*%
%TA.AperFunction,Conductor*%
%TO.N,GND*%
G36*
X51623378Y-62679661D02*
G01*
X51669133Y-62732465D01*
X51680339Y-62783976D01*
X51680339Y-65505976D01*
X51660654Y-65573015D01*
X51607850Y-65618770D01*
X51556339Y-65629976D01*
X47304500Y-65629976D01*
X47237461Y-65610291D01*
X47191706Y-65557487D01*
X47180500Y-65505976D01*
X47180500Y-62783976D01*
X47200185Y-62716937D01*
X47252989Y-62671182D01*
X47304500Y-62659976D01*
X51556339Y-62659976D01*
X51623378Y-62679661D01*
G37*
%TD.AperFunction*%
%TD*%
%TA.AperFunction,Conductor*%
%TO.N,GND*%
G36*
X102832539Y-69319685D02*
G01*
X102878294Y-69372489D01*
X102889500Y-69424000D01*
X102889500Y-72146000D01*
X102869815Y-72213039D01*
X102817011Y-72258794D01*
X102765500Y-72270000D01*
X98524000Y-72270000D01*
X98456961Y-72250315D01*
X98411206Y-72197511D01*
X98400000Y-72146000D01*
X98400000Y-69424000D01*
X98419685Y-69356961D01*
X98472489Y-69311206D01*
X98524000Y-69300000D01*
X102765500Y-69300000D01*
X102832539Y-69319685D01*
G37*
%TD.AperFunction*%
%TD*%
M02*
