M48
; DRILL file KiCad 10.0.4 date 2026-07-09T13:32:50
; FORMAT={-:-/ absolute / metric / decimal}
; #@! TF.CreationDate,2026-07-09T13:32:50+02:00
; #@! TF.GenerationSoftware,Kicad,Pcbnew,10.0.4
; #@! TF.FileFunction,MixedPlating,1,2
FMAT,2
METRIC
; #@! TA.AperFunction,Plated,PTH,ViaDrill
T1C0.300
; #@! TA.AperFunction,Plated,PTH,ComponentDrill
T2C1.000
; #@! TA.AperFunction,NonPlated,NPTH,ComponentDrill
T3C2.000
%
G90
G05
T1
X47.52Y-68.58
X47.52Y-70.72
X47.55Y-63.0
X47.55Y-65.14
X48.35Y-68.57
X48.35Y-70.71
X48.38Y-62.99
X48.38Y-65.13
X49.23Y-68.6
X49.23Y-70.74
X49.26Y-63.02
X49.26Y-65.16
X49.28Y-59.12
X49.3Y-58.24
X49.3Y-60.01
X49.3Y-60.76
X50.21Y-68.58
X50.21Y-70.72
X50.24Y-63.0
X50.24Y-65.14
X51.2Y-68.58
X51.2Y-70.72
X51.23Y-63.0
X51.23Y-65.14
X51.25Y-69.65
X51.28Y-64.07
X56.81Y-68.23
X57.04Y-62.06
X57.06Y-61.18
X57.06Y-62.95
X57.06Y-63.7
X57.71Y-68.23
X58.21Y-57.01
X58.3Y-57.76
X58.51Y-68.23
X59.8Y-57.79
X61.3Y-57.76
X61.55Y-56.9
X63.015Y-42.76
X63.015Y-43.56
X63.015Y-44.46
X63.6Y-47.27
X63.6Y-48.07
X63.6Y-48.97
X64.8Y-55.91
X65.55Y-55.96
X66.35Y-55.91
X68.65Y-74.01
X69.35Y-47.0
X69.36Y-46.04
X69.45Y-68.01
X69.55Y-67.01
X69.55Y-74.01
X70.35Y-68.01
X70.35Y-74.01
X70.75Y-46.11
X71.55Y-68.11
X71.55Y-70.01
X72.27Y-46.09
X72.34Y-47.03
X72.55Y-68.11
X72.65Y-69.11
X73.58Y-69.69
X73.92Y-69.04
X74.42Y-69.68
X75.52Y-69.68
X76.4Y-60.61
X76.4Y-61.46
X76.4Y-62.49
X76.4Y-63.42
X80.19Y-53.73
X81.4Y-53.74
X82.44Y-51.98
X82.55Y-53.26
X83.46Y-52.58
X83.95Y-53.56
X84.54Y-52.56
X85.5Y-70.7
X85.59Y-65.5
X86.39Y-65.5
X86.4Y-70.7
X87.2Y-70.7
X87.29Y-65.5
X90.527Y-50.462
X91.218Y-49.542
X91.237Y-48.722
X91.297Y-50.462
X91.307Y-51.343
X91.307Y-52.192
X93.05Y-70.51
X93.05Y-71.26
X93.95Y-71.26
X94.8Y-71.26
X94.9Y-70.51
X98.76Y-65.27
X98.8Y-70.86
X98.81Y-64.2
X98.81Y-66.34
X98.85Y-69.79
X98.85Y-71.93
X99.8Y-64.2
X99.8Y-66.34
X99.84Y-69.79
X99.84Y-71.93
X100.78Y-64.18
X100.78Y-66.32
X100.82Y-69.77
X100.82Y-71.91
X101.66Y-64.21
X101.66Y-66.35
X101.7Y-69.8
X101.7Y-71.94
X102.49Y-64.2
X102.49Y-66.34
X102.53Y-69.79
X102.53Y-71.93
T3
X50.86Y-34.11
X50.86Y-75.83
X99.6Y-34.11
X99.6Y-75.83
T2
X49.86Y-41.38G85X49.86Y-43.38
G05
X51.86Y-47.08G85X53.86Y-47.08
G05
X55.86Y-41.38G85X55.86Y-43.38
G05
M30
