%TF.GenerationSoftware,KiCad,Pcbnew,10.0.4*%
%TF.CreationDate,2026-07-23T04:58:00+02:00*%
%TF.ProjectId,TFG,5446472e-6b69-4636-9164-5f7063625858,rev?*%
%TF.SameCoordinates,Original*%
%TF.FileFunction,Copper,L1,Top*%
%TF.FilePolarity,Positive*%
%FSLAX46Y46*%
G04 Gerber Fmt 4.6, Leading zero omitted, Abs format (unit mm)*
G04 Created by KiCad (PCBNEW 10.0.4) date 2026-07-23 04:58:00*
%MOMM*%
%LPD*%
G01*
G04 APERTURE LIST*
G04 Aperture macros list*
%AMRoundRect*
0 Rectangle with rounded corners*
0 $1 Rounding radius*
0 $2 $3 $4 $5 $6 $7 $8 $9 X,Y pos of 4 corners*
0 Add a 4 corners polygon primitive as box body*
4,1,4,$2,$3,$4,$5,$6,$7,$8,$9,$2,$3,0*
0 Add four circle primitives for the rounded corners*
1,1,$1+$1,$2,$3*
1,1,$1+$1,$4,$5*
1,1,$1+$1,$6,$7*
1,1,$1+$1,$8,$9*
0 Add four rect primitives between the rounded corners*
20,1,$1+$1,$2,$3,$4,$5,0*
20,1,$1+$1,$4,$5,$6,$7,0*
20,1,$1+$1,$6,$7,$8,$9,0*
20,1,$1+$1,$8,$9,$2,$3,0*%
G04 Aperture macros list end*
%TA.AperFunction,Conductor*%
%ADD10C,0.200000*%
%TD*%
%ADD11C,0.187500*%
%TA.AperFunction,NonConductor*%
%ADD12C,0.187500*%
%TD*%
%TA.AperFunction,SMDPad,CuDef*%
%ADD13R,0.800000X0.900000*%
%TD*%
%TA.AperFunction,SMDPad,CuDef*%
%ADD14RoundRect,0.250000X-0.450000X-0.425000X0.450000X-0.425000X0.450000X0.425000X-0.450000X0.425000X0*%
%TD*%
%TA.AperFunction,SMDPad,CuDef*%
%ADD15RoundRect,0.200000X0.275000X-0.200000X0.275000X0.200000X-0.275000X0.200000X-0.275000X-0.200000X0*%
%TD*%
%TA.AperFunction,SMDPad,CuDef*%
%ADD16RoundRect,0.225000X0.225000X0.250000X-0.225000X0.250000X-0.225000X-0.250000X0.225000X-0.250000X0*%
%TD*%
%TA.AperFunction,SMDPad,CuDef*%
%ADD17RoundRect,0.225000X-0.225000X-0.250000X0.225000X-0.250000X0.225000X0.250000X-0.225000X0.250000X0*%
%TD*%
%TA.AperFunction,SMDPad,CuDef*%
%ADD18RoundRect,0.112500X0.112500X-0.187500X0.112500X0.187500X-0.112500X0.187500X-0.112500X-0.187500X0*%
%TD*%
%TA.AperFunction,SMDPad,CuDef*%
%ADD19RoundRect,0.200000X0.200000X0.275000X-0.200000X0.275000X-0.200000X-0.275000X0.200000X-0.275000X0*%
%TD*%
%TA.AperFunction,SMDPad,CuDef*%
%ADD20RoundRect,0.250000X-0.425000X0.450000X-0.425000X-0.450000X0.425000X-0.450000X0.425000X0.450000X0*%
%TD*%
%TA.AperFunction,SMDPad,CuDef*%
%ADD21R,1.300000X1.300000*%
%TD*%
%TA.AperFunction,SMDPad,CuDef*%
%ADD22R,1.300000X2.000000*%
%TD*%
%TA.AperFunction,SMDPad,CuDef*%
%ADD23RoundRect,0.225000X0.250000X-0.225000X0.250000X0.225000X-0.250000X0.225000X-0.250000X-0.225000X0*%
%TD*%
%TA.AperFunction,SMDPad,CuDef*%
%ADD24RoundRect,0.112500X-0.112500X0.187500X-0.112500X-0.187500X0.112500X-0.187500X0.112500X0.187500X0*%
%TD*%
%TA.AperFunction,SMDPad,CuDef*%
%ADD25RoundRect,0.375000X0.625000X0.375000X-0.625000X0.375000X-0.625000X-0.375000X0.625000X-0.375000X0*%
%TD*%
%TA.AperFunction,SMDPad,CuDef*%
%ADD26RoundRect,0.500000X0.500000X1.400000X-0.500000X1.400000X-0.500000X-1.400000X0.500000X-1.400000X0*%
%TD*%
%TA.AperFunction,SMDPad,CuDef*%
%ADD27R,0.850000X0.400000*%
%TD*%
%TA.AperFunction,SMDPad,CuDef*%
%ADD28RoundRect,0.200000X-0.275000X0.200000X-0.275000X-0.200000X0.275000X-0.200000X0.275000X0.200000X0*%
%TD*%
%TA.AperFunction,SMDPad,CuDef*%
%ADD29R,3.810000X0.762000*%
%TD*%
%TA.AperFunction,SMDPad,CuDef*%
%ADD30R,3.810000X0.812800*%
%TD*%
%TA.AperFunction,SMDPad,CuDef*%
%ADD31RoundRect,0.375000X-0.625000X-0.375000X0.625000X-0.375000X0.625000X0.375000X-0.625000X0.375000X0*%
%TD*%
%TA.AperFunction,SMDPad,CuDef*%
%ADD32RoundRect,0.500000X-0.500000X-1.400000X0.500000X-1.400000X0.500000X1.400000X-0.500000X1.400000X0*%
%TD*%
%TA.AperFunction,SMDPad,CuDef*%
%ADD33RoundRect,0.218750X-0.381250X0.218750X-0.381250X-0.218750X0.381250X-0.218750X0.381250X0.218750X0*%
%TD*%
%TA.AperFunction,ComponentPad*%
%ADD34R,3.500000X3.500000*%
%TD*%
%TA.AperFunction,ComponentPad*%
%ADD35RoundRect,0.750000X-0.750000X-1.000000X0.750000X-1.000000X0.750000X1.000000X-0.750000X1.000000X0*%
%TD*%
%TA.AperFunction,ComponentPad*%
%ADD36RoundRect,0.875000X-0.875000X-0.875000X0.875000X-0.875000X0.875000X0.875000X-0.875000X0.875000X0*%
%TD*%
%TA.AperFunction,SMDPad,CuDef*%
%ADD37RoundRect,0.250000X0.450000X0.425000X-0.450000X0.425000X-0.450000X-0.425000X0.450000X-0.425000X0*%
%TD*%
%TA.AperFunction,SMDPad,CuDef*%
%ADD38R,2.000000X1.300000*%
%TD*%
%TA.AperFunction,SMDPad,CuDef*%
%ADD39R,0.500000X0.580000*%
%TD*%
%TA.AperFunction,SMDPad,CuDef*%
%ADD40R,0.800000X0.580000*%
%TD*%
%TA.AperFunction,ViaPad*%
%ADD41C,0.700000*%
%TD*%
%TA.AperFunction,Conductor*%
%ADD42C,0.900000*%
%TD*%
%TA.AperFunction,Conductor*%
%ADD43C,0.500000*%
%TD*%
%TA.AperFunction,Conductor*%
%ADD44C,0.350000*%
%TD*%
%TA.AperFunction,Conductor*%
%ADD45C,0.300000*%
%TD*%
%TA.AperFunction,Conductor*%
%ADD46C,0.750000*%
%TD*%
G04 APERTURE END LIST*
%TO.N,GND*%
D10*
X46680000Y-30870024D02*
X103370000Y-30870024D01*
X103370000Y-79740000D01*
X46680000Y-79740000D01*
X46680000Y-30870024D01*
D11*
D12*
X76261450Y-43367869D02*
X76261450Y-42367869D01*
X76261450Y-42367869D02*
X76642402Y-42367869D01*
X76642402Y-42367869D02*
X76737640Y-42415488D01*
X76737640Y-42415488D02*
X76785259Y-42463107D01*
X76785259Y-42463107D02*
X76832878Y-42558345D01*
X76832878Y-42558345D02*
X76832878Y-42701202D01*
X76832878Y-42701202D02*
X76785259Y-42796440D01*
X76785259Y-42796440D02*
X76737640Y-42844059D01*
X76737640Y-42844059D02*
X76642402Y-42891678D01*
X76642402Y-42891678D02*
X76261450Y-42891678D01*
X77261450Y-42367869D02*
X77261450Y-43177392D01*
X77261450Y-43177392D02*
X77309069Y-43272630D01*
X77309069Y-43272630D02*
X77356688Y-43320250D01*
X77356688Y-43320250D02*
X77451926Y-43367869D01*
X77451926Y-43367869D02*
X77642402Y-43367869D01*
X77642402Y-43367869D02*
X77737640Y-43320250D01*
X77737640Y-43320250D02*
X77785259Y-43272630D01*
X77785259Y-43272630D02*
X77832878Y-43177392D01*
X77832878Y-43177392D02*
X77832878Y-42367869D01*
X78785259Y-43367869D02*
X78309069Y-43367869D01*
X78309069Y-43367869D02*
X78309069Y-42367869D01*
X79070974Y-43320250D02*
X79213831Y-43367869D01*
X79213831Y-43367869D02*
X79451926Y-43367869D01*
X79451926Y-43367869D02*
X79547164Y-43320250D01*
X79547164Y-43320250D02*
X79594783Y-43272630D01*
X79594783Y-43272630D02*
X79642402Y-43177392D01*
X79642402Y-43177392D02*
X79642402Y-43082154D01*
X79642402Y-43082154D02*
X79594783Y-42986916D01*
X79594783Y-42986916D02*
X79547164Y-42939297D01*
X79547164Y-42939297D02*
X79451926Y-42891678D01*
X79451926Y-42891678D02*
X79261450Y-42844059D01*
X79261450Y-42844059D02*
X79166212Y-42796440D01*
X79166212Y-42796440D02*
X79118593Y-42748821D01*
X79118593Y-42748821D02*
X79070974Y-42653583D01*
X79070974Y-42653583D02*
X79070974Y-42558345D01*
X79070974Y-42558345D02*
X79118593Y-42463107D01*
X79118593Y-42463107D02*
X79166212Y-42415488D01*
X79166212Y-42415488D02*
X79261450Y-42367869D01*
X79261450Y-42367869D02*
X79499545Y-42367869D01*
X79499545Y-42367869D02*
X79642402Y-42415488D01*
X80070974Y-42844059D02*
X80404307Y-42844059D01*
X80547164Y-43367869D02*
X80070974Y-43367869D01*
X80070974Y-43367869D02*
X80070974Y-42367869D01*
X80070974Y-42367869D02*
X80547164Y-42367869D01*
X82261450Y-42415488D02*
X82166212Y-42367869D01*
X82166212Y-42367869D02*
X82023355Y-42367869D01*
X82023355Y-42367869D02*
X81880498Y-42415488D01*
X81880498Y-42415488D02*
X81785260Y-42510726D01*
X81785260Y-42510726D02*
X81737641Y-42605964D01*
X81737641Y-42605964D02*
X81690022Y-42796440D01*
X81690022Y-42796440D02*
X81690022Y-42939297D01*
X81690022Y-42939297D02*
X81737641Y-43129773D01*
X81737641Y-43129773D02*
X81785260Y-43225011D01*
X81785260Y-43225011D02*
X81880498Y-43320250D01*
X81880498Y-43320250D02*
X82023355Y-43367869D01*
X82023355Y-43367869D02*
X82118593Y-43367869D01*
X82118593Y-43367869D02*
X82261450Y-43320250D01*
X82261450Y-43320250D02*
X82309069Y-43272630D01*
X82309069Y-43272630D02*
X82309069Y-42939297D01*
X82309069Y-42939297D02*
X82118593Y-42939297D01*
X82737641Y-42844059D02*
X83070974Y-42844059D01*
X83213831Y-43367869D02*
X82737641Y-43367869D01*
X82737641Y-43367869D02*
X82737641Y-42367869D01*
X82737641Y-42367869D02*
X83213831Y-42367869D01*
X83642403Y-43367869D02*
X83642403Y-42367869D01*
X83642403Y-42367869D02*
X84213831Y-43367869D01*
X84213831Y-43367869D02*
X84213831Y-42367869D01*
X84690022Y-42844059D02*
X85023355Y-42844059D01*
X85166212Y-43367869D02*
X84690022Y-43367869D01*
X84690022Y-43367869D02*
X84690022Y-42367869D01*
X84690022Y-42367869D02*
X85166212Y-42367869D01*
X86166212Y-43367869D02*
X85832879Y-42891678D01*
X85594784Y-43367869D02*
X85594784Y-42367869D01*
X85594784Y-42367869D02*
X85975736Y-42367869D01*
X85975736Y-42367869D02*
X86070974Y-42415488D01*
X86070974Y-42415488D02*
X86118593Y-42463107D01*
X86118593Y-42463107D02*
X86166212Y-42558345D01*
X86166212Y-42558345D02*
X86166212Y-42701202D01*
X86166212Y-42701202D02*
X86118593Y-42796440D01*
X86118593Y-42796440D02*
X86070974Y-42844059D01*
X86070974Y-42844059D02*
X85975736Y-42891678D01*
X85975736Y-42891678D02*
X85594784Y-42891678D01*
X86547165Y-43082154D02*
X87023355Y-43082154D01*
X86451927Y-43367869D02*
X86785260Y-42367869D01*
X86785260Y-42367869D02*
X87118593Y-43367869D01*
X87309070Y-42367869D02*
X87880498Y-42367869D01*
X87594784Y-43367869D02*
X87594784Y-42367869D01*
X88404308Y-42367869D02*
X88594784Y-42367869D01*
X88594784Y-42367869D02*
X88690022Y-42415488D01*
X88690022Y-42415488D02*
X88785260Y-42510726D01*
X88785260Y-42510726D02*
X88832879Y-42701202D01*
X88832879Y-42701202D02*
X88832879Y-43034535D01*
X88832879Y-43034535D02*
X88785260Y-43225011D01*
X88785260Y-43225011D02*
X88690022Y-43320250D01*
X88690022Y-43320250D02*
X88594784Y-43367869D01*
X88594784Y-43367869D02*
X88404308Y-43367869D01*
X88404308Y-43367869D02*
X88309070Y-43320250D01*
X88309070Y-43320250D02*
X88213832Y-43225011D01*
X88213832Y-43225011D02*
X88166213Y-43034535D01*
X88166213Y-43034535D02*
X88166213Y-42701202D01*
X88166213Y-42701202D02*
X88213832Y-42510726D01*
X88213832Y-42510726D02*
X88309070Y-42415488D01*
X88309070Y-42415488D02*
X88404308Y-42367869D01*
X89832879Y-43367869D02*
X89499546Y-42891678D01*
X89261451Y-43367869D02*
X89261451Y-42367869D01*
X89261451Y-42367869D02*
X89642403Y-42367869D01*
X89642403Y-42367869D02*
X89737641Y-42415488D01*
X89737641Y-42415488D02*
X89785260Y-42463107D01*
X89785260Y-42463107D02*
X89832879Y-42558345D01*
X89832879Y-42558345D02*
X89832879Y-42701202D01*
X89832879Y-42701202D02*
X89785260Y-42796440D01*
X89785260Y-42796440D02*
X89737641Y-42844059D01*
X89737641Y-42844059D02*
X89642403Y-42891678D01*
X89642403Y-42891678D02*
X89261451Y-42891678D01*
X90975737Y-43082154D02*
X91451927Y-43082154D01*
X90880499Y-43367869D02*
X91213832Y-42367869D01*
X91213832Y-42367869D02*
X91547165Y-43367869D01*
X92356689Y-43367869D02*
X91880499Y-43367869D01*
X91880499Y-43367869D02*
X91880499Y-42367869D01*
X92547166Y-42367869D02*
X93118594Y-42367869D01*
X92832880Y-43367869D02*
X92832880Y-42367869D01*
X94070976Y-42367869D02*
X94404309Y-43367869D01*
X94404309Y-43367869D02*
X94737642Y-42367869D01*
X95594785Y-43367869D02*
X95023357Y-43367869D01*
X95309071Y-43367869D02*
X95309071Y-42367869D01*
X95309071Y-42367869D02*
X95213833Y-42510726D01*
X95213833Y-42510726D02*
X95118595Y-42605964D01*
X95118595Y-42605964D02*
X95023357Y-42653583D01*
X96785262Y-42986916D02*
X97547167Y-42986916D01*
X98785262Y-42844059D02*
X99118595Y-42844059D01*
X99261452Y-43367869D02*
X98785262Y-43367869D01*
X98785262Y-43367869D02*
X98785262Y-42367869D01*
X98785262Y-42367869D02*
X99261452Y-42367869D01*
X99690024Y-43272630D02*
X99737643Y-43320250D01*
X99737643Y-43320250D02*
X99690024Y-43367869D01*
X99690024Y-43367869D02*
X99642405Y-43320250D01*
X99642405Y-43320250D02*
X99690024Y-43272630D01*
X99690024Y-43272630D02*
X99690024Y-43367869D01*
X100499547Y-42844059D02*
X100166214Y-42844059D01*
X100166214Y-43367869D02*
X100166214Y-42367869D01*
X100166214Y-42367869D02*
X100642404Y-42367869D01*
%TD*%
D13*
%TO.P,D3,1,A*%
%TO.N,Net-(D1-K)*%
X94919992Y-68089976D03*
%TO.P,D3,3,K*%
%TO.N,GND*%
X93969992Y-70289975D03*
%TD*%
D14*
%TO.P,C1,1*%
%TO.N,/V12v*%
X59899992Y-48059976D03*
%TO.P,C1,2*%
%TO.N,GND*%
X62599992Y-48059976D03*
%TD*%
D15*
%TO.P,R5,1*%
%TO.N,Net-(R5-Pad1)*%
X87839992Y-55869976D03*
%TO.P,R5,2*%
%TO.N,/V5v_bias*%
X87839992Y-54219976D03*
%TD*%
D16*
%TO.P,C14,1*%
%TO.N,GND*%
X90007500Y-51562500D03*
%TO.P,C14,2*%
%TO.N,/V5v_bias*%
X88457500Y-51562500D03*
%TD*%
D17*
%TO.P,C5,1*%
%TO.N,GND*%
X55130000Y-62360000D03*
%TO.P,C5,2*%
%TO.N,/V5v*%
X56680000Y-62360000D03*
%TD*%
D18*
%TO.P,D1,1,K*%
%TO.N,Net-(D1-K)*%
X86370000Y-67775000D03*
%TO.P,D1,2,A*%
%TO.N,GND*%
X86370000Y-65675000D03*
%TD*%
D19*
%TO.P,R3,1*%
%TO.N,Net-(BFR35AP1-B)*%
X69775000Y-64445000D03*
%TO.P,R3,2*%
%TO.N,Net-(Q1-C)*%
X68125000Y-64445000D03*
%TD*%
D17*
%TO.P,C9,1*%
%TO.N,GND*%
X77549992Y-60947476D03*
%TO.P,C9,2*%
%TO.N,/V12v*%
X79099992Y-60947476D03*
%TD*%
D20*
%TO.P,C11,1*%
%TO.N,/V5v_bias*%
X81059992Y-49677476D03*
%TO.P,C11,2*%
%TO.N,GND*%
X81059992Y-52377476D03*
%TD*%
D21*
%TO.P,R2,1,1*%
%TO.N,Net-(IC1-Y)*%
X60800000Y-65195000D03*
D22*
%TO.P,R2,2,2*%
%TO.N,Net-(Q1-C)*%
X61950000Y-59695000D03*
D21*
%TO.P,R2,3,3*%
X63100000Y-65195000D03*
%TD*%
D23*
%TO.P,C12,1*%
%TO.N,GND*%
X83859992Y-51227476D03*
%TO.P,C12,2*%
%TO.N,/V5v_bias*%
X83859992Y-49677476D03*
%TD*%
D24*
%TO.P,D2,1,K*%
%TO.N,Net-(D1-K)*%
X86374992Y-68400000D03*
%TO.P,D2,2,A*%
%TO.N,GND*%
X86374992Y-70500000D03*
%TD*%
D17*
%TO.P,C7,1*%
%TO.N,Net-(IC1-Y)*%
X61175000Y-67500000D03*
%TO.P,C7,2*%
%TO.N,Net-(Q1-C)*%
X62725000Y-67500000D03*
%TD*%
D20*
%TO.P,C8,1*%
%TO.N,/V12v*%
X65549992Y-52159976D03*
%TO.P,C8,2*%
%TO.N,GND*%
X65549992Y-54859976D03*
%TD*%
D25*
%TO.P,IC2,1,GND*%
%TO.N,GND*%
X59900000Y-55800000D03*
D26*
%TO.P,IC2,2,VO*%
%TO.N,/V5v*%
X53600000Y-53500000D03*
D25*
%TO.P,IC2,3,VI*%
%TO.N,/V12v*%
X59900000Y-51200000D03*
%TD*%
D17*
%TO.P,C10,1*%
%TO.N,GND*%
X77549992Y-62947476D03*
%TO.P,C10,2*%
%TO.N,/V12v*%
X79099992Y-62947476D03*
%TD*%
D15*
%TO.P,R6,1*%
%TO.N,Net-(R6-Pad1)*%
X84049992Y-60372476D03*
%TO.P,R6,2*%
%TO.N,Net-(R5-Pad1)*%
X84049992Y-58722476D03*
%TD*%
D27*
%TO.P,IC1,2,A*%
%TO.N,/V3v_in*%
X54700000Y-66850000D03*
%TO.P,IC1,3,GND*%
%TO.N,GND*%
X54700000Y-67500000D03*
%TO.P,IC1,4,Y*%
%TO.N,Net-(IC1-Y)*%
X56800000Y-67500000D03*
%TO.P,IC1,5,VCC*%
%TO.N,/V5v*%
X56800000Y-66200000D03*
%TD*%
D16*
%TO.P,C15,1*%
%TO.N,GND*%
X90020000Y-49340000D03*
%TO.P,C15,2*%
%TO.N,/V5v_bias*%
X88470000Y-49340000D03*
%TD*%
%TO.P,C2,1*%
%TO.N,GND*%
X62114992Y-43559976D03*
%TO.P,C2,2*%
%TO.N,/V12v*%
X60564992Y-43559976D03*
%TD*%
D21*
%TO.P,R1,1,1*%
%TO.N,Net-(IC1-Y)*%
X60800000Y-69695000D03*
D22*
%TO.P,R1,2,2*%
%TO.N,Net-(Q1-B)*%
X61950000Y-75195000D03*
D21*
%TO.P,R1,3,3*%
X63100000Y-69695000D03*
%TD*%
D17*
%TO.P,C16,1*%
%TO.N,Net-(D1-K)*%
X95954992Y-68100000D03*
%TO.P,C16,2*%
%TO.N,/Vout*%
X97504992Y-68100000D03*
%TD*%
D28*
%TO.P,R4,1*%
%TO.N,/V12v*%
X80000000Y-66450000D03*
%TO.P,R4,2*%
%TO.N,/Vout_Driver*%
X80000000Y-68100000D03*
%TD*%
D29*
%TO.P,J2,1,1*%
%TO.N,/V3v_in*%
X48722492Y-66839976D03*
D30*
%TO.P,J2,2,2*%
%TO.N,GND*%
X48722492Y-69609976D03*
%TO.P,J2,3,3*%
X48722492Y-64069976D03*
%TD*%
D29*
%TO.P,J3,1,1*%
%TO.N,/Vout*%
X101249992Y-68100000D03*
D30*
%TO.P,J3,2,2*%
%TO.N,GND*%
X101249992Y-65330000D03*
%TO.P,J3,3,3*%
X101249992Y-70870000D03*
%TD*%
D31*
%TO.P,IC3,1,GND*%
%TO.N,GND*%
X70859992Y-47377476D03*
D32*
%TO.P,IC3,2,VO*%
%TO.N,/V5v_bias*%
X77159992Y-49677476D03*
D31*
%TO.P,IC3,3,VI*%
%TO.N,/V12v*%
X70859992Y-51977476D03*
%TD*%
D33*
%TO.P,L1,1,1*%
%TO.N,/I_bias*%
X84200000Y-65975000D03*
%TO.P,L1,2,2*%
%TO.N,Net-(D1-K)*%
X84200000Y-68100000D03*
%TD*%
D16*
%TO.P,C3,1*%
%TO.N,/V5v*%
X56700000Y-64200000D03*
%TO.P,C3,2*%
%TO.N,GND*%
X55150000Y-64200000D03*
%TD*%
D34*
%TO.P,J1,1*%
%TO.N,/V12v*%
X55859992Y-42379976D03*
D35*
%TO.P,J1,2*%
%TO.N,GND*%
X49859992Y-42379976D03*
D36*
%TO.P,J1,3*%
X52859992Y-47079976D03*
%TD*%
D23*
%TO.P,C6,1*%
%TO.N,GND*%
X65950000Y-73220000D03*
%TO.P,C6,2*%
%TO.N,Net-(Q1-B)*%
X65950000Y-71670000D03*
%TD*%
D37*
%TO.P,C4,1*%
%TO.N,/V5v*%
X53249992Y-59200000D03*
%TO.P,C4,2*%
%TO.N,GND*%
X50549992Y-59200000D03*
%TD*%
D21*
%TO.P,R8,1,1*%
%TO.N,Net-(R5-Pad1)*%
X87824992Y-58397476D03*
D38*
%TO.P,R8,2,2*%
%TO.N,Net-(R6-Pad1)*%
X93324992Y-59547476D03*
D21*
%TO.P,R8,3,3*%
X87824992Y-60697476D03*
%TD*%
D15*
%TO.P,R7,1*%
%TO.N,/I_bias*%
X84049992Y-63772476D03*
%TO.P,R7,2*%
%TO.N,Net-(R6-Pad1)*%
X84049992Y-62122476D03*
%TD*%
D39*
%TO.P,Q1,1,B*%
%TO.N,Net-(Q1-B)*%
X66800000Y-68955000D03*
D40*
%TO.P,Q1,2,E_1*%
%TO.N,GND*%
X67950000Y-68955000D03*
D39*
%TO.P,Q1,3,C*%
%TO.N,Net-(Q1-C)*%
X68100000Y-66935000D03*
%TO.P,Q1,4,E_2*%
%TO.N,GND*%
X66800000Y-66935000D03*
%TD*%
D31*
%TO.P,BFR35AP1,1,B*%
%TO.N,Net-(BFR35AP1-B)*%
X71600000Y-68100000D03*
D32*
%TO.P,BFR35AP1,2*%
%TO.N,/Vout_Driver*%
X77900000Y-68100000D03*
D31*
%TO.P,BFR35AP1,3,C*%
%TO.N,GND*%
X71600000Y-65800000D03*
%TO.P,BFR35AP1,3,E*%
X71600000Y-70400000D03*
%TD*%
D17*
%TO.P,C13,1*%
%TO.N,/Vout_Driver*%
X81625000Y-68100000D03*
%TO.P,C13,2*%
%TO.N,Net-(D1-K)*%
X83175000Y-68100000D03*
%TD*%
D41*
%TO.N,GND*%
X51230339Y-65139976D03*
X55130008Y-68100024D03*
X93000000Y-70400000D03*
X64600008Y-74485016D03*
X87100000Y-71050000D03*
X68700000Y-68100000D03*
X93949992Y-71300000D03*
X53900000Y-64700000D03*
X82439992Y-51979976D03*
X61600000Y-56090000D03*
X98810000Y-64200000D03*
X83949992Y-53559976D03*
X49400000Y-58090024D03*
X101000000Y-72000000D03*
X73400000Y-65300000D03*
X47519992Y-70719976D03*
X71600000Y-64400000D03*
X51249992Y-69649976D03*
X61450008Y-57090024D03*
X72400000Y-46900000D03*
X58260000Y-56200000D03*
X102530000Y-69790000D03*
X51280339Y-64069976D03*
X76399992Y-61459976D03*
X66000008Y-74485016D03*
X87000000Y-65100000D03*
X70900000Y-46000000D03*
X72300000Y-46000000D03*
X49400000Y-60290024D03*
X102490000Y-66340000D03*
X53900000Y-62800000D03*
X72700000Y-64400000D03*
X69700000Y-71100000D03*
X59850000Y-57090024D03*
X102490000Y-64200000D03*
X100780000Y-66400000D03*
X47550339Y-62999976D03*
X47519992Y-68579976D03*
X53900000Y-63750000D03*
X84539992Y-52559976D03*
X51199992Y-68579976D03*
X53730008Y-68100024D03*
X95000000Y-70400000D03*
X98850000Y-72000000D03*
X51199992Y-70719976D03*
X64600000Y-55800000D03*
X91307500Y-52192500D03*
X69349992Y-46900000D03*
X67400000Y-70000000D03*
X63000000Y-44300000D03*
X76400000Y-63500000D03*
X82549992Y-53259976D03*
X76399992Y-60400000D03*
X90527500Y-50462500D03*
X80189992Y-53729976D03*
X98760000Y-65270000D03*
X58350008Y-57090024D03*
X85900000Y-65100000D03*
X69359992Y-46039976D03*
X65850000Y-67945000D03*
X63000000Y-42900000D03*
X85700000Y-71050000D03*
X49229992Y-68599976D03*
X81399992Y-53739976D03*
X100780000Y-64180000D03*
X53900000Y-61900000D03*
X68500008Y-70035024D03*
X76400000Y-62500000D03*
X51230339Y-62999976D03*
X98810000Y-66340000D03*
X49229992Y-70739976D03*
X49260339Y-65159976D03*
X102530000Y-72000000D03*
X91307500Y-51200000D03*
X91237500Y-48722500D03*
X63599992Y-48969976D03*
X91217500Y-49542500D03*
X67200008Y-74485016D03*
X69700008Y-70035024D03*
X47550339Y-65139976D03*
X94900000Y-71300000D03*
X73400000Y-66300000D03*
X83459992Y-52579976D03*
X100820000Y-69770000D03*
X63900000Y-48100000D03*
X65600000Y-56100000D03*
X98800000Y-69790000D03*
X66500000Y-55800000D03*
X93049992Y-71300000D03*
X98800000Y-70900000D03*
X49260339Y-63019976D03*
X67200000Y-67945000D03*
X65900008Y-66735024D03*
X63600000Y-47100000D03*
%TD*%
%TO.N,Net-(D1-K)*%
D42*
X83177524Y-68097476D02*
X95917492Y-68097476D01*
X83175000Y-68100000D02*
X83177524Y-68097476D01*
%TO.N,GND*%
D10*
X62417492Y-48577476D02*
X62349992Y-48509976D01*
D43*
X90230000Y-51640000D02*
X90240000Y-51650000D01*
D10*
X62499992Y-48659976D02*
X62349992Y-48509976D01*
%TO.N,/V12v*%
X59849992Y-48109976D02*
X59899992Y-48059976D01*
X59749992Y-48209976D02*
X59899992Y-48059976D01*
X79149992Y-62997476D02*
X79099992Y-62947476D01*
X60414992Y-43409976D02*
X60564992Y-43559976D01*
%TO.N,Net-(R5-Pad1)*%
D44*
X84974992Y-58722476D02*
X84049992Y-58722476D01*
D10*
X87839992Y-58382476D02*
X87824992Y-58397476D01*
D44*
X87839992Y-55869976D02*
X87839992Y-58382476D01*
X85299992Y-58397476D02*
X84974992Y-58722476D01*
X87824992Y-58397476D02*
X85299992Y-58397476D01*
%TO.N,/V5v_bias*%
D10*
X88445000Y-49315000D02*
X88470000Y-49340000D01*
X88470000Y-51465000D02*
X88395000Y-51540000D01*
%TO.N,Net-(BFR35AP1-B)*%
D44*
X70100000Y-68100000D02*
X71600000Y-68100000D01*
X69775000Y-67775000D02*
X70100000Y-68100000D01*
X69775000Y-64445000D02*
X69775000Y-67775000D01*
%TO.N,Net-(Q1-C)*%
X61950000Y-59695000D02*
X61950000Y-62055000D01*
X62725000Y-66650000D02*
X63100000Y-66275000D01*
X62725000Y-67445000D02*
X62725000Y-66650000D01*
X67940024Y-64435024D02*
X65859976Y-64435024D01*
D10*
X67950000Y-64445000D02*
X67940024Y-64435024D01*
D44*
X63100000Y-66275000D02*
X63100000Y-65195000D01*
X65100000Y-65195000D02*
X63100000Y-65195000D01*
D10*
X68125000Y-64445000D02*
X67950000Y-64445000D01*
D44*
X61950000Y-62055000D02*
X63100000Y-63205000D01*
X63100000Y-63205000D02*
X63100000Y-65195000D01*
X65859976Y-64435024D02*
X65100000Y-65195000D01*
D10*
X68100000Y-64470000D02*
X68125000Y-64445000D01*
D44*
X68100000Y-66935000D02*
X68100000Y-64470000D01*
%TO.N,Net-(IC1-Y)*%
X61175000Y-68290000D02*
X60800000Y-68665000D01*
X60800000Y-65195000D02*
X60800000Y-66245000D01*
X60800000Y-66245000D02*
X61130000Y-66575000D01*
X61175000Y-67445000D02*
X61175000Y-68290000D01*
X61130000Y-66575000D02*
X61130000Y-67400000D01*
X60800000Y-68665000D02*
X60800000Y-69695000D01*
D45*
X61175000Y-67500000D02*
X56800000Y-67500000D01*
%TO.N,Net-(R6-Pad1)*%
D44*
X84974992Y-60372476D02*
X84049992Y-60372476D01*
X85299992Y-60697476D02*
X84974992Y-60372476D01*
X87824992Y-60697476D02*
X85299992Y-60697476D01*
X84049992Y-60372476D02*
X84049992Y-62122476D01*
X90449992Y-59547476D02*
X89299992Y-60697476D01*
X93324992Y-59547476D02*
X90449992Y-59547476D01*
X89299992Y-60697476D02*
X87824992Y-60697476D01*
%TO.N,/V3v_in*%
D45*
X48732516Y-66850000D02*
X48722492Y-66839976D01*
D10*
X47459992Y-66849976D02*
X47449992Y-66839976D01*
D44*
X54700000Y-66850000D02*
X48732516Y-66850000D01*
%TO.N,Net-(Q1-B)*%
X61950000Y-73005000D02*
X61950000Y-75195000D01*
X65950000Y-71670000D02*
X63285000Y-71670000D01*
X65950000Y-71670000D02*
X65950000Y-69795000D01*
X63100000Y-69695000D02*
X66050000Y-69695000D01*
D10*
X66770000Y-68955000D02*
X66800000Y-68955000D01*
D44*
X66050000Y-69675000D02*
X66770000Y-68955000D01*
X63285000Y-71670000D02*
X61950000Y-73005000D01*
D10*
X66050000Y-69695000D02*
X66050000Y-69675000D01*
X65950000Y-69795000D02*
X66050000Y-69695000D01*
%TO.N,/Vout*%
X101249992Y-68059976D02*
X101309992Y-67999976D01*
D46*
X97545016Y-68100000D02*
X101209968Y-68100000D01*
X97504992Y-68059976D02*
X97545016Y-68100000D01*
%TO.N,/Vout_Driver*%
D10*
X81625000Y-68100000D02*
X81572476Y-68047476D01*
D44*
X80000000Y-68100000D02*
X77900000Y-68100000D01*
X80000000Y-68100000D02*
X81625000Y-68100000D01*
%TO.N,/I_bias*%
X84049992Y-65947476D02*
X84049992Y-63772476D01*
%TD*%
%TA.AperFunction,Conductor*%
%TO.N,GND*%
G36*
X67013015Y-54919685D02*
G01*
X67058770Y-54972489D01*
X67069976Y-55024000D01*
X67069976Y-56476000D01*
X67050291Y-56543039D01*
X66997487Y-56588794D01*
X66945976Y-56600000D01*
X64193976Y-56600000D01*
X64126937Y-56580315D01*
X64081182Y-56527511D01*
X64069976Y-56476000D01*
X64069976Y-55024000D01*
X64089661Y-54956961D01*
X64142465Y-54911206D01*
X64193976Y-54900000D01*
X66945976Y-54900000D01*
X67013015Y-54919685D01*
G37*
%TD.AperFunction*%
%TD*%
%TA.AperFunction,Conductor*%
%TO.N,GND*%
G36*
X77543031Y-59919685D02*
G01*
X77588786Y-59972489D01*
X77599992Y-60024000D01*
X77599992Y-63876000D01*
X77580307Y-63943039D01*
X77527503Y-63988794D01*
X77475992Y-64000000D01*
X75963992Y-64000000D01*
X75896953Y-63980315D01*
X75851198Y-63927511D01*
X75839992Y-63876000D01*
X75839992Y-60024000D01*
X75859677Y-59956961D01*
X75912481Y-59911206D01*
X75963992Y-59900000D01*
X77475992Y-59900000D01*
X77543031Y-59919685D01*
G37*
%TD.AperFunction*%
%TD*%
%TA.AperFunction,Conductor*%
%TO.N,GND*%
G36*
X95393031Y-69879661D02*
G01*
X95438786Y-69932465D01*
X95449992Y-69983976D01*
X95449992Y-71635976D01*
X95430307Y-71703015D01*
X95377503Y-71748770D01*
X95325992Y-71759976D01*
X92673992Y-71759976D01*
X92606953Y-71740291D01*
X92561198Y-71687487D01*
X92549992Y-71635976D01*
X92549992Y-69983976D01*
X92569677Y-69916937D01*
X92622481Y-69871182D01*
X92673992Y-69859976D01*
X95325992Y-69859976D01*
X95393031Y-69879661D01*
G37*
%TD.AperFunction*%
%TD*%
%TA.AperFunction,Conductor*%
%TO.N,/V5v*%
G36*
X55693098Y-50505023D02*
G01*
X55708096Y-50509427D01*
X55723086Y-50519057D01*
X55740167Y-50524067D01*
X55766847Y-50547172D01*
X55768034Y-50548541D01*
X55795510Y-50603402D01*
X55797155Y-50610960D01*
X55799992Y-50637331D01*
X55799992Y-59209976D01*
X58158171Y-59209976D01*
X58193106Y-59214999D01*
X58208104Y-59219403D01*
X58266855Y-59257148D01*
X58266879Y-59257176D01*
X58266882Y-59257178D01*
X58266883Y-59257180D01*
X58268042Y-59258517D01*
X58295518Y-59313378D01*
X58297163Y-59320936D01*
X58300000Y-59347307D01*
X58300000Y-66258170D01*
X58299999Y-66258176D01*
X58300000Y-66258179D01*
X58294975Y-66293114D01*
X58290570Y-66308112D01*
X58252827Y-66366855D01*
X58252792Y-66366885D01*
X58252791Y-66366887D01*
X58252789Y-66366887D01*
X58251458Y-66368042D01*
X58196597Y-66395518D01*
X58189039Y-66397163D01*
X58162668Y-66400000D01*
X55642955Y-66400000D01*
X55625805Y-66398808D01*
X55620277Y-66398036D01*
X55614685Y-66395509D01*
X55608241Y-66394227D01*
X55608021Y-66394977D01*
X55605797Y-66394324D01*
X55605958Y-66393772D01*
X55594098Y-66391412D01*
X55593839Y-66391315D01*
X55587517Y-66388957D01*
X55587507Y-66388954D01*
X55585453Y-66388188D01*
X55585819Y-66387206D01*
X55566423Y-66373705D01*
X55556604Y-66369269D01*
X55553769Y-66364897D01*
X55531736Y-66349560D01*
X55512196Y-66315194D01*
X55507815Y-66303445D01*
X55500000Y-66260121D01*
X55500000Y-66000000D01*
X52541822Y-66000000D01*
X52541817Y-65999999D01*
X52541815Y-66000000D01*
X52506881Y-65994975D01*
X52491882Y-65990570D01*
X52433136Y-65952827D01*
X52433107Y-65952793D01*
X52433106Y-65952793D01*
X52433105Y-65952791D01*
X52432546Y-65952146D01*
X55875000Y-65952146D01*
X55875000Y-65952155D01*
X55875000Y-66000000D01*
X56600000Y-66000000D01*
X57000000Y-66000000D01*
X57725000Y-66000000D01*
X57725000Y-65952172D01*
X57724999Y-65952155D01*
X57724998Y-65952146D01*
X57724998Y-65952138D01*
X57718598Y-65892628D01*
X57718596Y-65892621D01*
X57718596Y-65892620D01*
X57668354Y-65757913D01*
X57668350Y-65757906D01*
X57582190Y-65642812D01*
X57582187Y-65642809D01*
X57582185Y-65642807D01*
X57472671Y-65560825D01*
X57467093Y-65556649D01*
X57467088Y-65556646D01*
X57467089Y-65556646D01*
X57332377Y-65506402D01*
X57332370Y-65506400D01*
X57272852Y-65500000D01*
X57272844Y-65500000D01*
X57000000Y-65500000D01*
X57000000Y-66000000D01*
X56600000Y-66000000D01*
X56600000Y-65500000D01*
X56327146Y-65500000D01*
X56267628Y-65506400D01*
X56267621Y-65506402D01*
X56132910Y-65556646D01*
X56132907Y-65556648D01*
X56017813Y-65642807D01*
X56017807Y-65642813D01*
X55931648Y-65757907D01*
X55931646Y-65757910D01*
X55881402Y-65892621D01*
X55881400Y-65892628D01*
X55875000Y-65952146D01*
X52432546Y-65952146D01*
X52431949Y-65951458D01*
X52404469Y-65896583D01*
X52402824Y-65889021D01*
X52399992Y-65862668D01*
X52399992Y-61759976D01*
X51941822Y-61759976D01*
X51941817Y-61759975D01*
X51941815Y-61759976D01*
X51906881Y-61754951D01*
X51891882Y-61750546D01*
X51833136Y-61712803D01*
X51833107Y-61712769D01*
X51833106Y-61712769D01*
X51833105Y-61712767D01*
X51831949Y-61711434D01*
X51804469Y-61656559D01*
X51802824Y-61648997D01*
X51799992Y-61622644D01*
X51799992Y-61474000D01*
X52894500Y-61474000D01*
X52894500Y-65066000D01*
X52894501Y-65066009D01*
X52906052Y-65173450D01*
X52906054Y-65173462D01*
X52917260Y-65224972D01*
X52951383Y-65327497D01*
X52951386Y-65327503D01*
X53029171Y-65448537D01*
X53029179Y-65448548D01*
X53074923Y-65501340D01*
X53074926Y-65501343D01*
X53074930Y-65501347D01*
X53183664Y-65595567D01*
X53183667Y-65595568D01*
X53183668Y-65595569D01*
X53287115Y-65642813D01*
X53314541Y-65655338D01*
X53381580Y-65675023D01*
X53381584Y-65675024D01*
X53524000Y-65695500D01*
X54985990Y-65695500D01*
X54986000Y-65695500D01*
X55093456Y-65683947D01*
X55144967Y-65672741D01*
X55179197Y-65661347D01*
X55247497Y-65638616D01*
X55247501Y-65638613D01*
X55247504Y-65638613D01*
X55368543Y-65560825D01*
X55421347Y-65515070D01*
X55515567Y-65406336D01*
X55575338Y-65275459D01*
X55595023Y-65208420D01*
X55595024Y-65208416D01*
X55595028Y-65208381D01*
X55595147Y-65207784D01*
X55595213Y-65207655D01*
X55595788Y-65205357D01*
X55596337Y-65205494D01*
X55627369Y-65145787D01*
X55652841Y-65125439D01*
X55664689Y-65118301D01*
X55683697Y-65112003D01*
X55828044Y-65022968D01*
X55835779Y-65015231D01*
X55848760Y-65007412D01*
X55850395Y-65006982D01*
X55853308Y-65004801D01*
X55867033Y-64997306D01*
X55935299Y-64982450D01*
X55937112Y-64982579D01*
X55995307Y-65001947D01*
X55999745Y-65004799D01*
X56001818Y-65006131D01*
X56018821Y-65019833D01*
X56018945Y-65019691D01*
X56022262Y-65022567D01*
X56022267Y-65022572D01*
X56022271Y-65022575D01*
X56022279Y-65022580D01*
X56022286Y-65022585D01*
X56092657Y-65065990D01*
X56166507Y-65111542D01*
X56166518Y-65111547D01*
X56327393Y-65164855D01*
X56426683Y-65174999D01*
X56950000Y-65174999D01*
X56973296Y-65174999D01*
X56973308Y-65174999D01*
X56973322Y-65174998D01*
X57072607Y-65164855D01*
X57233481Y-65111547D01*
X57233492Y-65111542D01*
X57377728Y-65022575D01*
X57377732Y-65022572D01*
X57497572Y-64902732D01*
X57497575Y-64902728D01*
X57586542Y-64758492D01*
X57586547Y-64758481D01*
X57639855Y-64597606D01*
X57649999Y-64498322D01*
X57650000Y-64498309D01*
X57650000Y-64450000D01*
X56950000Y-64450000D01*
X56950000Y-65174999D01*
X56426683Y-65174999D01*
X56450000Y-65174998D01*
X56450000Y-63451433D01*
X56445166Y-63442581D01*
X56430000Y-63383157D01*
X56430000Y-63108566D01*
X56930000Y-63108566D01*
X56934833Y-63117418D01*
X56950000Y-63176843D01*
X56950000Y-63950000D01*
X57649999Y-63950000D01*
X57649999Y-63901692D01*
X57649998Y-63901677D01*
X57639855Y-63802392D01*
X57586547Y-63641518D01*
X57586542Y-63641507D01*
X57541516Y-63568509D01*
X57497585Y-63497286D01*
X57497571Y-63497266D01*
X57442888Y-63442583D01*
X57382601Y-63382296D01*
X57378102Y-63377551D01*
X57357110Y-63354209D01*
X57326917Y-63291200D01*
X57328976Y-63274726D01*
X57335581Y-63221875D01*
X57339378Y-63213138D01*
X57365417Y-63174885D01*
X57477576Y-63062727D01*
X57566542Y-62918492D01*
X57566547Y-62918481D01*
X57619855Y-62757606D01*
X57629999Y-62658322D01*
X57630000Y-62658309D01*
X57630000Y-62610000D01*
X56930000Y-62610000D01*
X56930000Y-63108566D01*
X56430000Y-63108566D01*
X56430000Y-62110000D01*
X56930000Y-62110000D01*
X57629999Y-62110000D01*
X57629999Y-62061692D01*
X57629998Y-62061677D01*
X57619855Y-61962392D01*
X57566547Y-61801518D01*
X57566542Y-61801507D01*
X57496213Y-61687487D01*
X57477585Y-61657286D01*
X57477580Y-61657279D01*
X57477575Y-61657271D01*
X57477572Y-61657267D01*
X57477569Y-61657264D01*
X57477567Y-61657261D01*
X57357737Y-61537431D01*
X57357734Y-61537429D01*
X57357733Y-61537428D01*
X57357732Y-61537427D01*
X57357728Y-61537424D01*
X57357722Y-61537420D01*
X57357712Y-61537413D01*
X57249990Y-61470969D01*
X57213492Y-61448457D01*
X57213490Y-61448456D01*
X57213476Y-61448449D01*
X57052604Y-61395143D01*
X56953327Y-61385000D01*
X56953322Y-61385000D01*
X56930000Y-61385000D01*
X56930000Y-62110000D01*
X56430000Y-62110000D01*
X56430000Y-61384999D01*
X56406705Y-61384999D01*
X56406686Y-61385000D01*
X56406685Y-61385000D01*
X56406661Y-61385002D01*
X56307394Y-61395143D01*
X56307393Y-61395143D01*
X56146522Y-61448449D01*
X56146508Y-61448456D01*
X56146505Y-61448458D01*
X56002280Y-61537417D01*
X56002270Y-61537424D01*
X55997527Y-61541313D01*
X55996927Y-61540582D01*
X55977382Y-61555206D01*
X55963667Y-61562695D01*
X55895394Y-61577547D01*
X55895347Y-61577544D01*
X55893539Y-61577414D01*
X55835398Y-61558052D01*
X55830969Y-61555206D01*
X55828891Y-61553870D01*
X55811451Y-61539814D01*
X55811366Y-61539913D01*
X55808646Y-61537554D01*
X55808233Y-61537221D01*
X55808044Y-61537032D01*
X55808040Y-61537029D01*
X55705857Y-61474001D01*
X55661355Y-61446551D01*
X55661903Y-61445661D01*
X55615813Y-61398803D01*
X55603967Y-61366637D01*
X55603947Y-61366544D01*
X55592741Y-61315033D01*
X55592637Y-61314722D01*
X55558616Y-61212502D01*
X55558613Y-61212496D01*
X55480828Y-61091462D01*
X55480825Y-61091457D01*
X55480820Y-61091451D01*
X55435076Y-61038659D01*
X55435072Y-61038656D01*
X55435070Y-61038653D01*
X55326336Y-60944433D01*
X55326333Y-60944431D01*
X55326331Y-60944430D01*
X55195465Y-60884664D01*
X55195460Y-60884662D01*
X55195459Y-60884662D01*
X55128420Y-60864977D01*
X55128422Y-60864977D01*
X55128417Y-60864976D01*
X55066347Y-60856052D01*
X54986000Y-60844500D01*
X54985998Y-60844500D01*
X53524010Y-60844500D01*
X53524000Y-60844500D01*
X53523991Y-60844500D01*
X53523990Y-60844501D01*
X53416549Y-60856052D01*
X53416537Y-60856054D01*
X53365027Y-60867260D01*
X53262502Y-60901383D01*
X53262496Y-60901386D01*
X53141462Y-60979171D01*
X53141451Y-60979179D01*
X53088659Y-61024923D01*
X52994433Y-61133664D01*
X52994430Y-61133668D01*
X52934664Y-61264534D01*
X52914976Y-61331582D01*
X52901325Y-61426528D01*
X52894500Y-61474000D01*
X51799992Y-61474000D01*
X51799992Y-59674995D01*
X52049993Y-59674995D01*
X52060485Y-59777694D01*
X52060485Y-59777695D01*
X52060486Y-59777697D01*
X52115633Y-59944119D01*
X52115635Y-59944124D01*
X52207676Y-60093345D01*
X52331646Y-60217315D01*
X52480867Y-60309356D01*
X52480872Y-60309358D01*
X52647291Y-60364504D01*
X52647292Y-60364504D01*
X52647294Y-60364505D01*
X52647301Y-60364506D01*
X52750011Y-60374999D01*
X52999991Y-60374999D01*
X53499992Y-60374999D01*
X53749952Y-60374999D01*
X53749964Y-60374999D01*
X53749978Y-60374998D01*
X53852689Y-60364505D01*
X54019111Y-60309358D01*
X54019116Y-60309356D01*
X54168337Y-60217315D01*
X54292307Y-60093345D01*
X54384348Y-59944124D01*
X54384350Y-59944119D01*
X54439497Y-59777697D01*
X54439498Y-59777690D01*
X54449991Y-59674986D01*
X54449992Y-59674973D01*
X54449992Y-59450000D01*
X53499992Y-59450000D01*
X53499992Y-60374999D01*
X52999991Y-60374999D01*
X52999992Y-60374998D01*
X52999992Y-59450000D01*
X52049993Y-59450000D01*
X52049993Y-59674995D01*
X51799992Y-59674995D01*
X51799992Y-58725007D01*
X52049992Y-58725007D01*
X52049992Y-58725010D01*
X52049992Y-58725013D01*
X52049992Y-58950000D01*
X52999992Y-58950000D01*
X53499992Y-58950000D01*
X54449991Y-58950000D01*
X54449991Y-58725028D01*
X54449990Y-58725013D01*
X54439497Y-58622302D01*
X54384350Y-58455880D01*
X54384348Y-58455875D01*
X54292307Y-58306654D01*
X54168337Y-58182684D01*
X54019116Y-58090643D01*
X54019111Y-58090641D01*
X54019102Y-58090638D01*
X53852691Y-58035494D01*
X53852686Y-58035493D01*
X53749983Y-58025000D01*
X53749978Y-58025000D01*
X53499992Y-58025000D01*
X53499992Y-58950000D01*
X52999992Y-58950000D01*
X52999992Y-58025000D01*
X52750029Y-58025000D01*
X52750021Y-58025000D01*
X52750011Y-58025000D01*
X52749998Y-58025001D01*
X52647296Y-58035493D01*
X52647294Y-58035494D01*
X52480879Y-58090638D01*
X52480871Y-58090641D01*
X52480869Y-58090642D01*
X52480867Y-58090643D01*
X52381386Y-58152003D01*
X52331644Y-58182685D01*
X52207677Y-58306652D01*
X52115633Y-58455879D01*
X52115630Y-58455888D01*
X52060486Y-58622299D01*
X52060485Y-58622304D01*
X52049992Y-58725007D01*
X51799992Y-58725007D01*
X51799992Y-54958000D01*
X52100000Y-54958000D01*
X52103536Y-54997775D01*
X52110608Y-55077329D01*
X52110731Y-55077917D01*
X52111343Y-55079894D01*
X52114250Y-55090055D01*
X52166557Y-55272861D01*
X52260721Y-55453129D01*
X52389246Y-55610753D01*
X52546870Y-55739278D01*
X52727138Y-55833442D01*
X52922671Y-55889390D01*
X52922674Y-55889391D01*
X53038747Y-55899709D01*
X53039919Y-55899837D01*
X53040138Y-55899928D01*
X53040711Y-55900000D01*
X53042002Y-55900000D01*
X53350000Y-55900000D01*
X53850000Y-55900000D01*
X54157998Y-55900000D01*
X54161225Y-55900000D01*
X54164394Y-55899455D01*
X54165604Y-55899323D01*
X54277325Y-55889391D01*
X54277328Y-55889390D01*
X54472861Y-55833442D01*
X54653129Y-55739278D01*
X54810753Y-55610753D01*
X54939278Y-55453129D01*
X55033442Y-55272861D01*
X55089390Y-55077328D01*
X55089391Y-55077325D01*
X55099323Y-54965604D01*
X55099455Y-54964394D01*
X55099708Y-54963785D01*
X55100000Y-54961980D01*
X55100000Y-53750000D01*
X53850000Y-53750000D01*
X53850000Y-55900000D01*
X53350000Y-55900000D01*
X53350000Y-53750000D01*
X52100000Y-53750000D01*
X52100000Y-54958000D01*
X51799992Y-54958000D01*
X51799992Y-52041999D01*
X52100000Y-52041999D01*
X52100000Y-53250000D01*
X53350000Y-53250000D01*
X53850000Y-53250000D01*
X55100000Y-53250000D01*
X55100000Y-52041124D01*
X55099837Y-52039919D01*
X55099709Y-52038747D01*
X55089391Y-51922674D01*
X55089390Y-51922671D01*
X55033442Y-51727138D01*
X54939278Y-51546870D01*
X54810753Y-51389246D01*
X54653129Y-51260721D01*
X54472861Y-51166557D01*
X54472860Y-51166556D01*
X54472859Y-51166556D01*
X54279894Y-51111343D01*
X54277917Y-51110731D01*
X54277329Y-51110608D01*
X54197775Y-51103536D01*
X54158000Y-51100000D01*
X54157998Y-51100000D01*
X53850000Y-51100000D01*
X53850000Y-53250000D01*
X53350000Y-53250000D01*
X53350000Y-51100000D01*
X53042000Y-51100000D01*
X53041999Y-51100000D01*
X53022111Y-51101768D01*
X52922669Y-51110608D01*
X52922080Y-51110731D01*
X52920104Y-51111343D01*
X52727139Y-51166556D01*
X52546869Y-51260721D01*
X52389246Y-51389246D01*
X52260721Y-51546869D01*
X52166556Y-51727139D01*
X52111343Y-51920104D01*
X52110731Y-51922080D01*
X52110608Y-51922669D01*
X52110608Y-51922674D01*
X52100000Y-52041999D01*
X51799992Y-52041999D01*
X51799992Y-50624000D01*
X51819677Y-50556961D01*
X51872481Y-50511206D01*
X51923992Y-50500000D01*
X55658162Y-50500000D01*
X55693098Y-50505023D01*
G37*
%TD.AperFunction*%
%TD*%
%TA.AperFunction,Conductor*%
%TO.N,/V5v_bias*%
G36*
X89293106Y-46314999D02*
G01*
X89308104Y-46319403D01*
X89323094Y-46329033D01*
X89340175Y-46334043D01*
X89366855Y-46357148D01*
X89368042Y-46358517D01*
X89395518Y-46413378D01*
X89397163Y-46420936D01*
X89400000Y-46447307D01*
X89400000Y-48394064D01*
X89399937Y-48394497D01*
X89399973Y-48394498D01*
X89399972Y-48394861D01*
X89396300Y-48419805D01*
X89394982Y-48428983D01*
X89394955Y-48429075D01*
X89394937Y-48429069D01*
X89394813Y-48429913D01*
X89390091Y-48445767D01*
X89390055Y-48445886D01*
X89390023Y-48445997D01*
X89388503Y-48451171D01*
X89378682Y-48466447D01*
X89373467Y-48483844D01*
X89353221Y-48506050D01*
X89350719Y-48509943D01*
X89350204Y-48510387D01*
X89343711Y-48515949D01*
X89341956Y-48517032D01*
X89339018Y-48519969D01*
X89335378Y-48523088D01*
X89328595Y-48526139D01*
X89305785Y-48541909D01*
X89295616Y-48546506D01*
X89295214Y-48545618D01*
X89278801Y-48548541D01*
X89271660Y-48551754D01*
X89265735Y-48550868D01*
X89234050Y-48556510D01*
X89233980Y-48557497D01*
X89231685Y-48557332D01*
X89231684Y-48557332D01*
X89231472Y-48557316D01*
X89230820Y-48557086D01*
X89230293Y-48557180D01*
X89229413Y-48557084D01*
X89229465Y-48556606D01*
X89169453Y-48535366D01*
X89165985Y-48532949D01*
X89149200Y-48518895D01*
X89147732Y-48517427D01*
X89147728Y-48517424D01*
X89147722Y-48517420D01*
X89147712Y-48517413D01*
X89031555Y-48445767D01*
X89003492Y-48428457D01*
X89003490Y-48428456D01*
X89003476Y-48428449D01*
X88842604Y-48375143D01*
X88743327Y-48365000D01*
X88743322Y-48365000D01*
X88720000Y-48365000D01*
X88720000Y-50314999D01*
X88743296Y-50314999D01*
X88743308Y-50314999D01*
X88743322Y-50314998D01*
X88842607Y-50304855D01*
X89003481Y-50251547D01*
X89003492Y-50251542D01*
X89147731Y-50162573D01*
X89147734Y-50162569D01*
X89153045Y-50158371D01*
X89157142Y-50154799D01*
X89161370Y-50151594D01*
X89167064Y-50149430D01*
X89172972Y-50145457D01*
X89172609Y-50144792D01*
X89174535Y-50143740D01*
X89174801Y-50144227D01*
X89184330Y-50137817D01*
X89191148Y-50134672D01*
X89191153Y-50134669D01*
X89193059Y-50133790D01*
X89193477Y-50134697D01*
X89205320Y-50132523D01*
X89210482Y-50128914D01*
X89222288Y-50128453D01*
X89226686Y-50126783D01*
X89231291Y-50127755D01*
X89254967Y-50123409D01*
X89255034Y-50122481D01*
X89257128Y-50122630D01*
X89257132Y-50122631D01*
X89258859Y-50122754D01*
X89259143Y-50122843D01*
X89259276Y-50122857D01*
X89259273Y-50122883D01*
X89271058Y-50126551D01*
X89280299Y-50126191D01*
X89312950Y-50139590D01*
X89313040Y-50139643D01*
X89337799Y-50158811D01*
X89347064Y-50168076D01*
X89346808Y-50168331D01*
X89368997Y-50192708D01*
X89370729Y-50195381D01*
X89370734Y-50195386D01*
X89372406Y-50197569D01*
X89373082Y-50199011D01*
X89373387Y-50199481D01*
X89373322Y-50199522D01*
X89377026Y-50207418D01*
X89382247Y-50212542D01*
X89394889Y-50245494D01*
X89396914Y-50254401D01*
X89400000Y-50281891D01*
X89400000Y-50608982D01*
X89394976Y-50643921D01*
X89389402Y-50662902D01*
X89357298Y-50716446D01*
X89351035Y-50722595D01*
X89333786Y-50736105D01*
X89323791Y-50744009D01*
X89323302Y-50743391D01*
X89304177Y-50757705D01*
X89290460Y-50765195D01*
X89222187Y-50780047D01*
X89222140Y-50780044D01*
X89220332Y-50779914D01*
X89162191Y-50760552D01*
X89158597Y-50758242D01*
X89155684Y-50756370D01*
X89138678Y-50742664D01*
X89138554Y-50742808D01*
X89135234Y-50739929D01*
X89135232Y-50739927D01*
X89135228Y-50739924D01*
X89135222Y-50739920D01*
X89135212Y-50739913D01*
X89027490Y-50673469D01*
X88990992Y-50650957D01*
X88990990Y-50650956D01*
X88990976Y-50650949D01*
X88830104Y-50597643D01*
X88730827Y-50587500D01*
X88730822Y-50587500D01*
X88707500Y-50587500D01*
X88707500Y-52537499D01*
X88730796Y-52537499D01*
X88730808Y-52537499D01*
X88730822Y-52537498D01*
X88830107Y-52527355D01*
X88990981Y-52474047D01*
X88990992Y-52474042D01*
X89135231Y-52385073D01*
X89135234Y-52385069D01*
X89138920Y-52382156D01*
X89142600Y-52378878D01*
X89144379Y-52377470D01*
X89149289Y-52375486D01*
X89160394Y-52367504D01*
X89160238Y-52367218D01*
X89160998Y-52366804D01*
X89161102Y-52366995D01*
X89164786Y-52364347D01*
X89176509Y-52358341D01*
X89176533Y-52358327D01*
X89176644Y-52358271D01*
X89207457Y-52351990D01*
X89209163Y-52351301D01*
X89210030Y-52351465D01*
X89242024Y-52344944D01*
X89242150Y-52344953D01*
X89242191Y-52344957D01*
X89246408Y-52345258D01*
X89311871Y-52369669D01*
X89325249Y-52381261D01*
X89329456Y-52385468D01*
X89330169Y-52385907D01*
X89331166Y-52386820D01*
X89335123Y-52389949D01*
X89334897Y-52390234D01*
X89335474Y-52390762D01*
X89339508Y-52392273D01*
X89358818Y-52412123D01*
X89364433Y-52417261D01*
X89365349Y-52418488D01*
X89369089Y-52423768D01*
X89370279Y-52425091D01*
X89373394Y-52429263D01*
X89376556Y-52437774D01*
X89394946Y-52475952D01*
X89396913Y-52484602D01*
X89400000Y-52512098D01*
X89400000Y-54458170D01*
X89394975Y-54493114D01*
X89390570Y-54508112D01*
X89380939Y-54523101D01*
X89375932Y-54540175D01*
X89352827Y-54566855D01*
X89351458Y-54568042D01*
X89296597Y-54595518D01*
X89289039Y-54597163D01*
X89262668Y-54600000D01*
X88956822Y-54600000D01*
X88921881Y-54594975D01*
X88906882Y-54590570D01*
X88891894Y-54580940D01*
X88874816Y-54575932D01*
X88848136Y-54552827D01*
X88846949Y-54551458D01*
X88819469Y-54496583D01*
X88817824Y-54489021D01*
X88815872Y-54470856D01*
X88814992Y-54469976D01*
X86864993Y-54469976D01*
X86863011Y-54471957D01*
X86859968Y-54493114D01*
X86855563Y-54508112D01*
X86817820Y-54566855D01*
X86817785Y-54566885D01*
X86817784Y-54566887D01*
X86817782Y-54566887D01*
X86816451Y-54568042D01*
X86761590Y-54595518D01*
X86754032Y-54597163D01*
X86727661Y-54600000D01*
X85614608Y-54600000D01*
X85547569Y-54580315D01*
X85501814Y-54527511D01*
X85491870Y-54458353D01*
X85504111Y-54425397D01*
X85501883Y-54424380D01*
X85565335Y-54285441D01*
X85565338Y-54285435D01*
X85585023Y-54218396D01*
X85585024Y-54218392D01*
X85605500Y-54075976D01*
X85605500Y-53963403D01*
X86864992Y-53963403D01*
X86864992Y-53969976D01*
X87589992Y-53969976D01*
X88089992Y-53969976D01*
X88814991Y-53969976D01*
X88814991Y-53963393D01*
X88808583Y-53892873D01*
X88808582Y-53892868D01*
X88758010Y-53730579D01*
X88758009Y-53730577D01*
X88670068Y-53585103D01*
X88670067Y-53585102D01*
X88670065Y-53585100D01*
X88670064Y-53585098D01*
X88549869Y-53464903D01*
X88549868Y-53464902D01*
X88549867Y-53464901D01*
X88481414Y-53423520D01*
X88481410Y-53423518D01*
X88404387Y-53376956D01*
X88404388Y-53376956D01*
X88325930Y-53352508D01*
X88318788Y-53349246D01*
X88298298Y-53331491D01*
X88189373Y-53321594D01*
X88171564Y-53319976D01*
X88171563Y-53319976D01*
X88089992Y-53319976D01*
X88089992Y-53969976D01*
X87589992Y-53969976D01*
X87589992Y-53319976D01*
X87589991Y-53319975D01*
X87508409Y-53319975D01*
X87437896Y-53326382D01*
X87437872Y-53326388D01*
X87275599Y-53376955D01*
X87275593Y-53376957D01*
X87130119Y-53464898D01*
X87130118Y-53464899D01*
X87009917Y-53585099D01*
X86921972Y-53730579D01*
X86871399Y-53892876D01*
X86864993Y-53963393D01*
X86864992Y-53963403D01*
X85605500Y-53963403D01*
X85605500Y-51860831D01*
X87507501Y-51860831D01*
X87517644Y-51960108D01*
X87570951Y-52120978D01*
X87570956Y-52120990D01*
X87570958Y-52120993D01*
X87659913Y-52265212D01*
X87659920Y-52265222D01*
X87659924Y-52265228D01*
X87659927Y-52265232D01*
X87659929Y-52265234D01*
X87659931Y-52265237D01*
X87779761Y-52385067D01*
X87779764Y-52385069D01*
X87779767Y-52385072D01*
X87779771Y-52385075D01*
X87779779Y-52385080D01*
X87779786Y-52385085D01*
X87823622Y-52412123D01*
X87924007Y-52474042D01*
X87924018Y-52474047D01*
X88084893Y-52527355D01*
X88184183Y-52537499D01*
X88207500Y-52537498D01*
X88207500Y-51812500D01*
X87507501Y-51812500D01*
X87507501Y-51860831D01*
X85605500Y-51860831D01*
X85605500Y-51333976D01*
X85597995Y-51264171D01*
X87507500Y-51264171D01*
X87507500Y-51264177D01*
X87507500Y-51312500D01*
X88207500Y-51312500D01*
X88207500Y-50587499D01*
X88184205Y-50587499D01*
X88184186Y-50587500D01*
X88184185Y-50587500D01*
X88184161Y-50587502D01*
X88084894Y-50597643D01*
X88084893Y-50597643D01*
X87924022Y-50650949D01*
X87924008Y-50650956D01*
X87924005Y-50650958D01*
X87779786Y-50739913D01*
X87779764Y-50739929D01*
X87779761Y-50739931D01*
X87659931Y-50859761D01*
X87659929Y-50859764D01*
X87659913Y-50859786D01*
X87570958Y-51004005D01*
X87570956Y-51004008D01*
X87570949Y-51004022D01*
X87517643Y-51164894D01*
X87507500Y-51264171D01*
X85597995Y-51264171D01*
X85593947Y-51226520D01*
X85582741Y-51175009D01*
X85571711Y-51141870D01*
X85548616Y-51072478D01*
X85548613Y-51072472D01*
X85470828Y-50951438D01*
X85470825Y-50951433D01*
X85470820Y-50951427D01*
X85425076Y-50898635D01*
X85425072Y-50898632D01*
X85425070Y-50898629D01*
X85316336Y-50804409D01*
X85316333Y-50804407D01*
X85316331Y-50804406D01*
X85185465Y-50744640D01*
X85185460Y-50744638D01*
X85185459Y-50744638D01*
X85118420Y-50724953D01*
X85118422Y-50724953D01*
X85118417Y-50724952D01*
X85070944Y-50718126D01*
X84976000Y-50704476D01*
X84975998Y-50704476D01*
X84847800Y-50704476D01*
X84839039Y-50701903D01*
X84829999Y-50703192D01*
X84806040Y-50692213D01*
X84780761Y-50684791D01*
X84773099Y-50677120D01*
X84766480Y-50674087D01*
X84746069Y-50650056D01*
X84743401Y-50647385D01*
X84742816Y-50646472D01*
X84682962Y-50549435D01*
X84682959Y-50549431D01*
X84676454Y-50542926D01*
X84669218Y-50531635D01*
X84668469Y-50529073D01*
X84664783Y-50524149D01*
X84657293Y-50510431D01*
X84642443Y-50442159D01*
X84642572Y-50440356D01*
X84661937Y-50382171D01*
X84666131Y-50375645D01*
X84680495Y-50357824D01*
X84682561Y-50355210D01*
X84682565Y-50355207D01*
X84771534Y-50210968D01*
X84771539Y-50210957D01*
X84775498Y-50199011D01*
X84791927Y-50149430D01*
X84824847Y-50050082D01*
X84834991Y-49950798D01*
X84834992Y-49950785D01*
X84834992Y-49927476D01*
X82884993Y-49927476D01*
X82884993Y-49950807D01*
X82895136Y-50050084D01*
X82944641Y-50199481D01*
X82948444Y-50210957D01*
X82948449Y-50210968D01*
X82961780Y-50232580D01*
X83037405Y-50355188D01*
X83037414Y-50355201D01*
X83037416Y-50355204D01*
X83037418Y-50355207D01*
X83037424Y-50355215D01*
X83037425Y-50355216D01*
X83039979Y-50358161D01*
X83055140Y-50379986D01*
X83062689Y-50393812D01*
X83077540Y-50462070D01*
X83077411Y-50463876D01*
X83058041Y-50522081D01*
X83053863Y-50528582D01*
X83040893Y-50544677D01*
X83040910Y-50544691D01*
X83039359Y-50546582D01*
X83037239Y-50549214D01*
X83037033Y-50549419D01*
X83037020Y-50549435D01*
X83037014Y-50549444D01*
X82977721Y-50645573D01*
X82925773Y-50692298D01*
X82872183Y-50704476D01*
X82232463Y-50704476D01*
X82165424Y-50684791D01*
X82119669Y-50631987D01*
X82109725Y-50562829D01*
X82126924Y-50515379D01*
X82129976Y-50510431D01*
X82169348Y-50446600D01*
X82169350Y-50446595D01*
X82224497Y-50280173D01*
X82224498Y-50280166D01*
X82234991Y-50177462D01*
X82234992Y-50177449D01*
X82234992Y-49927476D01*
X79884993Y-49927476D01*
X79884993Y-50177471D01*
X79895485Y-50280170D01*
X79895485Y-50280171D01*
X79895486Y-50280173D01*
X79903665Y-50304854D01*
X79948565Y-50440356D01*
X79950633Y-50446595D01*
X79950635Y-50446600D01*
X79980770Y-50495456D01*
X79993059Y-50515379D01*
X80011499Y-50582772D01*
X79990576Y-50649435D01*
X79936934Y-50694205D01*
X79887520Y-50704476D01*
X79643992Y-50704476D01*
X79643983Y-50704476D01*
X79643982Y-50704477D01*
X79536541Y-50716028D01*
X79536529Y-50716030D01*
X79485019Y-50727236D01*
X79382494Y-50761359D01*
X79382488Y-50761362D01*
X79261454Y-50839147D01*
X79261443Y-50839155D01*
X79208651Y-50884899D01*
X79114425Y-50993640D01*
X79114422Y-50993644D01*
X79054656Y-51124510D01*
X79034968Y-51191558D01*
X79025875Y-51254801D01*
X79014492Y-51333976D01*
X79014492Y-54075976D01*
X79014493Y-54075985D01*
X79026044Y-54183426D01*
X79026046Y-54183438D01*
X79037252Y-54234948D01*
X79071375Y-54337473D01*
X79071378Y-54337479D01*
X79117317Y-54408960D01*
X79137002Y-54475999D01*
X79117318Y-54543039D01*
X79064514Y-54588794D01*
X79013002Y-54600000D01*
X78691822Y-54600000D01*
X78691817Y-54599999D01*
X78691815Y-54600000D01*
X78656881Y-54594975D01*
X78641882Y-54590570D01*
X78583136Y-54552827D01*
X78583107Y-54552793D01*
X78583106Y-54552793D01*
X78583105Y-54552791D01*
X78581949Y-54551458D01*
X78554469Y-54496583D01*
X78552824Y-54489021D01*
X78549992Y-54462668D01*
X78549992Y-52859976D01*
X74941822Y-52859976D01*
X74941817Y-52859975D01*
X74941815Y-52859976D01*
X74906881Y-52854951D01*
X74891882Y-52850546D01*
X74833136Y-52812803D01*
X74833107Y-52812769D01*
X74833106Y-52812769D01*
X74833105Y-52812767D01*
X74831949Y-52811434D01*
X74804469Y-52756559D01*
X74802824Y-52748997D01*
X74799992Y-52722644D01*
X74799992Y-51135476D01*
X75659992Y-51135476D01*
X75662607Y-51164893D01*
X75670600Y-51254805D01*
X75670723Y-51255393D01*
X75671335Y-51257370D01*
X75693254Y-51333976D01*
X75726549Y-51450337D01*
X75820713Y-51630605D01*
X75949238Y-51788229D01*
X76106862Y-51916754D01*
X76287130Y-52010918D01*
X76482663Y-52066866D01*
X76482666Y-52066867D01*
X76598739Y-52077185D01*
X76599911Y-52077313D01*
X76600130Y-52077404D01*
X76600703Y-52077476D01*
X76601994Y-52077476D01*
X76909992Y-52077476D01*
X77409992Y-52077476D01*
X77717990Y-52077476D01*
X77721217Y-52077476D01*
X77724386Y-52076931D01*
X77725596Y-52076799D01*
X77837317Y-52066867D01*
X77837320Y-52066866D01*
X78032853Y-52010918D01*
X78213121Y-51916754D01*
X78370745Y-51788229D01*
X78499270Y-51630605D01*
X78593434Y-51450337D01*
X78649382Y-51254804D01*
X78649383Y-51254801D01*
X78659315Y-51143080D01*
X78659447Y-51141870D01*
X78659700Y-51141261D01*
X78659992Y-51139456D01*
X78659992Y-49927476D01*
X77409992Y-49927476D01*
X77409992Y-52077476D01*
X76909992Y-52077476D01*
X76909992Y-49927476D01*
X75659992Y-49927476D01*
X75659992Y-51135476D01*
X74799992Y-51135476D01*
X74799992Y-49638331D01*
X87520001Y-49638331D01*
X87530144Y-49737608D01*
X87583451Y-49898478D01*
X87583456Y-49898490D01*
X87583458Y-49898493D01*
X87672413Y-50042712D01*
X87672420Y-50042722D01*
X87672424Y-50042728D01*
X87672427Y-50042732D01*
X87672429Y-50042734D01*
X87672431Y-50042737D01*
X87792261Y-50162567D01*
X87792264Y-50162569D01*
X87792267Y-50162572D01*
X87792271Y-50162575D01*
X87792279Y-50162580D01*
X87792286Y-50162585D01*
X87863509Y-50206516D01*
X87936507Y-50251542D01*
X87936518Y-50251547D01*
X88097393Y-50304855D01*
X88196683Y-50314999D01*
X88220000Y-50314998D01*
X88220000Y-49590000D01*
X87520001Y-49590000D01*
X87520001Y-49638331D01*
X74799992Y-49638331D01*
X74799992Y-48219475D01*
X75659992Y-48219475D01*
X75659992Y-49427476D01*
X76909992Y-49427476D01*
X77409992Y-49427476D01*
X78659992Y-49427476D01*
X78659992Y-49177483D01*
X79884992Y-49177483D01*
X79884992Y-49177486D01*
X79884992Y-49177489D01*
X79884992Y-49427476D01*
X80809992Y-49427476D01*
X81309992Y-49427476D01*
X82234991Y-49427476D01*
X82234991Y-49404147D01*
X82884992Y-49404147D01*
X82884992Y-49404150D01*
X82884992Y-49404153D01*
X82884992Y-49427476D01*
X83609992Y-49427476D01*
X84109992Y-49427476D01*
X84834991Y-49427476D01*
X84834991Y-49404168D01*
X84834990Y-49404153D01*
X84824847Y-49304868D01*
X84771539Y-49143994D01*
X84771537Y-49143989D01*
X84746640Y-49103625D01*
X84746639Y-49103623D01*
X84708426Y-49041671D01*
X87520000Y-49041671D01*
X87520000Y-49041677D01*
X87520000Y-49090000D01*
X88220000Y-49090000D01*
X88220000Y-48364999D01*
X88196705Y-48364999D01*
X88196686Y-48365000D01*
X88196685Y-48365000D01*
X88196661Y-48365002D01*
X88097394Y-48375143D01*
X88097393Y-48375143D01*
X87936522Y-48428449D01*
X87936508Y-48428456D01*
X87936505Y-48428458D01*
X87792286Y-48517413D01*
X87792264Y-48517429D01*
X87792261Y-48517431D01*
X87672431Y-48637261D01*
X87672429Y-48637264D01*
X87672413Y-48637286D01*
X87583458Y-48781505D01*
X87583456Y-48781508D01*
X87583449Y-48781522D01*
X87530143Y-48942394D01*
X87520000Y-49041671D01*
X84708426Y-49041671D01*
X84682565Y-48999744D01*
X84562724Y-48879903D01*
X84562720Y-48879900D01*
X84562717Y-48879898D01*
X84562704Y-48879889D01*
X84454982Y-48813445D01*
X84418484Y-48790933D01*
X84418482Y-48790932D01*
X84418468Y-48790925D01*
X84257596Y-48737619D01*
X84158319Y-48727476D01*
X84158314Y-48727476D01*
X84109992Y-48727476D01*
X84109992Y-49427476D01*
X83609992Y-49427476D01*
X83609992Y-48727475D01*
X83609991Y-48727474D01*
X83609990Y-48727474D01*
X83561705Y-48727475D01*
X83561677Y-48727476D01*
X83561643Y-48727479D01*
X83462382Y-48737620D01*
X83301512Y-48790927D01*
X83301500Y-48790932D01*
X83301497Y-48790934D01*
X83157278Y-48879889D01*
X83157256Y-48879905D01*
X83157253Y-48879907D01*
X83037423Y-48999737D01*
X83037421Y-48999740D01*
X83037405Y-48999762D01*
X82948450Y-49143981D01*
X82948448Y-49143984D01*
X82948441Y-49143998D01*
X82895135Y-49304870D01*
X82884992Y-49404147D01*
X82234991Y-49404147D01*
X82234991Y-49177504D01*
X82234990Y-49177489D01*
X82224497Y-49074778D01*
X82169350Y-48908356D01*
X82169348Y-48908351D01*
X82077307Y-48759130D01*
X81953337Y-48635160D01*
X81804116Y-48543119D01*
X81804111Y-48543117D01*
X81780720Y-48535366D01*
X81637691Y-48487970D01*
X81637686Y-48487969D01*
X81534983Y-48477476D01*
X81534978Y-48477476D01*
X81309992Y-48477476D01*
X81309992Y-49427476D01*
X80809992Y-49427476D01*
X80809992Y-48477476D01*
X80585029Y-48477476D01*
X80585021Y-48477476D01*
X80585011Y-48477476D01*
X80584998Y-48477477D01*
X80482296Y-48487969D01*
X80482294Y-48487970D01*
X80315879Y-48543114D01*
X80315871Y-48543117D01*
X80315869Y-48543118D01*
X80315867Y-48543119D01*
X80216386Y-48604479D01*
X80166644Y-48635161D01*
X80042677Y-48759128D01*
X79950633Y-48908355D01*
X79950630Y-48908364D01*
X79895486Y-49074775D01*
X79895485Y-49074780D01*
X79884992Y-49177483D01*
X78659992Y-49177483D01*
X78659992Y-48218600D01*
X78659829Y-48217395D01*
X78659701Y-48216223D01*
X78649383Y-48100150D01*
X78649382Y-48100147D01*
X78593434Y-47904614D01*
X78499270Y-47724346D01*
X78370745Y-47566722D01*
X78213121Y-47438197D01*
X78032853Y-47344033D01*
X78032852Y-47344032D01*
X78032851Y-47344032D01*
X77839886Y-47288819D01*
X77837909Y-47288207D01*
X77837321Y-47288084D01*
X77757767Y-47281012D01*
X77717992Y-47277476D01*
X77717990Y-47277476D01*
X77409992Y-47277476D01*
X77409992Y-49427476D01*
X76909992Y-49427476D01*
X76909992Y-47277476D01*
X76601992Y-47277476D01*
X76601991Y-47277476D01*
X76582103Y-47279244D01*
X76482661Y-47288084D01*
X76482072Y-47288207D01*
X76480096Y-47288819D01*
X76287131Y-47344032D01*
X76106861Y-47438197D01*
X75949238Y-47566722D01*
X75820713Y-47724345D01*
X75726548Y-47904615D01*
X75674306Y-48087193D01*
X75674305Y-48087201D01*
X75670601Y-48100147D01*
X75670600Y-48100150D01*
X75659992Y-48219475D01*
X74799992Y-48219475D01*
X74799992Y-46451805D01*
X74805015Y-46416869D01*
X74809419Y-46401871D01*
X74847164Y-46343120D01*
X74847192Y-46343095D01*
X74847191Y-46343095D01*
X74848533Y-46341932D01*
X74903412Y-46314453D01*
X74910971Y-46312809D01*
X74937324Y-46309976D01*
X89258170Y-46309976D01*
X89293106Y-46314999D01*
G37*
%TD.AperFunction*%
%TD*%
%TA.AperFunction,Conductor*%
%TO.N,GND*%
G36*
X72893031Y-45539661D02*
G01*
X72938786Y-45592465D01*
X72949992Y-45643976D01*
X72949992Y-47265976D01*
X72930307Y-47333015D01*
X72877503Y-47378770D01*
X72825992Y-47389976D01*
X68913992Y-47389976D01*
X68846953Y-47370291D01*
X68801198Y-47317487D01*
X68789992Y-47265976D01*
X68789992Y-45643976D01*
X68809677Y-45576937D01*
X68862481Y-45531182D01*
X68913992Y-45519976D01*
X72825992Y-45519976D01*
X72893031Y-45539661D01*
G37*
%TD.AperFunction*%
%TD*%
%TA.AperFunction,Conductor*%
%TO.N,GND*%
G36*
X63558031Y-42319685D02*
G01*
X63603786Y-42372489D01*
X63614992Y-42424000D01*
X63614992Y-44776000D01*
X63595307Y-44843039D01*
X63542503Y-44888794D01*
X63490992Y-44900000D01*
X62338992Y-44900000D01*
X62271953Y-44880315D01*
X62226198Y-44827511D01*
X62214992Y-44776000D01*
X62214992Y-42424000D01*
X62234677Y-42356961D01*
X62287481Y-42311206D01*
X62338992Y-42300000D01*
X63490992Y-42300000D01*
X63558031Y-42319685D01*
G37*
%TD.AperFunction*%
%TD*%
%TA.AperFunction,Conductor*%
%TO.N,/V5v*%
G36*
X51743031Y-50519685D02*
G01*
X51788786Y-50572489D01*
X51799992Y-50624000D01*
X51799992Y-56476000D01*
X51780307Y-56543039D01*
X51727503Y-56588794D01*
X51675992Y-56600000D01*
X50141830Y-56600000D01*
X50141825Y-56599999D01*
X50141823Y-56600000D01*
X50106889Y-56594975D01*
X50091890Y-56590570D01*
X50033144Y-56552827D01*
X50033115Y-56552793D01*
X50033114Y-56552793D01*
X50033113Y-56552791D01*
X50031957Y-56551458D01*
X50004477Y-56496583D01*
X50002832Y-56489021D01*
X50000000Y-56462668D01*
X50000000Y-50641829D01*
X50005023Y-50606893D01*
X50009427Y-50591895D01*
X50047172Y-50533144D01*
X50047200Y-50533119D01*
X50047199Y-50533119D01*
X50048541Y-50531956D01*
X50103420Y-50504477D01*
X50110979Y-50502833D01*
X50137332Y-50500000D01*
X51675992Y-50500000D01*
X51743031Y-50519685D01*
G37*
%TD.AperFunction*%
%TD*%
%TA.AperFunction,Conductor*%
%TO.N,GND*%
G36*
X50493031Y-57419685D02*
G01*
X50538786Y-57472489D01*
X50549992Y-57524000D01*
X50549992Y-60866024D01*
X50530307Y-60933063D01*
X50477503Y-60978818D01*
X50425992Y-60990024D01*
X48824000Y-60990024D01*
X48756961Y-60970339D01*
X48711206Y-60917535D01*
X48700000Y-60866024D01*
X48700000Y-57524000D01*
X48719685Y-57456961D01*
X48772489Y-57411206D01*
X48824000Y-57400000D01*
X50425992Y-57400000D01*
X50493031Y-57419685D01*
G37*
%TD.AperFunction*%
%TD*%
%TA.AperFunction,Conductor*%
%TO.N,GND*%
G36*
X102832539Y-63619685D02*
G01*
X102878294Y-63672489D01*
X102889500Y-63724000D01*
X102889500Y-66776000D01*
X102869815Y-66843039D01*
X102817011Y-66888794D01*
X102765500Y-66900000D01*
X98384000Y-66900000D01*
X98316961Y-66880315D01*
X98271206Y-66827511D01*
X98260000Y-66776000D01*
X98260000Y-63724000D01*
X98279685Y-63656961D01*
X98332489Y-63611206D01*
X98384000Y-63600000D01*
X102765500Y-63600000D01*
X102832539Y-63619685D01*
G37*
%TD.AperFunction*%
%TD*%
%TA.AperFunction,Conductor*%
%TO.N,GND*%
G36*
X87643039Y-70269685D02*
G01*
X87688794Y-70322489D01*
X87700000Y-70374000D01*
X87700000Y-71526000D01*
X87680315Y-71593039D01*
X87627511Y-71638794D01*
X87576000Y-71650000D01*
X85224000Y-71650000D01*
X85156961Y-71630315D01*
X85111206Y-71577511D01*
X85100000Y-71526000D01*
X85100000Y-70374000D01*
X85119685Y-70306961D01*
X85172489Y-70261206D01*
X85224000Y-70250000D01*
X87576000Y-70250000D01*
X87643039Y-70269685D01*
G37*
%TD.AperFunction*%
%TD*%
%TA.AperFunction,Conductor*%
%TO.N,GND*%
G36*
X64343031Y-46619685D02*
G01*
X64388786Y-46672489D01*
X64399992Y-46724000D01*
X64399992Y-49376000D01*
X64380307Y-49443039D01*
X64327503Y-49488794D01*
X64275992Y-49500000D01*
X62923992Y-49500000D01*
X62856953Y-49480315D01*
X62811198Y-49427511D01*
X62799992Y-49376000D01*
X62799992Y-46724000D01*
X62819677Y-46656961D01*
X62872481Y-46611206D01*
X62923992Y-46600000D01*
X64275992Y-46600000D01*
X64343031Y-46619685D01*
G37*
%TD.AperFunction*%
%TD*%
%TA.AperFunction,Conductor*%
%TO.N,GND*%
G36*
X51743039Y-68119685D02*
G01*
X51788794Y-68172489D01*
X51800000Y-68224000D01*
X51800000Y-71176000D01*
X51780315Y-71243039D01*
X51727511Y-71288794D01*
X51676000Y-71300000D01*
X47304500Y-71300000D01*
X47237461Y-71280315D01*
X47191706Y-71227511D01*
X47180500Y-71176000D01*
X47180500Y-68224000D01*
X47200185Y-68156961D01*
X47252989Y-68111206D01*
X47304500Y-68100000D01*
X51676000Y-68100000D01*
X51743039Y-68119685D01*
G37*
%TD.AperFunction*%
%TD*%
%TA.AperFunction,Conductor*%
%TO.N,GND*%
G36*
X55053039Y-61369685D02*
G01*
X55098794Y-61422489D01*
X55110000Y-61474000D01*
X55110000Y-65066000D01*
X55090315Y-65133039D01*
X55037511Y-65178794D01*
X54986000Y-65190000D01*
X53524000Y-65190000D01*
X53456961Y-65170315D01*
X53411206Y-65117511D01*
X53400000Y-65066000D01*
X53400000Y-61474000D01*
X53419685Y-61406961D01*
X53472489Y-61361206D01*
X53524000Y-61350000D01*
X54986000Y-61350000D01*
X55053039Y-61369685D01*
G37*
%TD.AperFunction*%
%TD*%
%TA.AperFunction,Conductor*%
%TO.N,GND*%
G36*
X67643047Y-73154709D02*
G01*
X67688802Y-73207513D01*
X67700008Y-73259024D01*
X67700008Y-74861016D01*
X67680323Y-74928055D01*
X67627519Y-74973810D01*
X67576008Y-74985016D01*
X64233984Y-74985016D01*
X64166945Y-74965331D01*
X64121190Y-74912527D01*
X64109984Y-74861016D01*
X64109984Y-73259024D01*
X64129669Y-73191985D01*
X64182473Y-73146230D01*
X64233984Y-73135024D01*
X67576008Y-73135024D01*
X67643047Y-73154709D01*
G37*
%TD.AperFunction*%
%TD*%
%TA.AperFunction,Conductor*%
%TO.N,GND*%
G36*
X72491260Y-69419685D02*
G01*
X72537015Y-69472489D01*
X72548221Y-69524000D01*
X72548221Y-71576000D01*
X72528536Y-71643039D01*
X72475732Y-71688794D01*
X72424221Y-71700000D01*
X69272222Y-71700000D01*
X69205183Y-71680315D01*
X69159428Y-71627511D01*
X69148222Y-71576000D01*
X69148222Y-70545000D01*
X69148222Y-69400000D01*
X69150000Y-69400000D01*
X72424221Y-69400000D01*
X72491260Y-69419685D01*
G37*
%TD.AperFunction*%
%TD*%
%TA.AperFunction,Conductor*%
%TO.N,GND*%
G36*
X62143039Y-55699685D02*
G01*
X62188794Y-55752489D01*
X62200000Y-55804000D01*
X62200000Y-57466024D01*
X62180315Y-57533063D01*
X62127511Y-57578818D01*
X62076000Y-57590024D01*
X57764000Y-57590024D01*
X57696961Y-57570339D01*
X57651206Y-57517535D01*
X57640000Y-57466024D01*
X57640000Y-55804000D01*
X57659685Y-55736961D01*
X57712489Y-55691206D01*
X57764000Y-55680000D01*
X62076000Y-55680000D01*
X62143039Y-55699685D01*
G37*
%TD.AperFunction*%
%TD*%
%TA.AperFunction,Conductor*%
%TO.N,GND*%
G36*
X85043039Y-51229661D02*
G01*
X85088794Y-51282465D01*
X85100000Y-51333976D01*
X85100000Y-54075976D01*
X85080315Y-54143015D01*
X85027511Y-54188770D01*
X84976000Y-54199976D01*
X79643992Y-54199976D01*
X79576953Y-54180291D01*
X79531198Y-54127487D01*
X79519992Y-54075976D01*
X79519992Y-51333976D01*
X79539677Y-51266937D01*
X79592481Y-51221182D01*
X79643992Y-51209976D01*
X84976000Y-51209976D01*
X85043039Y-51229661D01*
G37*
%TD.AperFunction*%
%TD*%
%TA.AperFunction,Conductor*%
%TO.N,GND*%
G36*
X67367539Y-65964685D02*
G01*
X67413294Y-66017489D01*
X67424500Y-66069000D01*
X67424500Y-66296356D01*
X67404815Y-66363395D01*
X67352011Y-66409150D01*
X67282853Y-66419094D01*
X67230421Y-66398654D01*
X67222477Y-66393212D01*
X67119876Y-66347910D01*
X67094794Y-66345000D01*
X66950000Y-66345000D01*
X66950000Y-67524999D01*
X67094786Y-67524999D01*
X67094808Y-67524997D01*
X67119869Y-67522091D01*
X67119873Y-67522090D01*
X67222474Y-67476788D01*
X67230404Y-67468859D01*
X67291726Y-67435373D01*
X67361418Y-67440355D01*
X67417353Y-67482224D01*
X67417354Y-67482226D01*
X67449374Y-67524999D01*
X67487033Y-67575305D01*
X67492455Y-67582547D01*
X67607664Y-67668793D01*
X67607671Y-67668797D01*
X67609272Y-67669394D01*
X67742517Y-67719091D01*
X67802127Y-67725500D01*
X68397872Y-67725499D01*
X68457483Y-67719091D01*
X68592331Y-67668796D01*
X68707546Y-67582546D01*
X68793796Y-67467331D01*
X68844091Y-67332483D01*
X68850500Y-67272873D01*
X68850499Y-66597128D01*
X68844091Y-66537517D01*
X68793796Y-66402669D01*
X68793793Y-66402666D01*
X68790667Y-66396939D01*
X68775500Y-66337513D01*
X68775500Y-66069000D01*
X68795185Y-66001961D01*
X68847989Y-65956206D01*
X68899500Y-65945000D01*
X68975500Y-65945000D01*
X69042539Y-65964685D01*
X69088294Y-66017489D01*
X69099500Y-66069000D01*
X69099500Y-67841535D01*
X69125457Y-67972028D01*
X69125459Y-67972036D01*
X69140561Y-68008495D01*
X69150000Y-68055948D01*
X69150000Y-70545000D01*
X66749500Y-70545000D01*
X66682461Y-70525315D01*
X66636706Y-70472511D01*
X66625500Y-70421000D01*
X66625500Y-70106162D01*
X66645185Y-70039123D01*
X66661815Y-70018485D01*
X66898482Y-69781817D01*
X66959805Y-69748333D01*
X66986163Y-69745499D01*
X67097871Y-69745499D01*
X67097872Y-69745499D01*
X67157483Y-69739091D01*
X67292331Y-69688796D01*
X67407546Y-69602546D01*
X67413423Y-69594695D01*
X67469352Y-69552820D01*
X67512694Y-69544999D01*
X67799999Y-69544999D01*
X68100000Y-69544999D01*
X68394786Y-69544999D01*
X68394808Y-69544997D01*
X68419869Y-69542091D01*
X68419873Y-69542090D01*
X68522474Y-69496788D01*
X68522479Y-69496785D01*
X68601785Y-69417479D01*
X68601788Y-69417474D01*
X68647089Y-69314877D01*
X68647089Y-69314875D01*
X68649999Y-69289794D01*
X68650000Y-69289791D01*
X68650000Y-69105000D01*
X68100000Y-69105000D01*
X68100000Y-69544999D01*
X67799999Y-69544999D01*
X67800000Y-69544998D01*
X67800000Y-68805000D01*
X68100000Y-68805000D01*
X68649999Y-68805000D01*
X68649999Y-68620214D01*
X68649997Y-68620191D01*
X68647091Y-68595130D01*
X68647090Y-68595126D01*
X68601788Y-68492525D01*
X68601785Y-68492520D01*
X68522479Y-68413214D01*
X68522474Y-68413211D01*
X68419876Y-68367910D01*
X68394794Y-68365000D01*
X68100000Y-68365000D01*
X68100000Y-68805000D01*
X67800000Y-68805000D01*
X67800000Y-68365000D01*
X67512694Y-68365000D01*
X67445655Y-68345315D01*
X67413429Y-68315313D01*
X67407546Y-68307454D01*
X67407544Y-68307452D01*
X67407543Y-68307451D01*
X67292335Y-68221206D01*
X67292328Y-68221202D01*
X67157486Y-68170910D01*
X67157485Y-68170909D01*
X67157483Y-68170909D01*
X67097873Y-68164500D01*
X67097863Y-68164500D01*
X66502129Y-68164500D01*
X66502123Y-68164501D01*
X66442516Y-68170908D01*
X66307671Y-68221202D01*
X66307664Y-68221206D01*
X66192455Y-68307452D01*
X66192452Y-68307455D01*
X66106206Y-68422664D01*
X66106202Y-68422671D01*
X66055908Y-68557517D01*
X66049501Y-68617116D01*
X66049500Y-68617135D01*
X66049500Y-68668836D01*
X66029815Y-68735875D01*
X66013181Y-68756517D01*
X65786518Y-68983181D01*
X65725195Y-69016666D01*
X65698837Y-69019500D01*
X65324008Y-69019500D01*
X65256969Y-68999815D01*
X65211214Y-68947011D01*
X65200008Y-68895500D01*
X65200008Y-67269785D01*
X66250001Y-67269785D01*
X66250002Y-67269808D01*
X66252908Y-67294869D01*
X66252909Y-67294873D01*
X66298211Y-67397474D01*
X66298214Y-67397479D01*
X66377520Y-67476785D01*
X66377525Y-67476788D01*
X66480123Y-67522089D01*
X66505206Y-67524999D01*
X66649999Y-67524999D01*
X66650000Y-67524998D01*
X66650000Y-67085000D01*
X66250001Y-67085000D01*
X66250001Y-67269785D01*
X65200008Y-67269785D01*
X65200008Y-66600205D01*
X66250000Y-66600205D01*
X66250000Y-66785000D01*
X66650000Y-66785000D01*
X66650000Y-66345000D01*
X66505214Y-66345000D01*
X66505191Y-66345002D01*
X66480130Y-66347908D01*
X66480126Y-66347909D01*
X66377525Y-66393211D01*
X66377520Y-66393214D01*
X66298214Y-66472520D01*
X66298211Y-66472525D01*
X66252910Y-66575122D01*
X66252910Y-66575124D01*
X66250000Y-66600205D01*
X65200008Y-66600205D01*
X65200008Y-66069000D01*
X65219693Y-66001961D01*
X65272497Y-65956206D01*
X65324008Y-65945000D01*
X67300500Y-65945000D01*
X67367539Y-65964685D01*
G37*
%TD.AperFunction*%
%TD*%
%TA.AperFunction,Conductor*%
%TO.N,GND*%
G36*
X55575426Y-67428565D02*
G01*
X55624832Y-67477970D01*
X55640000Y-67537398D01*
X55640000Y-68406000D01*
X55620315Y-68473039D01*
X55567511Y-68518794D01*
X55516000Y-68530000D01*
X53364000Y-68530000D01*
X53296961Y-68510315D01*
X53251206Y-68457511D01*
X53240000Y-68406000D01*
X53240000Y-67649500D01*
X53259685Y-67582461D01*
X53312489Y-67536706D01*
X53364000Y-67525500D01*
X54095300Y-67525500D01*
X54138632Y-67533317D01*
X54167517Y-67544091D01*
X54227127Y-67550500D01*
X55172872Y-67550499D01*
X55232483Y-67544091D01*
X55367331Y-67493796D01*
X55388472Y-67477970D01*
X55441689Y-67438132D01*
X55507153Y-67413714D01*
X55575426Y-67428565D01*
G37*
%TD.AperFunction*%
%TD*%
%TA.AperFunction,Conductor*%
%TO.N,GND*%
G36*
X91743039Y-48219685D02*
G01*
X91788794Y-48272489D01*
X91800000Y-48324000D01*
X91800000Y-52576000D01*
X91780315Y-52643039D01*
X91727511Y-52688794D01*
X91676000Y-52700000D01*
X90151500Y-52700000D01*
X90084461Y-52680315D01*
X90038706Y-52627511D01*
X90027500Y-52576000D01*
X90027500Y-48324000D01*
X90047185Y-48256961D01*
X90099989Y-48211206D01*
X90151500Y-48200000D01*
X91676000Y-48200000D01*
X91743039Y-48219685D01*
G37*
%TD.AperFunction*%
%TD*%
%TA.AperFunction,Conductor*%
%TO.N,GND*%
G36*
X73943039Y-63919685D02*
G01*
X73988794Y-63972489D01*
X74000000Y-64024000D01*
X74000000Y-66776000D01*
X73980315Y-66843039D01*
X73927511Y-66888794D01*
X73876000Y-66900000D01*
X72550478Y-66900000D01*
X72520557Y-66896335D01*
X72427090Y-66873091D01*
X72343892Y-66852400D01*
X72318229Y-66850660D01*
X72301123Y-66849500D01*
X72301121Y-66849500D01*
X71124000Y-66849500D01*
X71056961Y-66829815D01*
X71011206Y-66777011D01*
X71000000Y-66725500D01*
X71000000Y-64024000D01*
X71019685Y-63956961D01*
X71072489Y-63911206D01*
X71124000Y-63900000D01*
X73876000Y-63900000D01*
X73943039Y-63919685D01*
G37*
%TD.AperFunction*%
%TD*%
%TA.AperFunction,Conductor*%
%TO.N,GND*%
G36*
X87743039Y-64519685D02*
G01*
X87788794Y-64572489D01*
X87800000Y-64624000D01*
X87800000Y-65776000D01*
X87780315Y-65843039D01*
X87727511Y-65888794D01*
X87676000Y-65900000D01*
X85424500Y-65900000D01*
X85357461Y-65880315D01*
X85311706Y-65827511D01*
X85300500Y-65776000D01*
X85300500Y-65708331D01*
X85300499Y-65708318D01*
X85290436Y-65609816D01*
X85290436Y-65609815D01*
X85237549Y-65450213D01*
X85218461Y-65419266D01*
X85200000Y-65354170D01*
X85200000Y-64624000D01*
X85219685Y-64556961D01*
X85272489Y-64511206D01*
X85324000Y-64500000D01*
X87676000Y-64500000D01*
X87743039Y-64519685D01*
G37*
%TD.AperFunction*%
%TD*%
%TA.AperFunction,Conductor*%
%TO.N,/V12v*%
G36*
X73753106Y-39014999D02*
G01*
X73768104Y-39019403D01*
X73826855Y-39057148D01*
X73828042Y-39058517D01*
X73855518Y-39113378D01*
X73857163Y-39120936D01*
X73860000Y-39147307D01*
X73860000Y-55009976D01*
X78328788Y-55009976D01*
X78380295Y-55021180D01*
X78499434Y-55075584D01*
X78499438Y-55075585D01*
X78499440Y-55075586D01*
X78514439Y-55079991D01*
X78584909Y-55095325D01*
X78619843Y-55100350D01*
X78637553Y-55102579D01*
X78647505Y-55102228D01*
X78664088Y-55102753D01*
X78691822Y-55105500D01*
X79012993Y-55105500D01*
X79013002Y-55105500D01*
X79120456Y-55093947D01*
X79171968Y-55082741D01*
X79274507Y-55048613D01*
X79303998Y-55029659D01*
X79371037Y-55009976D01*
X81408421Y-55009976D01*
X81443356Y-55014999D01*
X81458354Y-55019403D01*
X81517080Y-55057118D01*
X81517604Y-55057722D01*
X81518313Y-55058540D01*
X81545791Y-55113328D01*
X81547417Y-55120769D01*
X81550276Y-55146983D01*
X81564076Y-61770442D01*
X81574695Y-66867889D01*
X81570188Y-66899708D01*
X81569746Y-66902830D01*
X81565374Y-66917837D01*
X81527724Y-66976695D01*
X81527710Y-66976707D01*
X81526395Y-66977851D01*
X81471499Y-67005435D01*
X81463826Y-67007113D01*
X81437335Y-67009976D01*
X81082376Y-67009976D01*
X81082373Y-67009975D01*
X81082372Y-67009976D01*
X81047437Y-67004952D01*
X81034119Y-67001041D01*
X80975342Y-66963265D01*
X80946321Y-66899715D01*
X80945281Y-66892483D01*
X80949633Y-66837942D01*
X80968588Y-66777111D01*
X80968590Y-66777106D01*
X80975000Y-66706572D01*
X80975000Y-66700000D01*
X80141830Y-66700000D01*
X80141825Y-66699999D01*
X80141823Y-66700000D01*
X80106889Y-66694975D01*
X80091890Y-66690570D01*
X80033144Y-66652827D01*
X80033115Y-66652793D01*
X80033114Y-66652793D01*
X80033113Y-66652791D01*
X80031957Y-66651458D01*
X80004477Y-66596583D01*
X80002832Y-66589021D01*
X80000000Y-66562668D01*
X80000000Y-66450000D01*
X79891830Y-66450000D01*
X79891825Y-66449999D01*
X79891823Y-66450000D01*
X79856889Y-66444975D01*
X79841890Y-66440570D01*
X79783144Y-66402827D01*
X79783115Y-66402793D01*
X79783114Y-66402793D01*
X79783113Y-66402791D01*
X79781957Y-66401458D01*
X79754477Y-66346583D01*
X79752832Y-66339021D01*
X79750000Y-66312668D01*
X79750000Y-66200000D01*
X80250000Y-66200000D01*
X80974999Y-66200000D01*
X80974999Y-66193417D01*
X80968591Y-66122897D01*
X80968590Y-66122892D01*
X80918018Y-65960603D01*
X80918017Y-65960601D01*
X80830076Y-65815127D01*
X80830075Y-65815126D01*
X80830073Y-65815124D01*
X80830072Y-65815122D01*
X80709877Y-65694927D01*
X80709876Y-65694926D01*
X80709875Y-65694925D01*
X80641422Y-65653544D01*
X80641418Y-65653542D01*
X80564395Y-65606980D01*
X80564396Y-65606980D01*
X80485938Y-65582532D01*
X80478796Y-65579270D01*
X80458306Y-65561515D01*
X80349381Y-65551618D01*
X80331572Y-65550000D01*
X80331571Y-65550000D01*
X80250000Y-65550000D01*
X80250000Y-66200000D01*
X79750000Y-66200000D01*
X79750000Y-65550000D01*
X79749999Y-65549999D01*
X79668417Y-65549999D01*
X79597904Y-65556406D01*
X79597880Y-65556412D01*
X79435601Y-65606980D01*
X79403402Y-65626445D01*
X79370907Y-65640219D01*
X79357491Y-65643761D01*
X79287648Y-65641841D01*
X79229959Y-65602503D01*
X79229347Y-65601756D01*
X79203709Y-65547810D01*
X79202481Y-65541765D01*
X79199999Y-65517079D01*
X79199999Y-65300000D01*
X75764502Y-65300000D01*
X75764498Y-65299999D01*
X75764497Y-65300000D01*
X75729562Y-65294976D01*
X75707248Y-65288423D01*
X75658423Y-65260877D01*
X75656419Y-65259041D01*
X75649019Y-65250998D01*
X75648472Y-65250646D01*
X75648251Y-65250162D01*
X75642097Y-65243473D01*
X74926179Y-64317817D01*
X72627017Y-61345082D01*
X71885250Y-60386003D01*
X71775995Y-60244740D01*
X71605271Y-60024000D01*
X75334492Y-60024000D01*
X75334492Y-63876000D01*
X75334493Y-63876009D01*
X75346044Y-63983450D01*
X75346046Y-63983462D01*
X75357252Y-64034972D01*
X75391375Y-64137497D01*
X75391378Y-64137503D01*
X75469163Y-64258537D01*
X75469171Y-64258548D01*
X75514915Y-64311340D01*
X75514918Y-64311343D01*
X75514922Y-64311347D01*
X75623656Y-64405567D01*
X75623659Y-64405568D01*
X75623660Y-64405569D01*
X75717917Y-64448616D01*
X75754533Y-64465338D01*
X75821572Y-64485023D01*
X75821576Y-64485024D01*
X75963992Y-64505500D01*
X77475982Y-64505500D01*
X77475992Y-64505500D01*
X77583448Y-64493947D01*
X77634959Y-64482741D01*
X77669189Y-64471347D01*
X77737489Y-64448616D01*
X77737493Y-64448613D01*
X77737496Y-64448613D01*
X77858535Y-64370825D01*
X77911339Y-64325070D01*
X78005559Y-64216336D01*
X78065330Y-64085459D01*
X78085015Y-64018420D01*
X78085016Y-64018416D01*
X78101963Y-63900543D01*
X78116397Y-63868935D01*
X78130656Y-63837373D01*
X78130910Y-63837155D01*
X78130986Y-63836990D01*
X78157235Y-63814151D01*
X78158386Y-63813404D01*
X78228036Y-63770444D01*
X78234303Y-63764175D01*
X78245274Y-63757062D01*
X78247993Y-63756251D01*
X78253300Y-63752277D01*
X78267025Y-63744782D01*
X78335291Y-63729926D01*
X78337104Y-63730055D01*
X78395299Y-63749423D01*
X78399737Y-63752275D01*
X78401810Y-63753607D01*
X78418813Y-63767309D01*
X78418937Y-63767167D01*
X78422254Y-63770043D01*
X78422259Y-63770048D01*
X78422263Y-63770051D01*
X78422271Y-63770056D01*
X78422278Y-63770061D01*
X78493501Y-63813992D01*
X78566499Y-63859018D01*
X78566510Y-63859023D01*
X78727385Y-63912331D01*
X78826675Y-63922475D01*
X79349992Y-63922475D01*
X79373288Y-63922475D01*
X79373300Y-63922475D01*
X79373314Y-63922474D01*
X79472599Y-63912331D01*
X79633473Y-63859023D01*
X79633484Y-63859018D01*
X79777720Y-63770051D01*
X79777724Y-63770048D01*
X79897564Y-63650208D01*
X79897567Y-63650204D01*
X79986534Y-63505968D01*
X79986539Y-63505957D01*
X80039847Y-63345082D01*
X80049991Y-63245798D01*
X80049992Y-63245785D01*
X80049992Y-63197476D01*
X79349992Y-63197476D01*
X79349992Y-63922475D01*
X78826675Y-63922475D01*
X78849992Y-63922474D01*
X78849992Y-62697476D01*
X79349992Y-62697476D01*
X80049991Y-62697476D01*
X80049991Y-62649168D01*
X80049990Y-62649153D01*
X80039847Y-62549868D01*
X79986539Y-62388994D01*
X79986534Y-62388983D01*
X79941508Y-62315985D01*
X79897577Y-62244762D01*
X79897572Y-62244755D01*
X79897567Y-62244747D01*
X79897564Y-62244743D01*
X79897561Y-62244740D01*
X79897559Y-62244737D01*
X79777727Y-62124905D01*
X79777702Y-62124888D01*
X79676349Y-62062373D01*
X79649254Y-62039761D01*
X79639971Y-62029440D01*
X79609775Y-61966436D01*
X79618434Y-61897107D01*
X79619796Y-61893974D01*
X79619848Y-61893855D01*
X79652342Y-61849592D01*
X79653575Y-61848523D01*
X79669704Y-61836676D01*
X79777720Y-61770051D01*
X79777724Y-61770048D01*
X79897564Y-61650208D01*
X79897567Y-61650204D01*
X79986534Y-61505968D01*
X79986539Y-61505957D01*
X80039847Y-61345082D01*
X80049991Y-61245798D01*
X80049992Y-61245785D01*
X80049992Y-61197476D01*
X79349992Y-61197476D01*
X79349992Y-62697476D01*
X78849992Y-62697476D01*
X78849992Y-60697476D01*
X79349992Y-60697476D01*
X80049991Y-60697476D01*
X80049991Y-60649168D01*
X80049990Y-60649153D01*
X80039847Y-60549868D01*
X79986539Y-60388994D01*
X79986534Y-60388983D01*
X79941508Y-60315985D01*
X79897577Y-60244762D01*
X79897572Y-60244755D01*
X79897567Y-60244747D01*
X79897564Y-60244743D01*
X79897561Y-60244740D01*
X79897559Y-60244737D01*
X79777729Y-60124907D01*
X79777726Y-60124905D01*
X79777725Y-60124904D01*
X79777724Y-60124903D01*
X79777720Y-60124900D01*
X79777714Y-60124896D01*
X79777704Y-60124889D01*
X79654539Y-60048920D01*
X79633484Y-60035933D01*
X79633482Y-60035932D01*
X79633468Y-60035925D01*
X79472596Y-59982619D01*
X79373319Y-59972476D01*
X79373314Y-59972476D01*
X79349992Y-59972476D01*
X79349992Y-60697476D01*
X78849992Y-60697476D01*
X78849992Y-59972475D01*
X78826697Y-59972475D01*
X78826678Y-59972476D01*
X78826677Y-59972476D01*
X78826653Y-59972478D01*
X78727386Y-59982619D01*
X78727385Y-59982619D01*
X78566514Y-60035925D01*
X78566500Y-60035932D01*
X78566497Y-60035934D01*
X78422272Y-60124893D01*
X78422262Y-60124900D01*
X78417519Y-60128789D01*
X78416919Y-60128058D01*
X78397374Y-60142682D01*
X78383659Y-60150171D01*
X78315386Y-60165023D01*
X78315339Y-60165020D01*
X78313531Y-60164890D01*
X78255390Y-60145528D01*
X78250961Y-60142682D01*
X78248883Y-60141346D01*
X78231443Y-60127290D01*
X78231358Y-60127389D01*
X78228638Y-60125030D01*
X78228225Y-60124697D01*
X78228036Y-60124508D01*
X78228032Y-60124505D01*
X78160058Y-60082577D01*
X78113335Y-60030630D01*
X78101869Y-59990302D01*
X78093939Y-59916544D01*
X78082733Y-59865033D01*
X78082629Y-59864722D01*
X78048608Y-59762502D01*
X78048605Y-59762496D01*
X77970820Y-59641462D01*
X77970817Y-59641457D01*
X77970812Y-59641451D01*
X77925068Y-59588659D01*
X77925064Y-59588656D01*
X77925062Y-59588653D01*
X77816328Y-59494433D01*
X77816325Y-59494431D01*
X77816323Y-59494430D01*
X77685457Y-59434664D01*
X77685452Y-59434662D01*
X77685451Y-59434662D01*
X77618412Y-59414977D01*
X77618414Y-59414977D01*
X77618409Y-59414976D01*
X77556339Y-59406052D01*
X77475992Y-59394500D01*
X77475990Y-59394500D01*
X75964002Y-59394500D01*
X75963992Y-59394500D01*
X75963983Y-59394500D01*
X75963982Y-59394501D01*
X75856541Y-59406052D01*
X75856529Y-59406054D01*
X75805019Y-59417260D01*
X75702494Y-59451383D01*
X75702488Y-59451386D01*
X75581454Y-59529171D01*
X75581443Y-59529179D01*
X75528651Y-59574923D01*
X75434425Y-59683664D01*
X75434422Y-59683668D01*
X75374656Y-59814534D01*
X75354968Y-59881582D01*
X75341900Y-59972475D01*
X75334492Y-60024000D01*
X71605271Y-60024000D01*
X66683230Y-53659976D01*
X66039380Y-53659976D01*
X66038332Y-53659972D01*
X66035700Y-53659949D01*
X66028161Y-53659565D01*
X66028158Y-53659637D01*
X66025006Y-53659476D01*
X66025001Y-53659476D01*
X66024995Y-53659476D01*
X65979654Y-53659476D01*
X65119262Y-53659476D01*
X65112504Y-53657491D01*
X65068077Y-53659756D01*
X65066938Y-53659815D01*
X65060626Y-53659976D01*
X56691822Y-53659976D01*
X56691817Y-53659975D01*
X56691815Y-53659976D01*
X56656881Y-53654951D01*
X56641882Y-53650546D01*
X56583136Y-53612803D01*
X56583107Y-53612769D01*
X56583106Y-53612769D01*
X56583105Y-53612767D01*
X56581949Y-53611434D01*
X56554469Y-53556559D01*
X56552824Y-53548997D01*
X56549992Y-53522644D01*
X56549992Y-52659971D01*
X64374993Y-52659971D01*
X64385485Y-52762670D01*
X64385485Y-52762671D01*
X64385486Y-52762673D01*
X64440633Y-52929095D01*
X64440635Y-52929100D01*
X64532676Y-53078321D01*
X64656646Y-53202291D01*
X64805867Y-53294332D01*
X64805872Y-53294334D01*
X64972291Y-53349480D01*
X64972292Y-53349480D01*
X64972294Y-53349481D01*
X64972301Y-53349482D01*
X65075011Y-53359975D01*
X65299991Y-53359975D01*
X65799992Y-53359975D01*
X66024952Y-53359975D01*
X66024964Y-53359975D01*
X66024978Y-53359974D01*
X66127689Y-53349481D01*
X66294111Y-53294334D01*
X66294116Y-53294332D01*
X66443337Y-53202291D01*
X66567307Y-53078321D01*
X66659348Y-52929100D01*
X66659350Y-52929095D01*
X66714497Y-52762673D01*
X66714498Y-52762666D01*
X66724991Y-52659962D01*
X66724992Y-52659949D01*
X66724992Y-52428573D01*
X69359992Y-52428573D01*
X69362888Y-52471302D01*
X69408821Y-52655994D01*
X69408824Y-52656002D01*
X69461726Y-52762670D01*
X69493382Y-52826498D01*
X69493384Y-52826501D01*
X69493389Y-52826507D01*
X69493393Y-52826513D01*
X69612615Y-52974831D01*
X69612624Y-52974842D01*
X69612635Y-52974851D01*
X69760953Y-53094073D01*
X69760956Y-53094075D01*
X69760966Y-53094083D01*
X69760969Y-53094085D01*
X69931468Y-53178644D01*
X70116167Y-53224578D01*
X70158895Y-53227476D01*
X70609992Y-53227476D01*
X71109992Y-53227476D01*
X71561086Y-53227476D01*
X71561089Y-53227476D01*
X71603816Y-53224578D01*
X71788515Y-53178644D01*
X71959014Y-53094085D01*
X71959017Y-53094083D01*
X72107358Y-52974843D01*
X72107359Y-52974842D01*
X72226599Y-52826501D01*
X72226601Y-52826498D01*
X72311160Y-52655999D01*
X72357094Y-52471300D01*
X72359992Y-52428572D01*
X72359992Y-52227476D01*
X71109992Y-52227476D01*
X71109992Y-53227476D01*
X70609992Y-53227476D01*
X70609992Y-52227476D01*
X69359992Y-52227476D01*
X69359992Y-52428573D01*
X66724992Y-52428573D01*
X66724992Y-52409976D01*
X65799992Y-52409976D01*
X65799992Y-53359975D01*
X65299991Y-53359975D01*
X65299992Y-53359974D01*
X65299992Y-52409976D01*
X64374993Y-52409976D01*
X64374993Y-52659971D01*
X56549992Y-52659971D01*
X56549992Y-51651097D01*
X58400000Y-51651097D01*
X58402896Y-51693826D01*
X58448829Y-51878518D01*
X58448831Y-51878523D01*
X58533390Y-52049022D01*
X58533392Y-52049025D01*
X58533397Y-52049031D01*
X58533401Y-52049037D01*
X58652623Y-52197355D01*
X58652632Y-52197366D01*
X58652643Y-52197375D01*
X58800961Y-52316597D01*
X58800964Y-52316599D01*
X58800974Y-52316607D01*
X58800977Y-52316609D01*
X58971476Y-52401168D01*
X59156175Y-52447102D01*
X59198903Y-52450000D01*
X59650000Y-52450000D01*
X60150000Y-52450000D01*
X60601094Y-52450000D01*
X60601097Y-52450000D01*
X60643824Y-52447102D01*
X60828523Y-52401168D01*
X60999022Y-52316609D01*
X60999025Y-52316607D01*
X61067001Y-52261967D01*
X61147366Y-52197367D01*
X61147367Y-52197366D01*
X61226897Y-52098427D01*
X61226897Y-52098426D01*
X61266609Y-52049021D01*
X61351168Y-51878523D01*
X61397102Y-51693824D01*
X61399397Y-51659983D01*
X64374992Y-51659983D01*
X64374992Y-51659989D01*
X64374992Y-51909976D01*
X65299992Y-51909976D01*
X65799992Y-51909976D01*
X66724991Y-51909976D01*
X66724991Y-51660004D01*
X66724990Y-51659989D01*
X66714498Y-51557280D01*
X66704258Y-51526377D01*
X69359992Y-51526377D01*
X69359992Y-51526379D01*
X69359992Y-51727476D01*
X70609992Y-51727476D01*
X71109992Y-51727476D01*
X72359992Y-51727476D01*
X72359992Y-51526379D01*
X72357094Y-51483651D01*
X72311160Y-51298952D01*
X72226601Y-51128453D01*
X72226599Y-51128450D01*
X72143939Y-51025617D01*
X72107367Y-50980119D01*
X72107358Y-50980108D01*
X72107347Y-50980099D01*
X71959029Y-50860877D01*
X71959023Y-50860873D01*
X71959017Y-50860868D01*
X71959014Y-50860866D01*
X71959010Y-50860864D01*
X71788518Y-50776308D01*
X71788510Y-50776305D01*
X71603818Y-50730372D01*
X71561090Y-50727476D01*
X71561089Y-50727476D01*
X71109992Y-50727476D01*
X71109992Y-51727476D01*
X70609992Y-51727476D01*
X70609992Y-50727476D01*
X70158893Y-50727476D01*
X70116164Y-50730372D01*
X69931472Y-50776305D01*
X69931464Y-50776308D01*
X69760972Y-50860864D01*
X69760969Y-50860866D01*
X69760953Y-50860877D01*
X69612635Y-50980099D01*
X69612624Y-50980108D01*
X69612615Y-50980119D01*
X69493393Y-51128437D01*
X69493382Y-51128453D01*
X69493380Y-51128456D01*
X69408824Y-51298948D01*
X69408821Y-51298956D01*
X69362888Y-51483648D01*
X69359992Y-51526377D01*
X66704258Y-51526377D01*
X66659350Y-51390856D01*
X66659348Y-51390851D01*
X66567307Y-51241630D01*
X66443337Y-51117660D01*
X66294116Y-51025619D01*
X66294111Y-51025617D01*
X66294102Y-51025614D01*
X66127691Y-50970470D01*
X66127686Y-50970469D01*
X66024983Y-50959976D01*
X66024978Y-50959976D01*
X65799992Y-50959976D01*
X65799992Y-51909976D01*
X65299992Y-51909976D01*
X65299992Y-50959976D01*
X65075029Y-50959976D01*
X65075021Y-50959976D01*
X65075011Y-50959976D01*
X65074998Y-50959977D01*
X64972296Y-50970469D01*
X64972294Y-50970470D01*
X64805879Y-51025614D01*
X64805871Y-51025617D01*
X64805869Y-51025618D01*
X64805867Y-51025619D01*
X64706386Y-51086979D01*
X64656644Y-51117661D01*
X64532677Y-51241628D01*
X64440633Y-51390855D01*
X64440630Y-51390864D01*
X64385486Y-51557275D01*
X64385485Y-51557280D01*
X64374992Y-51659983D01*
X61399397Y-51659983D01*
X61400000Y-51651096D01*
X61400000Y-51450000D01*
X60150000Y-51450000D01*
X60150000Y-52450000D01*
X59650000Y-52450000D01*
X59650000Y-51450000D01*
X58400000Y-51450000D01*
X58400000Y-51651097D01*
X56549992Y-51651097D01*
X56549992Y-50748903D01*
X58400000Y-50748903D01*
X58400000Y-50950000D01*
X59650000Y-50950000D01*
X60150000Y-50950000D01*
X61400000Y-50950000D01*
X61400000Y-50748903D01*
X61397102Y-50706175D01*
X61351168Y-50521476D01*
X61266609Y-50350977D01*
X61266607Y-50350974D01*
X61147367Y-50202633D01*
X61147366Y-50202632D01*
X61147355Y-50202623D01*
X60999037Y-50083401D01*
X60999031Y-50083397D01*
X60999025Y-50083392D01*
X60999022Y-50083390D01*
X60999018Y-50083388D01*
X60828526Y-49998832D01*
X60828518Y-49998829D01*
X60643826Y-49952896D01*
X60601098Y-49950000D01*
X60601097Y-49950000D01*
X60150000Y-49950000D01*
X60150000Y-50950000D01*
X59650000Y-50950000D01*
X59650000Y-49950000D01*
X59198901Y-49950000D01*
X59156172Y-49952896D01*
X58971480Y-49998829D01*
X58971472Y-49998832D01*
X58800980Y-50083388D01*
X58800977Y-50083390D01*
X58800961Y-50083401D01*
X58652643Y-50202623D01*
X58652632Y-50202632D01*
X58652623Y-50202643D01*
X58533401Y-50350961D01*
X58533390Y-50350977D01*
X58533388Y-50350980D01*
X58448832Y-50521472D01*
X58448829Y-50521480D01*
X58402896Y-50706172D01*
X58401256Y-50730372D01*
X58400000Y-50748903D01*
X56549992Y-50748903D01*
X56549992Y-48534971D01*
X58699993Y-48534971D01*
X58710485Y-48637670D01*
X58710485Y-48637671D01*
X58710486Y-48637673D01*
X58765633Y-48804095D01*
X58765635Y-48804100D01*
X58857676Y-48953321D01*
X58981646Y-49077291D01*
X59130867Y-49169332D01*
X59130872Y-49169334D01*
X59297291Y-49224480D01*
X59297292Y-49224480D01*
X59297294Y-49224481D01*
X59297301Y-49224482D01*
X59400011Y-49234975D01*
X59649991Y-49234975D01*
X60149992Y-49234975D01*
X60399952Y-49234975D01*
X60399964Y-49234975D01*
X60399978Y-49234974D01*
X60502689Y-49224481D01*
X60669111Y-49169334D01*
X60669116Y-49169332D01*
X60818337Y-49077291D01*
X60942307Y-48953321D01*
X61034348Y-48804100D01*
X61034350Y-48804095D01*
X61089497Y-48637673D01*
X61089498Y-48637666D01*
X61099991Y-48534962D01*
X61099992Y-48534949D01*
X61099992Y-48309976D01*
X60149992Y-48309976D01*
X60149992Y-49234975D01*
X59649991Y-49234975D01*
X59649992Y-49234974D01*
X59649992Y-48309976D01*
X58699993Y-48309976D01*
X58699993Y-48534971D01*
X56549992Y-48534971D01*
X56549992Y-47584983D01*
X58699992Y-47584983D01*
X58699992Y-47584989D01*
X58699992Y-47809976D01*
X59649992Y-47809976D01*
X60149992Y-47809976D01*
X61099991Y-47809976D01*
X61099991Y-47585000D01*
X61099990Y-47584992D01*
X61099986Y-47584949D01*
X61399492Y-47584949D01*
X61399492Y-48534974D01*
X61399495Y-48535021D01*
X61403999Y-48579107D01*
X61409992Y-48637772D01*
X61409993Y-48637775D01*
X61465177Y-48804307D01*
X61465179Y-48804312D01*
X61500061Y-48860864D01*
X61557280Y-48953632D01*
X61681336Y-49077688D01*
X61830658Y-49169790D01*
X61997195Y-49224975D01*
X62099983Y-49235476D01*
X62170492Y-49235475D01*
X62237530Y-49255159D01*
X62283286Y-49307962D01*
X62294492Y-49359475D01*
X62294492Y-49376000D01*
X62294493Y-49376009D01*
X62306044Y-49483450D01*
X62306046Y-49483462D01*
X62317252Y-49534972D01*
X62351375Y-49637497D01*
X62351378Y-49637503D01*
X62429163Y-49758537D01*
X62429171Y-49758548D01*
X62474915Y-49811340D01*
X62474918Y-49811343D01*
X62474922Y-49811347D01*
X62583656Y-49905567D01*
X62583659Y-49905568D01*
X62583660Y-49905569D01*
X62687291Y-49952897D01*
X62714533Y-49965338D01*
X62781572Y-49985023D01*
X62781576Y-49985024D01*
X62923992Y-50005500D01*
X64275982Y-50005500D01*
X64275992Y-50005500D01*
X64383448Y-49993947D01*
X64434959Y-49982741D01*
X64469189Y-49971347D01*
X64537489Y-49948616D01*
X64537493Y-49948613D01*
X64537496Y-49948613D01*
X64658535Y-49870825D01*
X64711339Y-49825070D01*
X64805559Y-49716336D01*
X64865330Y-49585459D01*
X64885015Y-49518420D01*
X64885016Y-49518416D01*
X64905492Y-49376000D01*
X64905492Y-46724000D01*
X64893939Y-46616544D01*
X64882733Y-46565033D01*
X64882629Y-46564722D01*
X64848608Y-46462502D01*
X64848605Y-46462496D01*
X64770820Y-46341462D01*
X64770817Y-46341457D01*
X64770812Y-46341451D01*
X64725068Y-46288659D01*
X64725064Y-46288656D01*
X64725062Y-46288653D01*
X64616328Y-46194433D01*
X64616325Y-46194431D01*
X64616323Y-46194430D01*
X64485457Y-46134664D01*
X64485452Y-46134662D01*
X64485451Y-46134662D01*
X64418412Y-46114977D01*
X64418414Y-46114977D01*
X64418409Y-46114976D01*
X64356339Y-46106052D01*
X64275992Y-46094500D01*
X64275990Y-46094500D01*
X62924002Y-46094500D01*
X62923992Y-46094500D01*
X62923983Y-46094500D01*
X62923982Y-46094501D01*
X62816541Y-46106052D01*
X62816529Y-46106054D01*
X62765019Y-46117260D01*
X62662494Y-46151383D01*
X62662488Y-46151386D01*
X62541454Y-46229171D01*
X62541443Y-46229179D01*
X62488651Y-46274923D01*
X62394425Y-46383664D01*
X62394422Y-46383668D01*
X62334656Y-46514534D01*
X62314968Y-46581582D01*
X62309941Y-46616549D01*
X62294494Y-46723990D01*
X62294492Y-46724001D01*
X62294492Y-46760476D01*
X62293343Y-46764387D01*
X62294241Y-46768365D01*
X62283580Y-46797636D01*
X62274807Y-46827515D01*
X62271726Y-46830184D01*
X62270331Y-46834016D01*
X62245536Y-46852878D01*
X62222003Y-46873270D01*
X62217038Y-46874557D01*
X62214723Y-46876319D01*
X62199237Y-46879174D01*
X62180295Y-46884088D01*
X62175402Y-46884476D01*
X62099990Y-46884476D01*
X62099972Y-46884477D01*
X61997195Y-46894976D01*
X61997192Y-46894977D01*
X61982786Y-46899750D01*
X61982781Y-46899751D01*
X61830659Y-46950161D01*
X61830657Y-46950162D01*
X61830655Y-46950163D01*
X61829916Y-46950619D01*
X61681332Y-47042266D01*
X61557282Y-47166316D01*
X61526580Y-47216091D01*
X61495812Y-47265976D01*
X61465177Y-47315643D01*
X61465174Y-47315651D01*
X61454428Y-47348080D01*
X61454428Y-47348083D01*
X61420291Y-47451099D01*
X61411844Y-47464043D01*
X61410357Y-47478606D01*
X61409534Y-47484857D01*
X61409351Y-47488452D01*
X61399492Y-47584949D01*
X61099986Y-47584949D01*
X61089497Y-47482278D01*
X61034350Y-47315856D01*
X61034348Y-47315851D01*
X60942307Y-47166630D01*
X60818337Y-47042660D01*
X60669116Y-46950619D01*
X60669111Y-46950617D01*
X60667735Y-46950161D01*
X60502691Y-46895470D01*
X60502686Y-46895469D01*
X60399983Y-46884976D01*
X60399978Y-46884976D01*
X60149992Y-46884976D01*
X60149992Y-47809976D01*
X59649992Y-47809976D01*
X59649992Y-46884976D01*
X59400029Y-46884976D01*
X59400021Y-46884976D01*
X59400011Y-46884976D01*
X59399998Y-46884977D01*
X59297296Y-46895469D01*
X59297294Y-46895470D01*
X59130879Y-46950614D01*
X59130871Y-46950617D01*
X59130869Y-46950618D01*
X59130867Y-46950619D01*
X59031386Y-47011979D01*
X58981644Y-47042661D01*
X58857677Y-47166628D01*
X58857676Y-47166630D01*
X58765759Y-47315651D01*
X58765633Y-47315855D01*
X58765630Y-47315864D01*
X58710486Y-47482275D01*
X58710485Y-47482280D01*
X58699992Y-47584983D01*
X56549992Y-47584983D01*
X56549992Y-45643976D01*
X68284492Y-45643976D01*
X68284492Y-47265976D01*
X68284493Y-47265985D01*
X68296044Y-47373426D01*
X68296046Y-47373438D01*
X68307252Y-47424948D01*
X68341375Y-47527473D01*
X68341378Y-47527479D01*
X68419163Y-47648513D01*
X68419171Y-47648524D01*
X68464915Y-47701316D01*
X68464918Y-47701319D01*
X68464922Y-47701323D01*
X68573656Y-47795543D01*
X68573659Y-47795544D01*
X68573660Y-47795545D01*
X68667917Y-47838592D01*
X68704533Y-47855314D01*
X68771572Y-47874999D01*
X68771576Y-47875000D01*
X68913992Y-47895476D01*
X69271449Y-47895476D01*
X69338488Y-47915161D01*
X69384243Y-47967965D01*
X69391782Y-47989545D01*
X69408352Y-48056172D01*
X69436403Y-48112733D01*
X69492956Y-48226764D01*
X69492958Y-48226767D01*
X69492959Y-48226768D01*
X69492961Y-48226771D01*
X69612269Y-48375197D01*
X69612270Y-48375198D01*
X69760696Y-48494506D01*
X69760699Y-48494508D01*
X69931294Y-48579115D01*
X69931295Y-48579115D01*
X69931299Y-48579117D01*
X69931300Y-48579117D01*
X69931320Y-48579127D01*
X69932009Y-48579293D01*
X70028692Y-48603337D01*
X70116098Y-48625075D01*
X70116099Y-48625075D01*
X70116103Y-48625076D01*
X70158869Y-48627976D01*
X71561114Y-48627975D01*
X71603881Y-48625076D01*
X71788685Y-48579117D01*
X71959288Y-48494506D01*
X72107714Y-48375198D01*
X72227022Y-48226772D01*
X72311633Y-48056169D01*
X72328201Y-47989548D01*
X72363482Y-47929243D01*
X72425768Y-47897584D01*
X72448535Y-47895476D01*
X72825982Y-47895476D01*
X72825992Y-47895476D01*
X72933448Y-47883923D01*
X72984959Y-47872717D01*
X73019189Y-47861323D01*
X73087489Y-47838592D01*
X73087493Y-47838589D01*
X73087496Y-47838589D01*
X73208535Y-47760801D01*
X73261339Y-47715046D01*
X73355559Y-47606312D01*
X73415330Y-47475435D01*
X73435015Y-47408396D01*
X73435016Y-47408392D01*
X73455492Y-47265976D01*
X73455492Y-45643976D01*
X73443939Y-45536520D01*
X73432733Y-45485009D01*
X73432629Y-45484698D01*
X73398608Y-45382478D01*
X73398605Y-45382472D01*
X73320817Y-45261433D01*
X73320812Y-45261427D01*
X73275068Y-45208635D01*
X73275064Y-45208632D01*
X73275062Y-45208629D01*
X73166328Y-45114409D01*
X73166325Y-45114407D01*
X73166323Y-45114406D01*
X73035457Y-45054640D01*
X73035452Y-45054638D01*
X73035451Y-45054638D01*
X72968412Y-45034953D01*
X72968414Y-45034953D01*
X72968409Y-45034952D01*
X72906339Y-45026028D01*
X72825992Y-45014476D01*
X72825990Y-45014476D01*
X68914002Y-45014476D01*
X68913992Y-45014476D01*
X68913983Y-45014476D01*
X68913982Y-45014477D01*
X68806541Y-45026028D01*
X68806529Y-45026030D01*
X68755019Y-45037236D01*
X68652494Y-45071359D01*
X68652488Y-45071362D01*
X68531454Y-45149147D01*
X68531443Y-45149155D01*
X68478651Y-45194899D01*
X68384425Y-45303640D01*
X68384422Y-45303644D01*
X68324656Y-45434510D01*
X68304968Y-45501558D01*
X68299941Y-45536525D01*
X68284492Y-45643976D01*
X56549992Y-45643976D01*
X56549992Y-45109976D01*
X54633289Y-45109976D01*
X54633287Y-45109975D01*
X54633287Y-45109976D01*
X54598353Y-45104953D01*
X54570393Y-45096743D01*
X54539490Y-45080974D01*
X54538943Y-45081907D01*
X54330180Y-44959400D01*
X54239824Y-44925302D01*
X54221577Y-44918416D01*
X54111118Y-44876731D01*
X54111116Y-44876730D01*
X54106191Y-44874872D01*
X54106240Y-44874739D01*
X54092786Y-44868953D01*
X54084623Y-44864738D01*
X54081023Y-44861301D01*
X54077495Y-44859600D01*
X54070793Y-44854802D01*
X54060691Y-44841889D01*
X54034087Y-44816490D01*
X54031072Y-44804030D01*
X54027741Y-44799772D01*
X54026305Y-44784322D01*
X54017658Y-44748579D01*
X54021857Y-44736470D01*
X54021275Y-44730202D01*
X54029593Y-44714165D01*
X54040553Y-44682567D01*
X54049719Y-44675368D01*
X54053448Y-44668180D01*
X54073600Y-44656612D01*
X54095502Y-44639412D01*
X54095557Y-44639390D01*
X54097018Y-44638807D01*
X54108447Y-44636610D01*
X54114045Y-44633398D01*
X54122864Y-44633840D01*
X54142975Y-44629976D01*
X55609992Y-44629976D01*
X55609992Y-43992226D01*
X55629677Y-43925187D01*
X55682481Y-43879432D01*
X55751639Y-43869488D01*
X55766085Y-43872451D01*
X55794166Y-43879976D01*
X55925817Y-43879976D01*
X55925818Y-43879976D01*
X55953897Y-43872452D01*
X56023747Y-43874113D01*
X56081610Y-43913275D01*
X56109115Y-43977503D01*
X56109992Y-43992226D01*
X56109992Y-44629976D01*
X57657820Y-44629976D01*
X57657828Y-44629976D01*
X57657839Y-44629975D01*
X57693552Y-44626134D01*
X57717364Y-44623574D01*
X57717371Y-44623572D01*
X57852078Y-44573330D01*
X57852085Y-44573326D01*
X57967179Y-44487166D01*
X57967182Y-44487163D01*
X58053342Y-44372069D01*
X58053346Y-44372062D01*
X58103588Y-44237355D01*
X58103590Y-44237348D01*
X58105061Y-44223665D01*
X58109990Y-44177836D01*
X58109992Y-44177803D01*
X58109992Y-43858307D01*
X59614993Y-43858307D01*
X59625136Y-43957584D01*
X59678443Y-44118454D01*
X59678448Y-44118466D01*
X59678450Y-44118469D01*
X59767405Y-44262688D01*
X59767412Y-44262698D01*
X59767416Y-44262704D01*
X59767419Y-44262708D01*
X59767421Y-44262710D01*
X59767423Y-44262713D01*
X59887253Y-44382543D01*
X59887256Y-44382545D01*
X59887259Y-44382548D01*
X59887263Y-44382551D01*
X59887271Y-44382556D01*
X59887278Y-44382561D01*
X59958501Y-44426492D01*
X60031499Y-44471518D01*
X60031510Y-44471523D01*
X60192385Y-44524831D01*
X60291675Y-44534975D01*
X60314992Y-44534974D01*
X60314992Y-43809976D01*
X59614993Y-43809976D01*
X59614993Y-43858307D01*
X58109992Y-43858307D01*
X58109992Y-43261647D01*
X59614992Y-43261647D01*
X59614992Y-43261653D01*
X59614992Y-43309976D01*
X60314992Y-43309976D01*
X60314992Y-42584976D01*
X60814992Y-42584976D01*
X60814992Y-44534975D01*
X60838288Y-44534975D01*
X60838300Y-44534975D01*
X60838314Y-44534974D01*
X60937599Y-44524831D01*
X61098473Y-44471523D01*
X61098484Y-44471518D01*
X61242723Y-44382549D01*
X61242726Y-44382545D01*
X61248391Y-44378068D01*
X61248930Y-44378750D01*
X61267595Y-44364777D01*
X61272829Y-44361919D01*
X61281317Y-44357282D01*
X61349586Y-44342426D01*
X61351398Y-44342555D01*
X61409584Y-44361918D01*
X61416098Y-44366104D01*
X61433539Y-44380160D01*
X61433625Y-44380062D01*
X61436341Y-44382418D01*
X61436757Y-44382753D01*
X61436947Y-44382943D01*
X61436951Y-44382946D01*
X61436957Y-44382949D01*
X61436966Y-44382956D01*
X61579439Y-44470835D01*
X61581286Y-44471974D01*
X61581289Y-44471975D01*
X61581295Y-44471979D01*
X61624495Y-44486293D01*
X61681939Y-44526063D01*
X61708764Y-44590578D01*
X61709492Y-44603999D01*
X61709492Y-44776000D01*
X61709493Y-44776009D01*
X61721044Y-44883450D01*
X61721046Y-44883462D01*
X61732252Y-44934972D01*
X61766375Y-45037497D01*
X61766378Y-45037503D01*
X61844163Y-45158537D01*
X61844171Y-45158548D01*
X61889915Y-45211340D01*
X61889918Y-45211343D01*
X61889922Y-45211347D01*
X61998656Y-45305567D01*
X61998659Y-45305568D01*
X61998660Y-45305569D01*
X62092917Y-45348616D01*
X62129533Y-45365338D01*
X62196572Y-45385023D01*
X62196576Y-45385024D01*
X62338992Y-45405500D01*
X63490982Y-45405500D01*
X63490992Y-45405500D01*
X63598448Y-45393947D01*
X63649959Y-45382741D01*
X63684189Y-45371347D01*
X63752489Y-45348616D01*
X63752493Y-45348613D01*
X63752496Y-45348613D01*
X63873535Y-45270825D01*
X63926339Y-45225070D01*
X64020559Y-45116336D01*
X64080330Y-44985459D01*
X64100015Y-44918420D01*
X64100016Y-44918416D01*
X64120492Y-44776000D01*
X64120492Y-42424000D01*
X64108939Y-42316544D01*
X64097733Y-42265033D01*
X64094053Y-42253976D01*
X64063608Y-42162502D01*
X64063605Y-42162496D01*
X63985820Y-42041462D01*
X63985817Y-42041457D01*
X63985812Y-42041451D01*
X63940068Y-41988659D01*
X63940064Y-41988656D01*
X63940062Y-41988653D01*
X63831328Y-41894433D01*
X63831325Y-41894431D01*
X63831323Y-41894430D01*
X63700457Y-41834664D01*
X63700452Y-41834662D01*
X63700451Y-41834662D01*
X63633412Y-41814977D01*
X63633414Y-41814977D01*
X63633409Y-41814976D01*
X63571339Y-41806052D01*
X63490992Y-41794500D01*
X63490990Y-41794500D01*
X62339002Y-41794500D01*
X62338992Y-41794500D01*
X62338983Y-41794500D01*
X62338982Y-41794501D01*
X62231541Y-41806052D01*
X62231529Y-41806054D01*
X62180019Y-41817260D01*
X62077494Y-41851383D01*
X62077488Y-41851386D01*
X61956454Y-41929171D01*
X61956443Y-41929179D01*
X61903651Y-41974923D01*
X61809425Y-42083664D01*
X61809422Y-42083668D01*
X61749656Y-42214534D01*
X61729968Y-42281582D01*
X61724941Y-42316549D01*
X61709494Y-42423990D01*
X61709492Y-42424001D01*
X61709492Y-42515951D01*
X61689807Y-42582990D01*
X61637003Y-42628745D01*
X61624496Y-42633657D01*
X61581299Y-42647971D01*
X61581287Y-42647976D01*
X61581284Y-42647978D01*
X61436960Y-42736998D01*
X61436951Y-42737004D01*
X61432207Y-42740894D01*
X61431657Y-42740223D01*
X61411667Y-42755182D01*
X61397952Y-42762671D01*
X61329679Y-42777523D01*
X61329632Y-42777520D01*
X61327824Y-42777390D01*
X61269683Y-42758028D01*
X61265254Y-42755182D01*
X61263176Y-42753846D01*
X61246170Y-42740140D01*
X61246046Y-42740284D01*
X61242726Y-42737405D01*
X61242724Y-42737403D01*
X61242720Y-42737400D01*
X61242714Y-42737396D01*
X61242704Y-42737389D01*
X61134982Y-42670945D01*
X61098484Y-42648433D01*
X61098482Y-42648432D01*
X61098468Y-42648425D01*
X60937596Y-42595119D01*
X60838319Y-42584976D01*
X60838314Y-42584976D01*
X60814992Y-42584976D01*
X60314992Y-42584976D01*
X60314992Y-42584975D01*
X60291697Y-42584975D01*
X60291678Y-42584976D01*
X60291677Y-42584976D01*
X60291653Y-42584978D01*
X60192386Y-42595119D01*
X60192385Y-42595119D01*
X60031514Y-42648425D01*
X60031500Y-42648432D01*
X60031497Y-42648434D01*
X59887278Y-42737389D01*
X59887256Y-42737405D01*
X59887253Y-42737407D01*
X59767423Y-42857237D01*
X59767421Y-42857240D01*
X59767405Y-42857262D01*
X59678450Y-43001481D01*
X59678448Y-43001484D01*
X59678441Y-43001498D01*
X59625135Y-43162370D01*
X59614992Y-43261647D01*
X58109992Y-43261647D01*
X58109992Y-42629976D01*
X56483992Y-42629976D01*
X56416953Y-42610291D01*
X56371198Y-42557487D01*
X56359992Y-42505976D01*
X56359992Y-42253976D01*
X56379677Y-42186937D01*
X56432481Y-42141182D01*
X56483992Y-42129976D01*
X58109992Y-42129976D01*
X58109992Y-40582148D01*
X58109990Y-40582114D01*
X58103590Y-40522604D01*
X58103588Y-40522597D01*
X58103588Y-40522596D01*
X58053346Y-40387889D01*
X58053342Y-40387882D01*
X57967182Y-40272788D01*
X57967179Y-40272785D01*
X57967177Y-40272783D01*
X57909309Y-40229463D01*
X57852085Y-40186625D01*
X57852080Y-40186622D01*
X57852081Y-40186622D01*
X57717369Y-40136378D01*
X57717362Y-40136376D01*
X57657844Y-40129976D01*
X57657836Y-40129976D01*
X56109992Y-40129976D01*
X56109992Y-40767725D01*
X56090307Y-40834764D01*
X56037503Y-40880519D01*
X55968345Y-40890463D01*
X55953900Y-40887500D01*
X55925820Y-40879976D01*
X55925818Y-40879976D01*
X55794166Y-40879976D01*
X55794163Y-40879976D01*
X55766084Y-40887500D01*
X55696234Y-40885837D01*
X55638372Y-40846674D01*
X55610869Y-40782445D01*
X55609992Y-40767725D01*
X55609992Y-40129976D01*
X54062147Y-40129976D01*
X54062138Y-40129976D01*
X54002620Y-40136376D01*
X54002613Y-40136378D01*
X53867902Y-40186622D01*
X53867899Y-40186624D01*
X53752805Y-40272783D01*
X53752799Y-40272789D01*
X53666640Y-40387883D01*
X53666638Y-40387886D01*
X53616394Y-40522597D01*
X53616392Y-40522604D01*
X53609992Y-40582122D01*
X53609992Y-40582131D01*
X53609992Y-42129976D01*
X55235992Y-42129976D01*
X55303031Y-42149661D01*
X55348786Y-42202465D01*
X55359992Y-42253976D01*
X55359992Y-42505976D01*
X55340307Y-42573015D01*
X55287503Y-42618770D01*
X55235992Y-42629976D01*
X53609992Y-42629976D01*
X53609992Y-44177828D01*
X53616392Y-44237346D01*
X53616394Y-44237353D01*
X53625849Y-44262704D01*
X53666637Y-44372062D01*
X53666641Y-44372069D01*
X53674784Y-44382946D01*
X53752799Y-44487161D01*
X53752801Y-44487163D01*
X53752804Y-44487166D01*
X53867898Y-44573326D01*
X53867903Y-44573329D01*
X53867906Y-44573330D01*
X53899893Y-44585261D01*
X53908119Y-44591419D01*
X53930868Y-44602174D01*
X53933305Y-44603999D01*
X53936195Y-44606162D01*
X53946878Y-44620434D01*
X53955826Y-44627132D01*
X53959731Y-44637603D01*
X53978066Y-44662096D01*
X53983050Y-44731787D01*
X53949565Y-44793110D01*
X53906028Y-44817140D01*
X53896276Y-44824046D01*
X53893273Y-44824180D01*
X53889344Y-44826350D01*
X53883496Y-44827678D01*
X53849460Y-44830582D01*
X53828701Y-44829479D01*
X53828626Y-44829476D01*
X53828621Y-44829476D01*
X53828620Y-44829476D01*
X52691822Y-44829476D01*
X52691817Y-44829475D01*
X52691815Y-44829476D01*
X52656881Y-44824451D01*
X52641882Y-44820046D01*
X52583136Y-44782303D01*
X52583107Y-44782269D01*
X52583106Y-44782269D01*
X52583105Y-44782267D01*
X52581949Y-44780934D01*
X52554469Y-44726059D01*
X52552824Y-44718497D01*
X52549992Y-44692144D01*
X52549992Y-39151805D01*
X52555015Y-39116869D01*
X52559419Y-39101871D01*
X52597164Y-39043120D01*
X52597192Y-39043095D01*
X52597191Y-39043095D01*
X52598533Y-39041932D01*
X52653412Y-39014453D01*
X52660971Y-39012809D01*
X52687324Y-39009976D01*
X73718170Y-39009976D01*
X73753106Y-39014999D01*
G37*
%TD.AperFunction*%
%TD*%
%TA.AperFunction,Conductor*%
%TO.N,GND*%
G36*
X51743039Y-62519685D02*
G01*
X51788794Y-62572489D01*
X51800000Y-62624000D01*
X51800000Y-65505976D01*
X51780315Y-65573015D01*
X51727511Y-65618770D01*
X51676000Y-65629976D01*
X47304500Y-65629976D01*
X47237461Y-65610291D01*
X47191706Y-65557487D01*
X47180500Y-65505976D01*
X47180500Y-62624000D01*
X47200185Y-62556961D01*
X47252989Y-62511206D01*
X47304500Y-62500000D01*
X51676000Y-62500000D01*
X51743039Y-62519685D01*
G37*
%TD.AperFunction*%
%TD*%
%TA.AperFunction,Conductor*%
%TO.N,GND*%
G36*
X102832539Y-69219685D02*
G01*
X102878294Y-69272489D01*
X102889500Y-69324000D01*
X102889500Y-72376000D01*
X102869815Y-72443039D01*
X102817011Y-72488794D01*
X102765500Y-72500000D01*
X98324000Y-72500000D01*
X98256961Y-72480315D01*
X98211206Y-72427511D01*
X98200000Y-72376000D01*
X98200000Y-69324000D01*
X98219685Y-69256961D01*
X98272489Y-69211206D01*
X98324000Y-69200000D01*
X102765500Y-69200000D01*
X102832539Y-69219685D01*
G37*
%TD.AperFunction*%
%TD*%
M02*
