M48
; DRILL file KiCad 10.0.4 date 2026-07-23T04:59:42
; FORMAT={-:-/ absolute / metric / decimal}
; #@! TF.CreationDate,2026-07-23T04:59:42+02:00
; #@! TF.GenerationSoftware,Kicad,Pcbnew,10.0.4
; #@! TF.FileFunction,MixedPlating,1,2
FMAT,2
METRIC
; #@! TA.AperFunction,Plated,PTH,ViaDrill
T1C0.500
; #@! TA.AperFunction,Plated,PTH,ComponentDrill
T2C1.000
; #@! TA.AperFunction,NonPlated,NPTH,ComponentDrill
T3C2.000
%
G90
G05
T1
X49.23Y-68.6
X49.23Y-70.74
X49.26Y-63.02
X49.26Y-65.16
X49.4Y-58.09
X49.4Y-60.29
X51.2Y-68.58
X51.2Y-70.72
X51.23Y-63.0
X51.23Y-65.14
X51.25Y-69.65
X51.28Y-64.07
X53.73Y-68.1
X53.9Y-61.9
X53.9Y-62.8
X53.9Y-63.75
X53.9Y-64.7
X55.13Y-68.1
X58.26Y-56.2
X58.35Y-57.09
X59.85Y-57.09
X61.45Y-57.09
X61.6Y-56.09
X63.0Y-42.9
X63.0Y-44.3
X63.6Y-48.97
X63.6Y-47.1
X63.9Y-48.1
X64.6Y-55.8
X64.6Y-74.485
X65.6Y-56.1
X65.85Y-67.945
X65.9Y-66.735
X66.0Y-74.485
X66.5Y-55.8
X67.2Y-67.945
X67.2Y-74.485
X67.4Y-70.0
X68.5Y-70.035
X68.7Y-68.1
X69.35Y-46.9
X69.36Y-46.04
X69.7Y-71.1
X69.7Y-70.035
X70.9Y-46.0
X71.6Y-64.4
X72.3Y-46.0
X72.4Y-46.9
X72.7Y-64.4
X73.4Y-65.3
X73.4Y-66.3
X76.4Y-60.4
X76.4Y-61.46
X76.4Y-62.5
X76.4Y-63.5
X80.19Y-53.73
X81.4Y-53.74
X82.44Y-51.98
X82.55Y-53.26
X83.46Y-52.58
X83.95Y-53.56
X84.54Y-52.56
X85.7Y-71.05
X85.85Y-64.9
X87.0Y-64.85
X87.1Y-71.05
X89.43Y-70.38
X89.48Y-71.28
X90.38Y-71.28
X90.527Y-50.462
X91.218Y-49.542
X91.237Y-48.722
X91.307Y-51.2
X91.307Y-52.192
X91.33Y-71.28
X91.43Y-70.38
X95.19Y-65.25
X95.23Y-69.77
X95.23Y-70.88
X95.24Y-64.18
X95.24Y-66.32
X95.28Y-71.98
X97.21Y-64.16
X97.21Y-66.38
X97.25Y-69.75
X97.43Y-71.98
T3
X50.86Y-34.11
X50.86Y-75.83
X94.8Y-34.13
X94.8Y-75.85
T2
X49.86Y-41.38G85X49.86Y-43.38
G05
X51.86Y-47.08G85X53.86Y-47.08
G05
X55.86Y-41.38G85X55.86Y-43.38
G05
M30
