%TF.GenerationSoftware,KiCad,Pcbnew,10.0.4*%
%TF.CreationDate,2026-07-23T05:51:26+02:00*%
%TF.ProjectId,TFG,5446472e-6b69-4636-9164-5f7063625858,rev?*%
%TF.SameCoordinates,Original*%
%TF.FileFunction,Copper,L2,Bot*%
%TF.FilePolarity,Positive*%
%FSLAX46Y46*%
G04 Gerber Fmt 4.6, Leading zero omitted, Abs format (unit mm)*
G04 Created by KiCad (PCBNEW 10.0.4) date 2026-07-23 05:51:26*
%MOMM*%
%LPD*%
G01*
G04 APERTURE LIST*
G04 Aperture macros list*
%AMRoundRect*
0 Rectangle with rounded corners*
0 $1 Rounding radius*
0 $2 $3 $4 $5 $6 $7 $8 $9 X,Y pos of 4 corners*
0 Add a 4 corners polygon primitive as box body*
4,1,4,$2,$3,$4,$5,$6,$7,$8,$9,$2,$3,0*
0 Add four circle primitives for the rounded corners*
1,1,$1+$1,$2,$3*
1,1,$1+$1,$4,$5*
1,1,$1+$1,$6,$7*
1,1,$1+$1,$8,$9*
0 Add four rect primitives between the rounded corners*
20,1,$1+$1,$2,$3,$4,$5,0*
20,1,$1+$1,$4,$5,$6,$7,0*
20,1,$1+$1,$6,$7,$8,$9,0*
20,1,$1+$1,$8,$9,$2,$3,0*%
G04 Aperture macros list end*
%TA.AperFunction,Conductor*%
%ADD10C,0.200000*%
%TD*%
%TA.AperFunction,ComponentPad*%
%ADD11R,3.500000X3.500000*%
%TD*%
%TA.AperFunction,ComponentPad*%
%ADD12RoundRect,0.750000X-0.750000X-1.000000X0.750000X-1.000000X0.750000X1.000000X-0.750000X1.000000X0*%
%TD*%
%TA.AperFunction,ComponentPad*%
%ADD13RoundRect,0.875000X-0.875000X-0.875000X0.875000X-0.875000X0.875000X0.875000X-0.875000X0.875000X0*%
%TD*%
%TA.AperFunction,ViaPad*%
%ADD14C,0.700000*%
%TD*%
G04 APERTURE END LIST*
%TO.N,GND*%
D10*
X46690000Y-30870024D02*
X100175000Y-30870024D01*
X100175000Y-79760000D01*
X46690000Y-79760000D01*
X46690000Y-30870024D01*
%TD*%
D11*
%TO.P,J1,1*%
%TO.N,/V12v*%
X55859992Y-42379976D03*
D12*
%TO.P,J1,2*%
%TO.N,GND*%
X49859992Y-42379976D03*
D13*
%TO.P,J1,3*%
X52859992Y-47079976D03*
%TD*%
D14*
%TO.N,GND*%
X51230339Y-65139976D03*
X58400000Y-68200000D03*
X90581093Y-70175000D03*
X68200000Y-74549992D03*
X87100000Y-70700000D03*
X71400000Y-68000000D03*
X91531085Y-71075000D03*
X57100000Y-63900000D03*
X82439992Y-51979976D03*
X61549992Y-56899976D03*
X95391093Y-64200000D03*
X83949992Y-53559976D03*
X49400000Y-58400000D03*
X97581093Y-72000000D03*
X47519992Y-70719976D03*
X51249992Y-69649976D03*
X61400000Y-57900000D03*
X72400000Y-46900000D03*
X58209992Y-57009976D03*
X99111093Y-69790000D03*
X51280339Y-64069976D03*
X76399992Y-61459976D03*
X69600000Y-74549992D03*
X87000000Y-65500000D03*
X70900000Y-46000000D03*
X72300000Y-46000000D03*
X49400000Y-60600000D03*
X99071093Y-66340000D03*
X57100000Y-62000000D03*
X73800000Y-69200000D03*
X59799992Y-57900000D03*
X99071093Y-64200000D03*
X72700000Y-69200000D03*
X97361093Y-66400000D03*
X47550339Y-62999976D03*
X47519992Y-68579976D03*
X57100000Y-62950000D03*
X84539992Y-52559976D03*
X51199992Y-68579976D03*
X57000000Y-68200000D03*
X92581093Y-70175000D03*
X95431093Y-72000000D03*
X51199992Y-70719976D03*
X64600000Y-55800000D03*
X91307500Y-52192500D03*
X69349992Y-46900000D03*
X70600000Y-70200000D03*
X63000000Y-44300000D03*
X76400000Y-63500000D03*
X82549992Y-53259976D03*
X76399992Y-60400000D03*
X90527500Y-50462500D03*
X80189992Y-53729976D03*
X95341093Y-65270000D03*
X58300000Y-57900000D03*
X74500000Y-70100000D03*
X85900000Y-65500000D03*
X69359992Y-46039976D03*
X69449992Y-68009976D03*
X63000000Y-42900000D03*
X85700000Y-70700000D03*
X49229992Y-68599976D03*
X81399992Y-53739976D03*
X97361093Y-64180000D03*
X57100000Y-61100000D03*
X72100000Y-70100000D03*
X76400000Y-62500000D03*
X51230339Y-62999976D03*
X95391093Y-66340000D03*
X49229992Y-70739976D03*
X49260339Y-65159976D03*
X99111093Y-72000000D03*
X91307500Y-51200000D03*
X91237500Y-48722500D03*
X63599992Y-48969976D03*
X72400000Y-68000000D03*
X91217500Y-49542500D03*
X70800000Y-74549992D03*
X73300000Y-70100000D03*
X47550339Y-65139976D03*
X92481093Y-71075000D03*
X83459992Y-52579976D03*
X97401093Y-69770000D03*
X63900000Y-48100000D03*
X65600000Y-56100000D03*
X95381093Y-69790000D03*
X66500000Y-55800000D03*
X90631085Y-71075000D03*
X75600000Y-70100000D03*
X95381093Y-70900000D03*
X49260339Y-63019976D03*
X70349992Y-68009976D03*
X69500000Y-66800000D03*
X63600000Y-47100000D03*
%TD*%
%TA.AperFunction,Conductor*%
%TO.N,GND*%
G36*
X99717539Y-31330209D02*
G01*
X99763294Y-31383013D01*
X99774500Y-31434524D01*
X99774500Y-79105500D01*
X99754815Y-79172539D01*
X99702011Y-79218294D01*
X99650500Y-79229500D01*
X47304500Y-79229500D01*
X47237461Y-79209815D01*
X47191706Y-79157011D01*
X47180500Y-79105500D01*
X47180500Y-75731577D01*
X49609500Y-75731577D01*
X49609500Y-75928422D01*
X49640290Y-76122826D01*
X49701117Y-76310029D01*
X49711306Y-76330025D01*
X49790476Y-76485405D01*
X49906172Y-76644646D01*
X50045354Y-76783828D01*
X50204595Y-76899524D01*
X50287455Y-76941743D01*
X50379970Y-76988882D01*
X50379972Y-76988882D01*
X50379975Y-76988884D01*
X50480317Y-77021487D01*
X50567173Y-77049709D01*
X50761578Y-77080500D01*
X50761583Y-77080500D01*
X50958422Y-77080500D01*
X51152826Y-77049709D01*
X51340025Y-76988884D01*
X51515405Y-76899524D01*
X51674646Y-76783828D01*
X51813828Y-76644646D01*
X51929524Y-76485405D01*
X52018884Y-76310025D01*
X52079709Y-76122826D01*
X52107332Y-75948422D01*
X52110500Y-75928422D01*
X52110500Y-75751577D01*
X92949500Y-75751577D01*
X92949500Y-75948422D01*
X92980290Y-76142826D01*
X93041117Y-76330029D01*
X93130476Y-76505405D01*
X93246172Y-76664646D01*
X93385354Y-76803828D01*
X93544595Y-76919524D01*
X93627455Y-76961743D01*
X93719970Y-77008882D01*
X93719972Y-77008882D01*
X93719975Y-77008884D01*
X93820317Y-77041487D01*
X93907173Y-77069709D01*
X94101578Y-77100500D01*
X94101583Y-77100500D01*
X94298422Y-77100500D01*
X94492826Y-77069709D01*
X94554379Y-77049709D01*
X94680025Y-77008884D01*
X94855405Y-76919524D01*
X95014646Y-76803828D01*
X95153828Y-76664646D01*
X95269524Y-76505405D01*
X95358884Y-76330025D01*
X95419709Y-76142826D01*
X95422877Y-76122826D01*
X95450500Y-75948422D01*
X95450500Y-75751577D01*
X95419709Y-75557173D01*
X95358882Y-75369970D01*
X95269523Y-75194594D01*
X95254992Y-75174594D01*
X95153828Y-75035354D01*
X95014646Y-74896172D01*
X94855405Y-74780476D01*
X94816153Y-74760476D01*
X94680029Y-74691117D01*
X94492826Y-74630290D01*
X94298422Y-74599500D01*
X94298417Y-74599500D01*
X94101583Y-74599500D01*
X94101578Y-74599500D01*
X93907173Y-74630290D01*
X93719970Y-74691117D01*
X93544594Y-74780476D01*
X93453741Y-74846485D01*
X93385354Y-74896172D01*
X93385352Y-74896174D01*
X93385351Y-74896174D01*
X93246174Y-75035351D01*
X93246174Y-75035352D01*
X93246172Y-75035354D01*
X93196485Y-75103741D01*
X93130476Y-75194594D01*
X93041117Y-75369970D01*
X92980290Y-75557173D01*
X92949500Y-75751577D01*
X52110500Y-75751577D01*
X52110500Y-75731577D01*
X52079709Y-75537173D01*
X52018882Y-75349970D01*
X51929523Y-75174594D01*
X51813828Y-75015354D01*
X51674646Y-74876172D01*
X51515405Y-74760476D01*
X51340029Y-74671117D01*
X51152826Y-74610290D01*
X50958422Y-74579500D01*
X50958417Y-74579500D01*
X50761583Y-74579500D01*
X50761578Y-74579500D01*
X50567173Y-74610290D01*
X50379970Y-74671117D01*
X50204594Y-74760476D01*
X50113741Y-74826485D01*
X50045354Y-74876172D01*
X50045352Y-74876174D01*
X50045351Y-74876174D01*
X49906174Y-75015351D01*
X49906174Y-75015352D01*
X49906172Y-75015354D01*
X49891643Y-75035352D01*
X49790476Y-75174594D01*
X49701117Y-75349970D01*
X49640290Y-75537173D01*
X49609500Y-75731577D01*
X47180500Y-75731577D01*
X47180500Y-46111397D01*
X50609992Y-46111397D01*
X50609992Y-46829976D01*
X51426980Y-46829976D01*
X51394067Y-46886983D01*
X51359992Y-47014150D01*
X51359992Y-47145802D01*
X51394067Y-47272969D01*
X51426980Y-47329976D01*
X50609993Y-47329976D01*
X50609993Y-48048564D01*
X50612786Y-48101167D01*
X50657229Y-48330963D01*
X50739871Y-48549951D01*
X50858331Y-48751817D01*
X50858336Y-48751824D01*
X51009203Y-48930762D01*
X51009205Y-48930764D01*
X51188143Y-49081631D01*
X51188150Y-49081636D01*
X51390016Y-49200096D01*
X51609004Y-49282738D01*
X51838801Y-49327181D01*
X51891374Y-49329974D01*
X51891413Y-49329975D01*
X52609991Y-49329975D01*
X52609992Y-49329974D01*
X52609992Y-47579976D01*
X53109992Y-47579976D01*
X53109992Y-49329975D01*
X53828568Y-49329975D01*
X53828580Y-49329974D01*
X53881183Y-49327181D01*
X54110979Y-49282738D01*
X54329967Y-49200096D01*
X54531833Y-49081636D01*
X54531840Y-49081631D01*
X54710778Y-48930764D01*
X54710780Y-48930762D01*
X54861647Y-48751824D01*
X54861652Y-48751817D01*
X54980112Y-48549951D01*
X55062754Y-48330963D01*
X55107197Y-48101167D01*
X55107197Y-48101166D01*
X55109990Y-48048593D01*
X55109992Y-48048554D01*
X55109992Y-47329976D01*
X54293004Y-47329976D01*
X54325917Y-47272969D01*
X54359992Y-47145802D01*
X54359992Y-47014150D01*
X54325917Y-46886983D01*
X54293004Y-46829976D01*
X55109991Y-46829976D01*
X55109991Y-46111399D01*
X55109990Y-46111387D01*
X55107197Y-46058784D01*
X55062754Y-45828988D01*
X54980112Y-45610000D01*
X54861652Y-45408134D01*
X54861647Y-45408127D01*
X54710780Y-45229189D01*
X54710778Y-45229187D01*
X54531840Y-45078320D01*
X54531833Y-45078315D01*
X54329967Y-44959855D01*
X54110976Y-44877212D01*
X54105832Y-44876217D01*
X54043752Y-44844156D01*
X54008861Y-44783622D01*
X54012236Y-44713834D01*
X54052806Y-44656949D01*
X54117689Y-44631028D01*
X54129366Y-44630475D01*
X57657864Y-44630475D01*
X57717475Y-44624067D01*
X57852323Y-44573772D01*
X57967538Y-44487522D01*
X58053788Y-44372307D01*
X58104083Y-44237459D01*
X58110492Y-44177849D01*
X58110491Y-40582104D01*
X58104083Y-40522493D01*
X58064563Y-40416535D01*
X58053789Y-40387647D01*
X58053785Y-40387640D01*
X57967539Y-40272431D01*
X57967536Y-40272428D01*
X57852327Y-40186182D01*
X57852320Y-40186178D01*
X57717474Y-40135884D01*
X57717475Y-40135884D01*
X57657875Y-40129477D01*
X57657873Y-40129476D01*
X57657865Y-40129476D01*
X57657856Y-40129476D01*
X54062121Y-40129476D01*
X54062115Y-40129477D01*
X54002508Y-40135884D01*
X53867663Y-40186178D01*
X53867656Y-40186182D01*
X53752447Y-40272428D01*
X53752444Y-40272431D01*
X53666198Y-40387640D01*
X53666194Y-40387647D01*
X53615900Y-40522493D01*
X53609493Y-40582092D01*
X53609493Y-40582099D01*
X53609492Y-40582111D01*
X53609492Y-44177846D01*
X53609493Y-44177852D01*
X53615900Y-44237459D01*
X53666194Y-44372304D01*
X53666198Y-44372311D01*
X53752444Y-44487520D01*
X53752447Y-44487523D01*
X53867656Y-44573769D01*
X53867665Y-44573774D01*
X53916498Y-44591987D01*
X53972432Y-44633857D01*
X53996850Y-44699321D01*
X53981999Y-44767594D01*
X53932595Y-44817000D01*
X53866590Y-44831994D01*
X53828617Y-44829977D01*
X53828571Y-44829976D01*
X53109992Y-44829976D01*
X53109992Y-46579976D01*
X52609992Y-46579976D01*
X52609992Y-44829976D01*
X51891415Y-44829976D01*
X51891403Y-44829977D01*
X51838800Y-44832770D01*
X51609004Y-44877213D01*
X51390016Y-44959855D01*
X51188150Y-45078315D01*
X51188143Y-45078320D01*
X51009205Y-45229187D01*
X51009203Y-45229189D01*
X50858336Y-45408127D01*
X50858331Y-45408134D01*
X50739871Y-45610000D01*
X50657229Y-45828988D01*
X50612786Y-46058784D01*
X50612786Y-46058785D01*
X50609993Y-46111358D01*
X50609992Y-46111397D01*
X47180500Y-46111397D01*
X47180500Y-41315779D01*
X47859992Y-41315779D01*
X47859992Y-42129976D01*
X49359992Y-42129976D01*
X49359992Y-42629976D01*
X47859993Y-42629976D01*
X47859993Y-43444173D01*
X47870392Y-43576308D01*
X47925369Y-43794495D01*
X48018420Y-43999350D01*
X48018423Y-43999356D01*
X48146551Y-44184299D01*
X48146561Y-44184311D01*
X48305656Y-44343406D01*
X48305668Y-44343416D01*
X48490611Y-44471544D01*
X48490617Y-44471547D01*
X48695472Y-44564598D01*
X48913659Y-44619575D01*
X49045802Y-44629975D01*
X49609991Y-44629975D01*
X49609992Y-44629974D01*
X49609992Y-43812988D01*
X49666999Y-43845901D01*
X49794166Y-43879976D01*
X49925818Y-43879976D01*
X50052985Y-43845901D01*
X50109992Y-43812988D01*
X50109992Y-44629975D01*
X50674174Y-44629975D01*
X50674189Y-44629974D01*
X50806324Y-44619575D01*
X51024511Y-44564598D01*
X51229366Y-44471547D01*
X51229372Y-44471544D01*
X51414315Y-44343416D01*
X51414327Y-44343406D01*
X51573422Y-44184311D01*
X51573432Y-44184299D01*
X51701560Y-43999356D01*
X51701563Y-43999350D01*
X51794614Y-43794495D01*
X51849591Y-43576308D01*
X51859991Y-43444172D01*
X51859992Y-43444160D01*
X51859992Y-42629976D01*
X50359992Y-42629976D01*
X50359992Y-42129976D01*
X51859991Y-42129976D01*
X51859991Y-41315793D01*
X51859990Y-41315778D01*
X51849591Y-41183643D01*
X51794614Y-40965456D01*
X51701563Y-40760601D01*
X51701560Y-40760595D01*
X51573432Y-40575652D01*
X51573422Y-40575640D01*
X51414327Y-40416545D01*
X51414315Y-40416535D01*
X51229372Y-40288407D01*
X51229366Y-40288404D01*
X51024511Y-40195353D01*
X50806324Y-40140376D01*
X50674188Y-40129976D01*
X50109992Y-40129976D01*
X50109992Y-40946964D01*
X50052985Y-40914051D01*
X49925818Y-40879976D01*
X49794166Y-40879976D01*
X49666999Y-40914051D01*
X49609992Y-40946964D01*
X49609992Y-40129976D01*
X49045809Y-40129976D01*
X49045794Y-40129977D01*
X48913659Y-40140376D01*
X48695472Y-40195353D01*
X48490617Y-40288404D01*
X48490611Y-40288407D01*
X48305668Y-40416535D01*
X48305656Y-40416545D01*
X48146561Y-40575640D01*
X48146551Y-40575652D01*
X48018423Y-40760595D01*
X48018420Y-40760601D01*
X47925369Y-40965456D01*
X47870392Y-41183643D01*
X47859992Y-41315779D01*
X47180500Y-41315779D01*
X47180500Y-34011577D01*
X49609500Y-34011577D01*
X49609500Y-34208422D01*
X49640290Y-34402826D01*
X49701117Y-34590029D01*
X49711306Y-34610025D01*
X49790476Y-34765405D01*
X49906172Y-34924646D01*
X50045354Y-35063828D01*
X50204595Y-35179524D01*
X50287455Y-35221743D01*
X50379970Y-35268882D01*
X50379972Y-35268882D01*
X50379975Y-35268884D01*
X50480317Y-35301487D01*
X50567173Y-35329709D01*
X50761578Y-35360500D01*
X50761583Y-35360500D01*
X50958422Y-35360500D01*
X51152826Y-35329709D01*
X51340025Y-35268884D01*
X51515405Y-35179524D01*
X51674646Y-35063828D01*
X51813828Y-34924646D01*
X51929524Y-34765405D01*
X52018884Y-34590025D01*
X52079709Y-34402826D01*
X52107332Y-34228422D01*
X52110500Y-34208422D01*
X52110500Y-34031577D01*
X92949500Y-34031577D01*
X92949500Y-34228422D01*
X92980290Y-34422826D01*
X93041117Y-34610029D01*
X93130476Y-34785405D01*
X93246172Y-34944646D01*
X93385354Y-35083828D01*
X93544595Y-35199524D01*
X93627455Y-35241743D01*
X93719970Y-35288882D01*
X93719972Y-35288882D01*
X93719975Y-35288884D01*
X93820317Y-35321487D01*
X93907173Y-35349709D01*
X94101578Y-35380500D01*
X94101583Y-35380500D01*
X94298422Y-35380500D01*
X94492826Y-35349709D01*
X94554379Y-35329709D01*
X94680025Y-35288884D01*
X94855405Y-35199524D01*
X95014646Y-35083828D01*
X95153828Y-34944646D01*
X95269524Y-34785405D01*
X95358884Y-34610025D01*
X95419709Y-34422826D01*
X95422877Y-34402826D01*
X95450500Y-34228422D01*
X95450500Y-34031577D01*
X95419709Y-33837173D01*
X95358882Y-33649970D01*
X95269523Y-33474594D01*
X95254992Y-33454594D01*
X95153828Y-33315354D01*
X95014646Y-33176172D01*
X94855405Y-33060476D01*
X94816153Y-33040476D01*
X94680029Y-32971117D01*
X94492826Y-32910290D01*
X94298422Y-32879500D01*
X94298417Y-32879500D01*
X94101583Y-32879500D01*
X94101578Y-32879500D01*
X93907173Y-32910290D01*
X93719970Y-32971117D01*
X93544594Y-33060476D01*
X93453741Y-33126485D01*
X93385354Y-33176172D01*
X93385352Y-33176174D01*
X93385351Y-33176174D01*
X93246174Y-33315351D01*
X93246174Y-33315352D01*
X93246172Y-33315354D01*
X93196485Y-33383741D01*
X93130476Y-33474594D01*
X93041117Y-33649970D01*
X92980290Y-33837173D01*
X92949500Y-34031577D01*
X52110500Y-34031577D01*
X52110500Y-34011577D01*
X52079709Y-33817173D01*
X52018882Y-33629970D01*
X51929523Y-33454594D01*
X51813828Y-33295354D01*
X51674646Y-33156172D01*
X51515405Y-33040476D01*
X51340029Y-32951117D01*
X51152826Y-32890290D01*
X50958422Y-32859500D01*
X50958417Y-32859500D01*
X50761583Y-32859500D01*
X50761578Y-32859500D01*
X50567173Y-32890290D01*
X50379970Y-32951117D01*
X50204594Y-33040476D01*
X50113741Y-33106485D01*
X50045354Y-33156172D01*
X50045352Y-33156174D01*
X50045351Y-33156174D01*
X49906174Y-33295351D01*
X49906174Y-33295352D01*
X49906172Y-33295354D01*
X49891643Y-33315352D01*
X49790476Y-33454594D01*
X49701117Y-33629970D01*
X49640290Y-33817173D01*
X49609500Y-34011577D01*
X47180500Y-34011577D01*
X47180500Y-31434524D01*
X47200185Y-31367485D01*
X47252989Y-31321730D01*
X47304500Y-31310524D01*
X99650500Y-31310524D01*
X99717539Y-31330209D01*
G37*
%TD.AperFunction*%
%TD*%
M02*
