M48
; DRILL file KiCad 10.0.4 date 2026-07-13T11:06:42
; FORMAT={-:-/ absolute / metric / decimal}
; #@! TF.CreationDate,2026-07-13T11:06:42+02:00
; #@! TF.GenerationSoftware,Kicad,Pcbnew,10.0.4
; #@! TF.FileFunction,MixedPlating,1,2
FMAT,2
METRIC
; #@! TA.AperFunction,Plated,PTH,ViaDrill
T1C0.500
; #@! TA.AperFunction,Plated,PTH,ComponentDrill
T2C1.000
; #@! TA.AperFunction,NonPlated,NPTH,ComponentDrill
T3C2.000
%
G90
G05
T1
X47.52Y-68.58
X47.52Y-70.72
X47.55Y-63.0
X47.55Y-65.14
X49.23Y-68.6
X49.23Y-70.74
X49.26Y-63.02
X49.26Y-65.16
X49.4Y-58.4
X49.4Y-60.6
X51.2Y-68.58
X51.2Y-70.72
X51.23Y-63.0
X51.23Y-65.14
X51.25Y-69.65
X51.28Y-64.07
X57.0Y-68.2
X57.1Y-61.1
X57.1Y-62.0
X57.1Y-62.95
X57.1Y-63.9
X58.21Y-57.01
X58.3Y-57.9
X58.4Y-68.2
X59.8Y-57.9
X61.4Y-57.9
X61.55Y-56.9
X63.0Y-42.9
X63.0Y-44.3
X63.6Y-48.97
X63.6Y-47.1
X63.9Y-48.1
X64.6Y-55.8
X65.6Y-56.1
X66.5Y-55.8
X68.2Y-74.55
X69.35Y-46.9
X69.36Y-46.04
X69.45Y-68.01
X69.5Y-66.8
X69.6Y-74.55
X70.35Y-68.01
X70.6Y-70.2
X70.8Y-74.55
X70.9Y-46.0
X71.4Y-68.0
X72.1Y-70.1
X72.3Y-46.0
X72.4Y-46.9
X72.4Y-68.0
X72.7Y-69.2
X73.3Y-70.1
X73.8Y-69.2
X74.5Y-70.1
X75.6Y-70.1
X76.4Y-60.4
X76.4Y-61.46
X76.4Y-62.5
X76.4Y-63.5
X80.19Y-53.73
X81.4Y-53.74
X82.44Y-51.98
X82.55Y-53.26
X83.46Y-52.58
X83.95Y-53.56
X84.54Y-52.56
X85.7Y-70.7
X85.9Y-65.5
X87.0Y-65.5
X87.1Y-70.7
X90.527Y-50.462
X91.218Y-49.542
X91.237Y-48.722
X91.307Y-51.2
X91.307Y-52.192
X93.0Y-70.4
X93.05Y-71.3
X93.95Y-71.3
X94.9Y-71.3
X95.0Y-70.4
X98.76Y-65.27
X98.8Y-69.79
X98.8Y-70.9
X98.81Y-64.2
X98.81Y-66.34
X98.85Y-72.0
X100.78Y-64.18
X100.78Y-66.4
X100.82Y-69.77
X101.0Y-72.0
X102.49Y-64.2
X102.49Y-66.34
X102.53Y-69.79
X102.53Y-72.0
T3
X50.86Y-34.11
X50.86Y-75.83
X99.6Y-34.11
X99.6Y-75.83
T2
X49.86Y-41.38G85X49.86Y-43.38
G05
X51.86Y-47.08G85X53.86Y-47.08
G05
X55.86Y-41.38G85X55.86Y-43.38
G05
M30
